<?xml version="1.0" encoding="UTF-8"?><svg xmlns="http://www.w3.org/2000/svg" viewBox="0 0 799.99 799.99"><defs><style>.uuid-9bb77cde-409b-4b8c-bcbe-761b2eddbd33{fill:#fbae17;}.uuid-a1017489-2bc2-4481-b5c9-b06e5e9fd4b3{fill:#8a8c8e;}.uuid-6c1c26f0-c9f9-4c47-bc5e-502a1b89d876{fill:#d1d3d4;}.uuid-e7b90ec9-aeb6-4f5b-8249-3845f477ea78{fill:#231f20;}</style></defs><g id="uuid-c58c4d54-14ee-4c64-8240-d7a52db52ac7"><path class="uuid-9bb77cde-409b-4b8c-bcbe-761b2eddbd33" d="M558.19,209.14s12.94-1.7,18.25,3.6,9.56,14.99,9.56,14.99c0,0,7.55,2.61,10.17,0,2.61-2.61,7.81,38.63-12.94,44.44l.44-4.69s10.06-8.38,6.2-20.87c-3.86-12.49-8.91-13.52-8.91-13.52l-22.76-23.95Z"/><path class="uuid-9bb77cde-409b-4b8c-bcbe-761b2eddbd33" d="M597.33,216.11s9,16.35,9,23.28,29.92,4.5,29.92-13.16-9.29-24.06-16.27-24.93c-6.97-.87-19.49,2.2-22.66,14.81Z"/><path class="uuid-a1017489-2bc2-4481-b5c9-b06e5e9fd4b3" d="M537.54,215.24l-2.32,11.08s-8.13,29.58-10.5,37.13-9,11.55-9,11.55l5.23,3.03s-1.86,15.73,6.91,21.78,13.42,7.49,14.73,7.63c1.31,.14,10.94-.85,10.94-.85l2.08,14.95s-15.11,9.57-21.31,15.77c-3.1,3.1-4.5,5.33-5.12,6.79s-.47,2.14-.47,2.14l11.03,5.81,47.44-10.46,14.98-4.27s-8.88-12.94-9.75-12.94-11.11-10.27-11.11-10.27l-2.82-20.74,1.91-7.84,1.56-8.42s1.04-11.62,1.13-11.03,6.81-11.05,6.81-11.05c0,0,2.69-10.03-2.41-15.64s-15.69-14.56-15.69-14.56l-15.44-17.37s-6.52-5.63-12.1-2.67c-5.58,2.96-6.69,10.46-6.69,10.46Z"/><path class="uuid-9bb77cde-409b-4b8c-bcbe-761b2eddbd33" d="M530.04,354.68l-7.9,22.31s-14.54,34.09,18.84,34.09c1.68,0,32.41,12.63,32.41,12.63,0,0-41.67,13.93-39.98-5.03l-11.54-10.21-16.66,41.75s-2.1,6.64,19.78,15.94,45.87-2.9,50.5-2.9,15.15-33.26,24.83-37.46c9.68-4.21-2.95-13.63-2.95-13.63l-18.74-38.87-6.05-12.33,11.1-2.09,27.58,59.78s12.9-4.65,19.29-1.28,3.44,11.7-2.87,14.48c-6.31,2.78-15.15,8.67-19.36,17.09-4.21,8.42,15.85-6.11,22.23-2.22s24.06-4.92,13.12-38.18c-10.94-33.26-28.62-62.72-42.51-62.72s-45.62,4.69-45.62,4.69c0,0-20.67-.69-25.51,4.15Z"/><path class="uuid-9bb77cde-409b-4b8c-bcbe-761b2eddbd33" d="M330.65,225.86c-4.71-13.15-16.78-16.06-16.78-16.06,0,0-15.37-8.28-38.12,1.74-22.75,10.02-27.48,44.24-27.48,44.24,0,0-1.62,22.59,4.05,37.43,5.67,14.84,3.84,35.31,3.84,35.31l3.12,20.55s23.14-34.77,27.11-48.68c1.92-6.74,2.77-23.11,3.12-38.21,.87-.3,1.79-.6,2.75-.91,29.37-9.61,23.67-32.67,23.67-32.67l16.37,16.41s3.06-5.99-1.65-19.14Zm-54.02,45.15s-8.13-.08,1.49-4.49l-1.49,4.49Z"/><path class="uuid-9bb77cde-409b-4b8c-bcbe-761b2eddbd33" d="M266.2,353.38l-3.35,6.45s10.22,14.99,10.22,29.3-5.11,33.39-5.11,33.39c0,0,21.85,12.74,26.91,17.81,5.06,5.06,37.79-1.55,37.79-1.55,0,0-6.39-25.25-6-28.57s5.9-20.39,0-33.34c-5.9-12.95-9.3-19.9-9.3-19.9,0,0-26.48,21.09-51.16-3.59Z"/><path class="uuid-6c1c26f0-c9f9-4c47-bc5e-502a1b89d876" d="M333.66,601.71c0,2.73-2.22,28.63-2.22,28.63,0,0,15.5,11.09,16.6-1.38,1.1-12.47-14.38-27.25-14.38-27.25Z"/><path class="uuid-9bb77cde-409b-4b8c-bcbe-761b2eddbd33" d="M74.19,190.15s3.68,38.3,10.76,45.38,14.65,18.18,14.65,18.18l18.03,8.5-1.86-21.69s-18.02-43.1-41.58-50.37Z"/><path class="uuid-9bb77cde-409b-4b8c-bcbe-761b2eddbd33" d="M144.93,237.48l-1.42-16.69s-.73-23.41,12.76-32.83c13.48-9.42,22.64-21.27,22.64-21.27l-10.01,35.34-23.97,35.46Z"/><path class="uuid-9bb77cde-409b-4b8c-bcbe-761b2eddbd33" d="M136.14,309.94s6.96-31.76,21.85-46.21c14.89-14.45,23.55-16.94,23.55-16.94,0,0-8.69,29.02-8.69,31.57s-19.45,29.57-36.72,31.57Z"/><path class="uuid-9bb77cde-409b-4b8c-bcbe-761b2eddbd33" d="M121.65,352.1s-14.31-37.45-38.01-48.43c-23.71-10.97-13.47,5.53-13.47,5.53,0,0,20.75,49.55,51.48,42.89Z"/><path class="uuid-6c1c26f0-c9f9-4c47-bc5e-502a1b89d876" d="M151.07,527.87h-48.33l4.34,8.07,5.57,36.49c.73,4.8,4.66,8.48,9.5,8.89l30.84,2.63-1.93-56.08Z"/><path class="uuid-6c1c26f0-c9f9-4c47-bc5e-502a1b89d876" d="M217.03,488.69s17.42-22.51,19.47-9.42c2.05,13.09-5.12,33.34-5.12,33.34l-1.27,60.64,3.72,45.06-16.79-5.66s-17.42-44.24,0-123.95Z"/><path class="uuid-6c1c26f0-c9f9-4c47-bc5e-502a1b89d876" d="M626.8,500.77c1.54,6.73,3.34,11.83,3.34,11.83l1.27,60.64-3.72,45.06,16.79-5.66s16.16-41.07,1.77-115.36c-5.35,4.12-12.54,4.37-19.45,3.49Z"/><path class="uuid-6c1c26f0-c9f9-4c47-bc5e-502a1b89d876" d="M250.59,515.65s-20.95,80.04-4.8,98.3c.68,.77,1.43,1.44,2.26,1.98,20.21,13.32,63.05,2.36,63.05,2.36l-3.08-54.79-43.78-27.48-13.65-20.37Z"/><polygon class="uuid-6c1c26f0-c9f9-4c47-bc5e-502a1b89d876" points="396.25 531.92 373.78 564.71 385.07 612.64 454.95 612.64 443.91 523.72 403.09 523.72 396.25 531.92"/><path class="uuid-6c1c26f0-c9f9-4c47-bc5e-502a1b89d876" d="M629.31,523.72s-21.12,7.17-27.16,21.51c-6.04,14.34-25.98,69.67-25.98,69.67l53.14-4.1s11.69-52.25,0-87.08Z"/><path class="uuid-9bb77cde-409b-4b8c-bcbe-761b2eddbd33" d="M499.59,666.09l-8.5,9.34s-21.4,2.83-20.2,6.51,28.35,14.44,34.46,14.44,20.84-16.45,20.84-16.45c0,0,2.03-12.42-26.6-13.85Z"/><path class="uuid-9bb77cde-409b-4b8c-bcbe-761b2eddbd33" d="M469.61,652.88s-12.09,1.32-12.87,8.68c-.78,7.36,34.36,3.39,34.36,3.39v-10.38l2.95-17.65s-14.31-1.04-15.34,0-7.01-.03-9.36,4.09,.26,11.87,.26,11.87Z"/><path class="uuid-6c1c26f0-c9f9-4c47-bc5e-502a1b89d876" d="M178.91,356.99l.59,5.18,15.46,136.08,6.02,95.12,8.32,21.53s-25.65-7.26-25.65-13.2-14.4-28.47-14.4-28.47l-.35-216.24"/><path class="uuid-6c1c26f0-c9f9-4c47-bc5e-502a1b89d876" d="M682.94,356.99l-.59,5.18-15.46,136.08-6.02,95.12-8.32,21.53s25.65-7.26,25.65-13.2,14.4-28.47,14.4-28.47l.35-216.24"/><path class="uuid-a1017489-2bc2-4481-b5c9-b06e5e9fd4b3" d="M607.46,468.07s-18.22-3.47-19.11,3.01-3.28,14.88,1.81,14.88,15.41-9.3,15.41-9.3c0,0-2.15,10.9,6.45,10.9s13.76-1.25,13.76-1.25c0,0,7.52,6.04,11.17,2.4l3.65-3.65s9.12,1.85,9.12-3.69,4.58-11.08-4.53-15.19-17.63-9.6-17.63-9.6l-20.1,11.5Z"/><path class="uuid-a1017489-2bc2-4481-b5c9-b06e5e9fd4b3" d="M474.13,457.47s-8.77-13.12-8.77-15.01-8.08-13.93-10.65-13.93-6.55,12.44-4.59,17.29-12.18-5.04-20.77,1.73-2.58,9.02-2.58,9.02c0,0,8.78-9.7,22.65,.9l12.16,4.45s-3.71-13.76,12.54-4.45Z"/></g><g id="uuid-d9af3f95-9f3f-4f00-a905-5e1a52bc6c9f"><path class="uuid-e7b90ec9-aeb6-4f5b-8249-3845f477ea78" d="M540.59,213.52c-1.38-6.04,6.39-7.38,10.29-5.59,3.27,1.5,5.83,4.29,7.97,7.1,4.37,5.74,7.73,11.49,13.57,15.93,5.86,4.45,11.68,7.99,13.5,15.61,1.57,6.56-.08,13.54-4.64,18.52-2.93,3.2,1.84,7.99,4.77,4.77,6.05-6.63,8.41-15.65,6.53-24.44-.96-4.5-3.16-8.7-6.3-12.06-3.99-4.28-9.46-6.81-13.54-10.98-7.37-7.52-11.28-19.43-22.81-21.81-8.87-1.83-17.99,5.39-15.86,14.74,.97,4.23,7.48,2.44,6.51-1.79h0Z"/><path class="uuid-e7b90ec9-aeb6-4f5b-8249-3845f477ea78" d="M570.55,261.74c3.67-1.12,8.23,.84,9.16,4.84,1.05,4.49-3.44,8.19-7.56,8.04-4.34-.16-4.34,6.59,0,6.75,8.17,.29,15.68-7.26,14.25-15.6s-10.1-12.83-17.65-10.54c-4.15,1.26-2.38,7.78,1.79,6.51h0Z"/><path class="uuid-e7b90ec9-aeb6-4f5b-8249-3845f477ea78" d="M532.18,224.62c-6.92,14.74-11.31,30.22-13.21,46.39-.51,4.31,6.25,4.27,6.75,0,1.75-14.9,5.91-29.4,12.29-42.98,1.83-3.91-3.98-7.34-5.83-3.41h0Z"/><path class="uuid-e7b90ec9-aeb6-4f5b-8249-3845f477ea78" d="M511.28,277.92c2.8,1.55,5.6,3.09,8.4,4.64l-1.67-2.91c-2.12,21.02,18.75,36.94,38.49,29.47,4.02-1.52,2.28-8.05-1.79-6.51-15.87,6.01-31.64-6.09-29.94-22.96,.11-1.13-.72-2.39-1.67-2.91-2.8-1.55-5.6-3.09-8.4-4.64-3.81-2.1-7.21,3.73-3.41,5.83h0Z"/><path class="uuid-e7b90ec9-aeb6-4f5b-8249-3845f477ea78" d="M538.36,258.25l-.31,2.12c-.14,.94-.16,1.75,.34,2.6,.41,.7,1.21,1.37,2.02,1.55,.86,.2,1.83,.15,2.6-.34,.69-.44,1.43-1.17,1.55-2.02l.31-2.12c.14-.94,.16-1.75-.34-2.6-.41-.7-1.21-1.37-2.02-1.55-.86-.2-1.83-.15-2.6,.34-.69,.44-1.43,1.17-1.55,2.02h0Z"/><path class="uuid-e7b90ec9-aeb6-4f5b-8249-3845f477ea78" d="M539.92,252.63c1.25-1.14,3.76-1.02,4.78,.44,2.47,3.54,8.32,.17,5.83-3.41-3.55-5.09-10.74-6.04-15.38-1.81-3.22,2.93,1.57,7.7,4.77,4.77h0Z"/><path class="uuid-e7b90ec9-aeb6-4f5b-8249-3845f477ea78" d="M549.65,309.06c1.76,6.79,3.52,13.57,5.29,20.36,1.09,4.2,7.6,2.42,6.51-1.79-1.76-6.79-3.52-13.57-5.29-20.36-1.09-4.2-7.6-2.42-6.51,1.79h0Z"/><path class="uuid-e7b90ec9-aeb6-4f5b-8249-3845f477ea78" d="M532.83,332.03c-9.29,9.38-15.8,20.89-18.98,33.7-1.05,4.22,5.46,6.01,6.51,1.79,2.92-11.73,8.74-22.14,17.25-30.72,3.06-3.09-1.71-7.86-4.77-4.77h0Z"/><path class="uuid-e7b90ec9-aeb6-4f5b-8249-3845f477ea78" d="M514.34,401.65c-3.1,7.23-6.51,14.32-10.3,21.22-3.76,6.85-8.34,13.18-12.21,19.94-7.34,12.85,4.49,22.63,14.32,29.5,10.76,7.52,23.77,12.75,37.05,12.62,7.06-.07,13.47-2,20.06-4.39s15.41-5.61,21.83-.6c3.38,2.64,8.19-2.1,4.77-4.77-10.21-7.98-21.61-3.39-32.54,.37-12.84,4.42-26.05,2.7-38.11-3.29-5.73-2.85-11.08-6.46-15.89-10.67-2.25-1.97-4.76-4.12-6.22-6.78-2.35-4.28,.08-7.85,2.43-11.45,7.94-12.22,14.9-24.88,20.65-38.28,1.69-3.95-4.12-7.39-5.83-3.41h0Z"/><path class="uuid-e7b90ec9-aeb6-4f5b-8249-3845f477ea78" d="M567.85,358.67c11.19,25.03,26.61,48.02,35.45,74.09,1.39,4.09,7.91,2.34,6.51-1.79-9.04-26.64-24.7-50.14-36.13-75.71-1.77-3.96-7.59-.53-5.83,3.41h0Z"/><path class="uuid-e7b90ec9-aeb6-4f5b-8249-3845f477ea78" d="M607.46,462.78c-6.55,.76-13.44,1.66-18.53,6.28-3.85,3.5-5.98,8.72-4.49,13.86,1.38,4.78,5.67,8.22,10.71,7.97,6.36-.32,10.36-5.72,13.44-10.63,2.32-3.69-3.52-7.08-5.83-3.41-1.64,2.61-3.49,5.94-6.63,6.95-3.5,1.13-5.96-1.99-5.38-5.34,1.24-7.12,11.1-8.29,16.7-8.93,4.26-.49,4.31-7.25,0-6.75h0Z"/><path class="uuid-e7b90ec9-aeb6-4f5b-8249-3845f477ea78" d="M615.61,474.26c-4.64,3.71-6.42,9.49-5.59,15.23,.26,1.82,2.55,2.78,4.15,2.36,1.94-.51,2.62-2.36,2.36-4.15-.5-3.44,1.24-6.58,3.85-8.66,1.44-1.15,1.17-3.57,0-4.77-1.39-1.42-3.36-1.13-4.77,0h0Z"/><path class="uuid-e7b90ec9-aeb6-4f5b-8249-3845f477ea78" d="M627.67,475.11c-7.24,2.02-8.31,12.03-1.71,15.69,8.28,4.6,15.56-2.99,18.14-10.23h-6.51c1.97,5.13,8.12,7.54,12.99,4.39,5.2-3.36,5.22-10.73,2.32-15.6-3.44-5.77-11.13-10.11-17.17-12.64-6.68-2.8-13.94-2.68-19.49,2.32-3.24,2.91,1.55,7.67,4.77,4.77,5.34-4.8,12.57-1.01,17.68,2.11,2.41,1.48,5.03,2.99,6.97,5.07,1.33,1.42,2.53,3.34,2.49,5.38-.04,1.56-2.94,5.3-4.05,2.41-1.2-3.13-5.35-3.26-6.51,0-.81,2.27-2,4.87-4.3,6-1.16,.58-2.36,.69-3.59,.32-1.91-1.2-1.99-2.36-.24-3.48,4.18-1.17,2.4-7.68-1.79-6.51h0Z"/><path class="uuid-e7b90ec9-aeb6-4f5b-8249-3845f477ea78" d="M481.52,471.27c-25.54,9.16-26.62,38.86-24.56,61.61,2.77,30.6,5.68,61.19,8.52,91.78,.4,4.29,7.15,4.33,6.75,0-2.54-27.38-5.09-54.76-7.63-82.14-1.95-21.04-7.04-55.51,18.71-64.74,4.06-1.46,2.31-7.98-1.79-6.51h0Z"/><path class="uuid-e7b90ec9-aeb6-4f5b-8249-3845f477ea78" d="M497,515.65c6.13,50.16,2.61,101.07-10.46,149.88-.51,1.89,1.01,4.57,3.25,4.27,15.44-2.04,30.44,3.96,40.16,16.14,2.71,3.39,7.46-1.41,4.77-4.77-10.66-13.35-27.99-20.36-44.93-18.11l3.25,4.27c13.22-49.35,16.9-100.95,10.71-151.67-.52-4.26-7.28-4.31-6.75,0h0Z"/><path class="uuid-e7b90ec9-aeb6-4f5b-8249-3845f477ea78" d="M467.98,688.15c-3.12-9.11,15.63-2.58,18.89-1.12,5.91,2.64,11.28,6.23,16.1,10.55,3.23,2.89,8.02-1.87,4.77-4.77-8.31-7.44-18.48-13.41-29.48-15.77-8.09-1.73-20.41,2.33-16.79,12.91,1.4,4.09,7.92,2.33,6.51-1.79h0Z"/><path class="uuid-e7b90ec9-aeb6-4f5b-8249-3845f477ea78" d="M475.48,680.09c12.69-1.28,24.88,1.78,35.43,8.98,3.6,2.45,6.98-3.39,3.41-5.83-11.41-7.78-25.09-11.29-38.84-9.9-4.28,.43-4.33,7.19,0,6.75h0Z"/><path class="uuid-e7b90ec9-aeb6-4f5b-8249-3845f477ea78" d="M475.1,698.58c8.36,9,20.43,14.38,32.79,13.93,10.59-.38,21.58-5.26,25.04-15.97,1.34-4.14-5.18-5.92-6.51-1.79-2.83,8.77-13.4,11.41-21.63,10.99-9.6-.49-18.43-4.94-24.92-11.93-2.96-3.19-7.73,1.59-4.77,4.77h0Z"/><path class="uuid-e7b90ec9-aeb6-4f5b-8249-3845f477ea78" d="M539.74,674.73c13.36-29.8,26.73-59.6,40.09-89.41,6.36-14.18,12.37-28.59,19.18-42.56,5.4-11.08,14.43-26.24,28.54-25.6,4.34,.2,4.33-6.55,0-6.75-13.09-.59-22.8,9.53-29.37,19.83-8.7,13.63-14.32,29.67-20.92,44.38-14.45,32.23-28.91,64.47-43.36,96.7-1.76,3.93,4.05,7.37,5.83,3.41h0Z"/><path class="uuid-e7b90ec9-aeb6-4f5b-8249-3845f477ea78" d="M286.28,229.42c.65,24.35,1.69,49.69-4.99,73.38-5.6,19.88-16.83,38.84-33.08,51.81-3.39,2.71,1.41,7.46,4.77,4.77,16.71-13.33,28.34-32.95,34.39-53.29,7.34-24.67,6.34-51.23,5.66-76.66-.12-4.34-6.87-4.35-6.75,0h0Z"/><path class="uuid-e7b90ec9-aeb6-4f5b-8249-3845f477ea78" d="M272.33,258.18c.32,27.09-7.11,53.55-21.45,76.53,2.06,.87,4.11,1.73,6.17,2.6,5.58-13.86,2.67-28.67-.88-42.64-3.99-15.69-7.04-31.16-2.98-47.22,6.5-25.69,34.19-48.04,60.65-33.9,11.95,6.38,23.46,24.65,11.3,36.4-3.13,3.02,1.65,7.79,4.77,4.77,10.23-9.89,7.99-26.05-.12-36.5-8.69-11.19-23.62-17.02-37.62-15.5-33.67,3.67-50.35,39.07-47.38,69.69,2.02,20.86,14.13,42.3,5.75,63.11-1.47,3.66,4.22,5.72,6.17,2.6,14.94-23.95,22.7-51.72,22.37-79.94-.05-4.34-6.8-4.35-6.75,0h0Z"/><path class="uuid-e7b90ec9-aeb6-4f5b-8249-3845f477ea78" d="M341.38,281.02c-2.72,.1-5.26,1.16-7.96,1.26-1.55,.06-2.78,1.02-3.25,2.48-3.68,11.37-13.42,19.32-25.14,21.2-4.28,.69-2.46,7.19,1.79,6.51,14.05-2.26,25.49-12.46,29.85-25.92-1.08,.83-2.17,1.65-3.25,2.48,2.72-.1,5.26-1.16,7.96-1.26,4.33-.16,4.35-6.91,0-6.75h0Z"/><path class="uuid-e7b90ec9-aeb6-4f5b-8249-3845f477ea78" d="M310.49,262.21v5.73c0,1.82,1.55,3.38,3.38,3.38s3.38-1.54,3.38-3.38v-5.73c0-1.82-1.55-3.38-3.38-3.38s-3.38,1.54-3.38,3.38h0Z"/><path class="uuid-e7b90ec9-aeb6-4f5b-8249-3845f477ea78" d="M312.77,285.16c-2.12,.91-4.9,.06-6.23-1.78-1.73-2.39-5.17-2.06-6.17,.81-1.93,5.54-4.06,13.68,.2,18.6,2.85,3.29,7.61-1.5,4.77-4.77-1.25-1.44-.2-5.36,.15-6.97,.36-1.71,.82-3.41,1.39-5.06-2.06,.27-4.11,.54-6.17,.81,3.69,5.1,9.71,6.68,15.47,4.21,3.98-1.71,.54-7.53-3.41-5.83h0Z"/><path class="uuid-e7b90ec9-aeb6-4f5b-8249-3845f477ea78" d="M279.49,316.01c4.2,6.05,6.81,12.75,7.49,20.11,.39,4.29,7.15,4.33,6.75,0-.78-8.53-3.5-16.46-8.41-23.51-2.46-3.54-8.32-.17-5.83,3.41h0Z"/><path class="uuid-e7b90ec9-aeb6-4f5b-8249-3845f477ea78" d="M247.68,355.29c-7.12,15.17-14.41,30.27-21.64,45.39-3.61,7.53-7.2,15.07-10.75,22.63-2.96,6.31-6.38,12.97-6.06,20.14,.24,5.53,2.66,11.14,7.52,14.12,5.42,3.32,11.95,2.74,17.97,1.95,15.84-2.08,31.13-.38,45.56,6.8,3.88,1.93,7.3-3.89,3.41-5.83-11.56-5.75-24.22-8.91-37.17-8.75-6.32,.08-12.51,1.6-18.82,1.67-8.3,.09-12.85-5.64-11.48-13.8,1.16-6.92,5.2-13.54,8.17-19.82,3.31-7,6.66-13.98,10-20.96,6.41-13.36,12.83-26.72,19.13-40.13,1.84-3.91-3.98-7.34-5.83-3.41h0Z"/><path class="uuid-e7b90ec9-aeb6-4f5b-8249-3845f477ea78" d="M243.65,431.45c21.94,4.1,41,17.6,52,37.04,2.14,3.78,7.97,.38,5.83-3.41-11.79-20.84-32.48-35.74-56.04-40.15-4.25-.79-6.07,5.71-1.79,6.51h0Z"/><path class="uuid-e7b90ec9-aeb6-4f5b-8249-3845f477ea78" d="M281.97,470.66c-2.98,5.06-5.76,11.91-1.2,17.03,3.6,4.05,9.84,3.37,12.67-1.11h-5.83c1.52,3.6,1.51,7.1,.44,10.78-1.22,4.18,5.29,5.96,6.51,1.79,1.63-5.57,1.12-10.68-1.12-15.99-1.05-2.48-4.62-1.91-5.83,0-1.71,.08-2.52-.52-2.43-1.8-.19-.9-.1-1.79,.27-2.66,.45-1.64,1.5-3.2,2.36-4.64,2.21-3.75-3.62-7.15-5.83-3.41h0Z"/><path class="uuid-e7b90ec9-aeb6-4f5b-8249-3845f477ea78" d="M296.6,481.53l-.17,9.6c-.04,2.31-.4,5.07,.94,7.12,2.29,3.5,6.89,2.96,9.95,.89,7.45-5.03,8.91-15.79,4.79-23.31-2.08-3.81-7.91-.41-5.83,3.41,2.23,4.08,1.81,9.28-1.22,12.87-.43,.51-1.87,2.26-2.68,1.99,1.31,.43,.79-2.46,.8-2.97l.17-9.6c.08-4.35-6.67-4.35-6.75,0h0Z"/><path class="uuid-e7b90ec9-aeb6-4f5b-8249-3845f477ea78" d="M328.2,364.82c4.52,8.46,10.54,19.71,4.87,29.07-3.45,5.7-9.17,7.99-9.72,15.17-.87,11.49,4.18,23.44,7.49,34.22,1.27,4.14,7.79,2.37,6.51-1.79-1.71-5.55-3.55-11.06-5-16.69-1.25-4.87-4.04-12.88-1.81-17.82,1.33-2.96,5.06-5.17,7.03-7.77,2.49-3.28,3.83-7.03,4.28-11.1,1.07-9.62-3.43-18.47-7.82-26.7-2.05-3.83-7.88-.43-5.83,3.41h0Z"/><path class="uuid-e7b90ec9-aeb6-4f5b-8249-3845f477ea78" d="M302.43,458.07c16.31,.55,31.83-4.96,44.35-15.36,3.34-2.78-1.45-7.53-4.77-4.77-11.14,9.26-25.14,13.87-39.58,13.39-4.34-.15-4.34,6.6,0,6.75h0Z"/><path class="uuid-e7b90ec9-aeb6-4f5b-8249-3845f477ea78" d="M317.63,266.64l2.38-1.02c.72-.31,1.35-1.3,1.55-2.02,.22-.81,.12-1.88-.34-2.6s-1.16-1.36-2.02-1.55l-.9-.12c-.61,0-1.18,.16-1.7,.46-.79,.34-1.58,.68-2.38,1.02-.72,.31-1.35,1.3-1.55,2.02-.22,.81-.12,1.88,.34,2.6s1.16,1.36,2.02,1.55l.9,.12c.61,0,1.18-.16,1.7-.46h0Z"/><path class="uuid-e7b90ec9-aeb6-4f5b-8249-3845f477ea78" d="M310.66,227.32c6.31,5.02-.93,15.28-4.5,20.03-4.16,5.54-9.42,9.98-15.41,13.42-3.77,2.16-.37,8,3.41,5.83,8.44-4.85,15.61-11.65,20.64-20.02,4.27-7.1,8.54-17.76,.64-24.04-3.37-2.68-8.17,2.07-4.77,4.77h0Z"/><path class="uuid-e7b90ec9-aeb6-4f5b-8249-3845f477ea78" d="M593.03,216.22c2.68-10.02,11.66-17.47,21.93-18.77,10.25-1.29,19.43,4.75,23.87,13.8,4.53,9.23,3.35,20.26-4.19,27.52-7.42,7.15-18.43,9.36-27.94,5.5-2.1-.85-4.25,1.28-4.27,3.25-.17,14.83-8.86,28.07-22.21,34.42-3.92,1.86-.5,7.69,3.41,5.83,15.43-7.34,25.36-23.21,25.55-40.25-1.42,1.08-2.85,2.17-4.27,3.25,12.03,4.89,26.56,1.23,35.42-8.15,8.96-9.49,10.09-23.31,4.34-34.79-5.83-11.63-17.96-18.77-30.98-16.97-12.74,1.76-23.82,11.06-27.16,23.55-1.12,4.2,5.39,5.99,6.51,1.79h0Z"/><path class="uuid-e7b90ec9-aeb6-4f5b-8249-3845f477ea78" d="M594.91,218.2c-5.27-11.21-15.82-19.17-28.06-21.11-4.25-.67-6.08,5.83-1.79,6.51,10.72,1.7,19.4,8.18,24.03,18.01,1.85,3.93,7.67,.51,5.83-3.41h0Z"/><path class="uuid-e7b90ec9-aeb6-4f5b-8249-3845f477ea78" d="M574.06,292.22c-.1,10.34,.78,20.6,2.56,30.79,.74,4.27,7.25,2.46,6.51-1.79-1.68-9.6-2.42-19.25-2.32-29,.04-4.34-6.71-4.35-6.75,0h0Z"/><path class="uuid-e7b90ec9-aeb6-4f5b-8249-3845f477ea78" d="M526.31,347.08c8.8,11.31,23.96,8.2,35.87,4.92,7.74-2.13,15.47-4.28,23.21-6.41,6.61-1.83,15.13-5.75,22.08-4.54,7.29,1.28,9.21,9.71,11.66,15.6,2.38,5.72,4.91,11.36,7.42,17.02,5.42,12.23,10.77,24.58,14.36,37.5,3.95,14.23,5.55,29.18,.33,43.3-1.51,4.08,5.01,5.84,6.51,1.79,9.52-25.73-1.39-53.69-11.62-77.43-2.62-6.09-5.36-12.12-8.01-18.2-2.53-5.79-4.42-12.18-7.64-17.63-8.16-13.84-23.63-7.59-35.96-4.18-9.27,2.56-18.52,5.23-27.82,7.68-8.81,2.32-19.3,3.94-25.62-4.19-2.66-3.43-7.41,1.38-4.77,4.77h0Z"/><path class="uuid-e7b90ec9-aeb6-4f5b-8249-3845f477ea78" d="M578.66,316.42c8.73,5.74,15.63,13.39,20.57,22.59,2.05,3.83,7.88,.42,5.83-3.41-5.48-10.21-13.31-18.65-22.99-25.02-3.64-2.39-7.03,3.45-3.41,5.83h0Z"/><path class="uuid-e7b90ec9-aeb6-4f5b-8249-3845f477ea78" d="M503.15,374.75c.98,20.95,14.3,39.39,33.72,47.17,4.03,1.62,5.78-4.91,1.79-6.51-16.49-6.61-27.93-22.97-28.76-40.67-.2-4.32-6.95-4.35-6.75,0h0Z"/><path class="uuid-e7b90ec9-aeb6-4f5b-8249-3845f477ea78" d="M253.48,477.56c-6.71,12.63-7.7,27.99-2.56,41.37,2.55,6.63,6.53,12.68,11.86,17.41,5.85,5.2,12.96,7.78,19.69,11.56,14.22,7.98,25.49,19.23,34.77,32.52,8.51,12.18,17.2,24.26,24.82,37.04,9.5,15.92,16.85,32.8,21.91,50.64,1.18,4.17,7.7,2.4,6.51-1.79-8.2-28.91-22.83-54.09-39.91-78.57-8.41-12.05-16.47-24.17-27.75-33.79-5.66-4.83-11.8-9.11-18.34-12.64-6.81-3.68-13.74-6.22-19.24-11.95-12.15-12.66-14.06-33.13-5.95-48.4,2.04-3.83-3.79-7.25-5.83-3.41h0Z"/><path class="uuid-e7b90ec9-aeb6-4f5b-8249-3845f477ea78" d="M386.16,692.91c7.05-3.78,15.52-3.23,22.24,1.08,1.99,1.27,9.03,6.64,7.63,9.76-1.21,2.67-11.42,.58-14.11,.42-5.3-.31-10.6-.62-15.9-.92-5.01-.29-11.66,.23-11.96-6.4-.39-8.63,8.44-15.93,16.36-16.89,4.26-.51,4.31-7.27,0-6.75-12.07,1.46-24.22,11.83-23.03,24.97,.55,6.1,4.77,10.16,10.7,11.2,8.69,1.52,18.03,1.21,26.82,1.72,5.46,.32,14.91,2.77,17.4-4.18,1.94-5.4-1.77-11.15-5.47-14.78-9.03-8.89-22.92-11.03-34.07-5.05-3.83,2.05-.42,7.88,3.41,5.83h0Z"/><path class="uuid-e7b90ec9-aeb6-4f5b-8249-3845f477ea78" d="M330.74,511.48c23.29,46.58,39.76,96.33,49.23,147.53,.79,4.27,7.3,2.46,6.51-1.79-9.58-51.78-26.36-102.04-49.91-149.14-1.94-3.89-7.77-.47-5.83,3.41h0Z"/><path class="uuid-e7b90ec9-aeb6-4f5b-8249-3845f477ea78" d="M368.74,682.85c10.91-7.19,22.66-12.63,35.25-16.16,4.18-1.17,2.4-7.68-1.79-6.51-13.12,3.68-25.49,9.34-36.86,16.84-3.61,2.38-.23,8.23,3.41,5.83h0Z"/><path class="uuid-e7b90ec9-aeb6-4f5b-8249-3845f477ea78" d="M325.32,254.61c3.05,10.91,6.31,21.89,13.17,31.09,1.94-1.14,3.89-2.27,5.83-3.41l-.66-.86c-2.61-3.39-8.48-.04-5.83,3.41l.66,.86c2.6,3.38,8.44,.1,5.83-3.41-6.53-8.77-9.59-19.08-12.49-29.48-1.17-4.18-7.68-2.4-6.51,1.79h0Z"/><path class="uuid-e7b90ec9-aeb6-4f5b-8249-3845f477ea78" d="M601.08,452.64c4.02-9.64,9.45-22.02,21.26-23.47,4.26-.52,4.31-7.28,0-6.75-15.44,1.89-22.36,15.45-27.77,28.42-1.67,4,4.86,5.75,6.51,1.79h0Z"/><path class="uuid-e7b90ec9-aeb6-4f5b-8249-3845f477ea78" d="M385.01,404.63c-2.17-3.44-5.63-8.19-3.9-12.41,2.69-6.55,6.47-.83,7.62,2.59,.98,2.91,4.45,3.15,6.17,.81,1.78-2.43,16.16-16.72,16.94-9.09,.61,5.95-9.34,8.19-12.35,12.09-2.77,3.58-2.36,8.34,1.37,11.08,4.53,3.33,9.86,1.24,14.26-1.15l-3.41-5.83c-4.51,2.63-9.86,7.73-6.37,13.43,2.52,4.11,8.79,4.13,10.95-.32,1.89-3.89-3.93-7.32-5.83-3.41,.84-1.73,3.06-2.94,4.65-3.87,3.76-2.19,.41-7.91-3.41-5.83-1.87,1.02-4.73,3.36-5.76,.71-.89-2.32,1.6-2.71,3.37-3.79,2.21-1.35,4.39-2.83,6.1-4.8,3.28-3.78,4.4-9.52,1.41-13.83-7.75-11.18-23.02,4.71-27.77,11.2,2.06,.27,4.11,.54,6.17,.81-2.33-6.94-8.25-14.19-16.04-8.86-8.81,6.03-4.57,16.66-.02,23.88,2.31,3.66,8.16,.28,5.83-3.41h0Z"/><path class="uuid-e7b90ec9-aeb6-4f5b-8249-3845f477ea78" d="M406.44,414.16c-13.42,12.11-30.56,19.2-48.62,20.1-4.32,.22-4.35,6.97,0,6.75,19.9-.99,38.6-8.72,53.39-22.07,3.23-2.92-1.55-7.68-4.77-4.77h0Z"/><path class="uuid-e7b90ec9-aeb6-4f5b-8249-3845f477ea78" d="M321.73,613.5c4.17,13.44-8.51,26-6,39.83,2.73,15.08,18.54,20.92,31.41,24.72,4.17,1.23,5.96-5.28,1.79-6.51-12.82-3.79-29.54-10.13-26.41-26.68,2.12-11.21,9.36-21.42,5.72-33.15-1.28-4.14-7.8-2.37-6.51,1.79h0Z"/><path class="uuid-e7b90ec9-aeb6-4f5b-8249-3845f477ea78" d="M312.59,638.31c6.4,10.05,17.58,15.96,29.53,15.18,4.31-.28,4.34-7.03,0-6.75-9.57,.62-18.52-3.7-23.7-11.84-2.33-3.65-8.17-.27-5.83,3.41h0Z"/><path class="uuid-e7b90ec9-aeb6-4f5b-8249-3845f477ea78" d="M321.85,639.32c5.7,4.09,12.91,4.39,19.17,1.47,3.93-1.84,.51-7.66-3.41-5.83-4.16,1.94-8.71,1.15-12.36-1.47-3.53-2.54-6.91,3.32-3.41,5.83h0Z"/><path class="uuid-e7b90ec9-aeb6-4f5b-8249-3845f477ea78" d="M458.2,667.8c2.4-15.18,21.34-12.33,32-9.97,4.23,.93,6.04-5.57,1.79-6.51-8.85-1.95-18.46-3.95-27.2-.47-6.56,2.61-11.97,8.02-13.1,15.16-.67,4.25,5.83,6.08,6.51,1.79h0Z"/><path class="uuid-e7b90ec9-aeb6-4f5b-8249-3845f477ea78" d="M468.62,645.57c7.52-5.31,16.34-7.65,25.49-6.18l.9-6.63-1.44,.08c-4.32,.23-4.35,6.98,0,6.75l1.44-.08c3.57-.19,4.86-5.99,.9-6.63-10.9-1.75-21.63,.45-30.7,6.86-3.52,2.49-.15,8.34,3.41,5.83h0Z"/><path class="uuid-e7b90ec9-aeb6-4f5b-8249-3845f477ea78" d="M538.82,288.11c3.62,.85,7.14,.89,10.8,.25l-3.28-5.64c-2.56,3.24-5.11,6.47-7.67,9.71-1.13,1.43-1.39,3.38,0,4.77,1.17,1.17,3.64,1.44,4.77,0,2.56-3.24,5.11-6.47,7.67-9.71,2.12-2.68,.18-6.25-3.28-5.64-2.41,.42-4.84,.3-7.21-.25-4.23-.99-6.03,5.52-1.79,6.51h0Z"/><path class="uuid-e7b90ec9-aeb6-4f5b-8249-3845f477ea78" d="M460.26,458.66c-4.12-.97-6.25-4.64-4.28-8.54,.69-1.36,.57-2.97-.53-4.09-1.57-1.6-2.5-3.47-2.67-5.72-.11-1.46,.25-5.69,2-6.33,2.89-1.05,8.69,11.92,9.93,14.06,2.18,3.75,8.02,.36,5.83-3.41-3.64-6.25-10.28-24.66-20.05-15.86-6.41,5.78-5.55,16.2,.19,22.03l-.53-4.09c-3.9,7.73-.3,16.43,8.31,18.46,4.22,.99,6.03-5.51,1.79-6.51h0Z"/><path class="uuid-e7b90ec9-aeb6-4f5b-8249-3845f477ea78" d="M451.02,444.36c-8.09-2.96-25.54-4.49-30.07,5.33-5.42,11.77,15.23,13.35,21.96,13.68,4.35,.21,4.32-6.51,0-6.75-5.26-.29-10.12,1.1-14.37,4.22-1.51,1.11-2.15,2.87-1.21,4.62,1.64,3.05,3.88,5.27,6.96,6.85,3.86,1.98,7.28-3.84,3.41-5.83-2.1-1.08-3.42-2.35-4.54-4.43-.4,1.54-.81,3.08-1.21,4.62,3.41-2.5,6.73-3.54,10.96-3.3v-6.75c-3.31-.16-6.58-.52-9.82-1.26-1.17-.26-3.55-.39-4.34-1.23-1.3-.17-1.27-.81,.09-1.91,.33-1.34,1.17-2.05,2.52-2.13,5.4-2.42,12.57-1.16,17.86,.77,4.09,1.49,5.85-5.03,1.79-6.51h0Z"/><path class="uuid-e7b90ec9-aeb6-4f5b-8249-3845f477ea78" d="M445.83,473.19h5.14c1.77,0,3.46-1.55,3.38-3.38s-1.48-3.38-3.38-3.38h-5.14c-1.77,0-3.46,1.55-3.38,3.38s1.48,3.38,3.38,3.38h0Z"/><path class="uuid-e7b90ec9-aeb6-4f5b-8249-3845f477ea78" d="M433.2,470.88c2.88,7.89,10.81,12.39,19.07,10.8,4.26-.82,2.46-7.33-1.79-6.51-4.43,.85-9.21-1.84-10.76-6.08-1.48-4.05-8-2.3-6.51,1.79h0Z"/><path class="uuid-e7b90ec9-aeb6-4f5b-8249-3845f477ea78" d="M472.6,447.62c1.88,5.85,.64,11.91-3.62,16.41-2.99,3.15,1.78,7.94,4.77,4.77,5.84-6.17,7.96-14.85,5.35-22.97-1.32-4.12-7.84-2.36-6.51,1.79h0Z"/><path class="uuid-e7b90ec9-aeb6-4f5b-8249-3845f477ea78" d="M479.04,449.99c7.42-2.79,14.5-6.25,21.21-10.48,3.67-2.31,.28-8.15-3.41-5.83-6.22,3.92-12.72,7.21-19.6,9.8-4.03,1.52-2.28,8.04,1.79,6.51h0Z"/><path class="uuid-e7b90ec9-aeb6-4f5b-8249-3845f477ea78" d="M327.23,416.15c14.35,3.46,29.13,2.88,43.12-1.85,4.09-1.38,2.34-7.91-1.79-6.51-12.88,4.35-26.31,5.04-39.53,1.85-4.22-1.02-6.02,5.49-1.79,6.51h0Z"/><path class="uuid-e7b90ec9-aeb6-4f5b-8249-3845f477ea78" d="M248.21,359.38c13.45,14.47,15.54,36.37,9.18,54.49-1.44,4.11,5.08,5.87,6.51,1.79,7.16-20.43,4.11-44.89-10.92-61.06-2.96-3.19-7.73,1.59-4.77,4.77h0Z"/><path class="uuid-e7b90ec9-aeb6-4f5b-8249-3845f477ea78" d="M262.63,355.12c12.51,7.88,26.92,15.31,42.14,11.6,12.59-3.07,21.69-14.65,19.43-27.74-.74-4.27-7.24-2.46-6.51,1.79,2.07,11.99-9.7,19.88-20.37,20.16-11.55,.3-21.83-5.68-31.29-11.64-3.69-2.32-7.08,3.52-3.41,5.83h0Z"/><path class="uuid-e7b90ec9-aeb6-4f5b-8249-3845f477ea78" d="M203.6,480.33c5.63-4.48,12-9.62,19.52-9.96s12.37,4.1,12.98,11.28c.6,7.03-1.8,14.23-3.12,21.05-1.45,7.51-2.64,15.07-3.6,22.66-4.02,31.73-3.39,63.84,1.43,95.44,.79-1.38,1.57-2.77,2.36-4.15-13.74,5.42-28.75,6.72-43.11,2.99-5.55-1.44-12.31-4.68-15.99-10.13-3.25-4.81-1.66-13.59-1.61-19.09,.25-26.5,.5-53,.68-79.5,.23-33.33,.41-66.67,.31-100-.04-12.73-.11-25.46-.35-38.19-.09-4.61-.19-9.22-.38-13.82-.14-3.34-.82-7.07-.34-10.38,2.03-13.96,22.96-18.16,34.09-20.24,9.99-1.86,20.31-2.85,30.48-2.83,4.34,0,4.35-6.74,0-6.75-9.29-.02-18.66,.88-27.84,2.31-12.97,2.02-28.92,5.34-38.08,15.59-6.9,7.72-5.21,16.9-4.92,26.33,.37,11.96,.46,23.94,.53,35.91,.38,63.3-.32,126.6-.93,189.89-.08,7.93-1.82,18.21,3.11,25,4.52,6.23,12.06,10.48,19.43,12.39,15.44,4,31.89,2.84,46.7-2.99,1.85-.73,2.66-2.17,2.36-4.15-5.74-37.61-5.14-76.19,1.99-113.57,2.28-11.94,8.48-29.49-3.72-38.3-12.47-8.99-26.79,.48-36.76,8.41-3.4,2.7,1.41,7.45,4.77,4.77h0Z"/><path class="uuid-e7b90ec9-aeb6-4f5b-8249-3845f477ea78" d="M613.68,627.41c-12.42,.74-24.87,.76-37.31,.89-4.34,.04-4.35,6.79,0,6.75,12.44-.13,24.89-.15,37.31-.89,4.32-.26,4.35-7.01,0-6.75h0Z"/><path class="uuid-e7b90ec9-aeb6-4f5b-8249-3845f477ea78" d="M204.18,499.62c-8.53,37.85-9.68,79.28,.21,117.03,1.72,6.56,4.48,13.37,10.07,17.56,5.89,4.41,13.14,4.2,20.13,3.84,6.03-.31,12.08-.4,18.12-.51,17.16-.31,34.32-.46,51.48-.62,4.34-.04,4.35-6.79,0-6.75-22.06,.19-44.15,.17-66.2,.97-2.79,.1-5.59,.34-8.38,.37-9.47,.12-14.83-4.55-17.72-13.29-5.55-16.78-6.95-35.81-7.43-53.37-.58-21.34,1.55-42.63,6.24-63.46,.95-4.23-5.55-6.04-6.51-1.79h0Z"/><path class="uuid-e7b90ec9-aeb6-4f5b-8249-3845f477ea78" d="M621.24,497c8.6,40.07,9.9,81.5,3.71,122.02-.3,1.96,.49,3.41,2.36,4.15,18.94,7.47,45.46,9.04,61.99-4.98,7.78-6.6,7.38-14.17,7.3-23.23-.25-26.59-.5-53.19-.69-79.78-.25-35.06-.45-70.13-.34-105.19,.04-13.29,.11-26.58,.4-39.87,.1-4.47,.2-8.94,.42-13.41s.73-8.49-.71-12.66c-5-14.51-23.85-19.49-37.21-22.07-10.86-2.1-22.1-3.26-33.17-3.24-4.34,0-4.35,6.76,0,6.75,8.39-.02,16.87,.7,25.16,1.94,11.93,1.78,28.41,4.45,36.45,14.53,4.97,6.24,2.6,16.1,2.4,23.55-.31,11.72-.4,23.45-.47,35.17-.34,61.09,.31,122.18,.89,183.26,.06,6.74,.62,13.69,.18,20.42-.47,7.12-9.09,12.34-14.28,14.29-14.68,5.53-32.28,3.62-46.55-2,.79,1.38,1.57,2.77,2.36,4.15,6.38-41.79,5.16-84.27-3.71-125.61-.91-4.25-7.42-2.45-6.51,1.79h0Z"/><path class="uuid-e7b90ec9-aeb6-4f5b-8249-3845f477ea78" d="M335.73,321.09c61.21-13.05,125.1-10.75,185.24,6.54,4.18,1.2,5.97-5.31,1.79-6.51-61.32-17.63-126.44-19.84-188.83-6.54-4.25,.91-2.45,7.41,1.79,6.51h0Z"/><path class="uuid-e7b90ec9-aeb6-4f5b-8249-3845f477ea78" d="M651.58,501.41c8.16,36.2,8.37,73.79,.6,110.07-.91,4.24,5.6,6.05,6.51,1.79,8.03-37.5,7.83-76.25-.6-113.66-.95-4.24-7.46-2.44-6.51,1.79h0Z"/><path class="uuid-e7b90ec9-aeb6-4f5b-8249-3845f477ea78" d="M395.37,633.71c18.88,0,37.77,0,56.65,0,4.34,0,4.35-6.75,0-6.75-18.88,0-37.77,0-56.65,0-4.34,0-4.35,6.75,0,6.75h0Z"/><path class="uuid-e7b90ec9-aeb6-4f5b-8249-3845f477ea78" d="M398.27,524.56h46.06c4.34,0,4.35-6.75,0-6.75h-46.06c-4.34,0-4.35,6.75,0,6.75h0Z"/><path class="uuid-e7b90ec9-aeb6-4f5b-8249-3845f477ea78" d="M345.48,476.92c13.41,3.27,29.44,7.5,34.32,22.17,5.41,16.29-3.72,32.53-11.51,46.29-2.14,3.79,3.69,7.19,5.83,3.41,8.94-15.78,18.69-34.55,11.67-52.98-6.19-16.25-23.06-21.63-38.51-25.4-4.22-1.03-6.02,5.48-1.79,6.51h0Z"/><path class="uuid-e7b90ec9-aeb6-4f5b-8249-3845f477ea78" d="M405.05,506.59h27.22v-6.75c-1.24,0-2.48,0-3.73,0-4.34,0-4.35,6.75,0,6.75,1.24,0,2.48,0,3.73,0,4.34,0,4.35-6.75,0-6.75h-27.22c-4.34,0-4.35,6.75,0,6.75h0Z"/><path class="uuid-e7b90ec9-aeb6-4f5b-8249-3845f477ea78" d="M478.86,226.5c6.03,1.99,12.07,3.97,18.1,5.96,4.14,1.36,5.91-5.16,1.79-6.51-6.03-1.99-12.07-3.97-18.1-5.96-4.14-1.36-5.91,5.16-1.79,6.51h0Z"/><path class="uuid-e7b90ec9-aeb6-4f5b-8249-3845f477ea78" d="M481.57,169.27c9.13,15.06,18.25,30.12,27.38,45.17,2.25,3.71,8.09,.32,5.83-3.41-9.13-15.06-18.25-30.12-27.38-45.17-2.25-3.71-8.09-.32-5.83,3.41h0Z"/><path class="uuid-e7b90ec9-aeb6-4f5b-8249-3845f477ea78" d="M354.96,209.49c4.84-5.64,9.68-11.28,14.52-16.92,2.81-3.28-1.94-8.08-4.77-4.77-4.84,5.64-9.68,11.28-14.52,16.92-2.81,3.28,1.94,8.08,4.77,4.77h0Z"/><path class="uuid-e7b90ec9-aeb6-4f5b-8249-3845f477ea78" d="M333.64,199.93c1.27-4.93,2.55-9.86,3.82-14.78,1.09-4.21-5.42-6-6.51-1.79-1.27,4.93-2.55,9.86-3.82,14.78-1.09,4.21,5.42,6,6.51,1.79h0Z"/><path class="uuid-e7b90ec9-aeb6-4f5b-8249-3845f477ea78" d="M151.22,510.34h-42.72c-3.56,0-7.12-.23-10.53,1-6.94,2.5-10.4,8.98-10.49,16.04-.03,2.36-.41,4.81,.99,6.8,1.28,1.83,3.42,3.42,4.99,4.99,.71,.71,1.42,1.74,2.27,2.27,1.43,.89-.21-.47-.18-.61-.22,.97,.37,2.7,.51,3.67,.7,5.07,1.41,10.15,2.11,15.22,1.38,9.94,2.75,19.88,4.13,29.81,.16,1.15,1.34,2.04,2.36,2.36,13.8,4.32,28.56,7.51,43.05,7.66,4.34,.05,4.35-6.7,0-6.75-13.9-.15-28.01-3.28-41.26-7.42l2.36,2.36c-1.06-7.67-2.13-15.34-3.19-23-.75-5.39-1.49-10.78-2.24-16.18-.42-3-.4-6.55-1.31-9.45-.98-3.16-4.9-5.8-7.17-8.06-.45-.45-2.38-2.77-1.12-.51,1.07,1.92,.45-.71,.45-1.94,0-3.5,.34-6.77,3.17-9.26,3.07-2.69,7.03-2.26,10.78-2.26h43.04c4.34,0,4.35-6.75,0-6.75h0Z"/><path class="uuid-e7b90ec9-aeb6-4f5b-8249-3845f477ea78" d="M132.96,512.6c-2.83-32.11,3.68-63.97,3.23-96.14-.47-33.56-7.03-67.91-28.29-94.82-10.44-13.22-23.91-23.58-39.75-29.43-1.93-.71-4.49,1.17-4.27,3.25,3.68,35.44,35.3,64.51,71.06,64.68,2.26,.01,3.75-2.16,3.25-4.27-9.88-42.23,9.95-88.81,47.15-111.06-1.69-.97-3.39-1.94-5.08-2.91-1.7,15.75-7.72,30.9-17.24,43.57-4.65,6.19-10.29,12.2-16.69,16.61-6.24,4.3-16.95,7.76-22.19-.02-4.2-6.25-1.55-15.44-1.02-22.38,.53-7.01,.21-14.03-.76-20.98-1.93-13.84-6.7-27.29-13.81-39.31-8.18-13.83-19.42-25.59-32.91-34.32-2.01-1.3-5.34,.37-5.08,2.91,3.03,29.13,10.23,71.34,45.88,76.8,6.64,1.02,13.55,.4,19.79-2.13,4.31-1.75,13.31-6.28,12.83-11.82-.3-3.39-1.86-6.91-2.34-10.33-.52-3.72-.69-7.49-.58-11.24,.2-7.32,1.58-14.54,3.93-21.47,5.36-15.85,16.11-29.62,30.52-38.17-1.69-.97-3.39-1.94-5.08-2.91-2.27,21.23-11.18,41.3-25.31,57.29-2.87,3.25,1.89,8.04,4.77,4.77,15.41-17.44,24.81-38.94,27.28-62.06,.28-2.61-3.05-4.12-5.08-2.91-29.8,17.68-44.65,55.64-34.62,88.84,.29-1.09,.58-2.19,.87-3.28-12.87,14.87-34.87,9.89-46.99-3.09-14.58-15.62-17.01-37.99-19.13-58.27-1.69,.97-3.39,1.94-5.08,2.91,27.55,17.85,44.73,49.99,44.38,82.83-.14,13.14-6.22,33.05,10.65,38.68,15.58,5.2,30.26-9.35,39.1-20.32,11.62-14.44,18.65-31.77,20.63-50.17,.28-2.61-3.05-4.12-5.08-2.91-39.85,23.82-60.83,73.49-50.26,118.68,1.08-1.42,2.17-2.85,3.25-4.27-31.81-.15-61.01-26.16-64.31-57.93l-4.27,3.25c27.93,10.32,46.92,36.42,55.52,64.1,10.33,33.24,8.58,69.56,5.18,103.78-1.54,15.48-2.21,30.47-.84,46.01,.38,4.29,7.13,4.33,6.75,0h0Z"/><path class="uuid-e7b90ec9-aeb6-4f5b-8249-3845f477ea78" d="M101.23,529.87h49.84c4.34,0,4.35-6.75,0-6.75h-49.84c-4.34,0-4.35,6.75,0,6.75h0Z"/></g></svg>