<?xml version="1.0" encoding="UTF-8"?><svg xmlns="http://www.w3.org/2000/svg" viewBox="0 0 799.99 799.99"><defs><style>.uuid-e4344993-e5f6-4f49-aa23-b1972799996c{fill:#fbae17;}.uuid-925daedc-3cc4-4ecd-b261-20f7ce91a3f4{fill:#a7a9ac;}.uuid-9eb95fef-7963-4ade-a1c8-c195ccb8c331{fill:#d1d3d4;}.uuid-a5af4eb1-cac5-4d42-93c6-a86db4d8a55b{fill:#231f20;}</style></defs><g id="uuid-45632dab-08fc-41c1-85a5-7e905db22397"><path class="uuid-e4344993-e5f6-4f49-aa23-b1972799996c" d="M190.91,308.91l-5.31,44.5s-5.95-.21-5.95-2.41,1.56-42.09,1.56-42.09c0,0-10.97-25.96,20.79-45.6,31.77-19.64,52.79,6.93,52.79,6.93,0,0,10.9,16.81,23.82,16.81s-.95,13-15.96,11.67c-15.02-1.33-43.77-8.1-43.77-8.1,0,0-20.91-5.72-26.63,0-5.72,5.72-1.33,18.29-1.33,18.29Z"/><path class="uuid-e4344993-e5f6-4f49-aa23-b1972799996c" d="M255.2,257.54s1.85,20.21,17.35,23.1c15.51,2.89,17.99,9.74,16.66,14.44-1.33,4.7-10.09,8.74-10.09,8.74l18.73,30.86,4.68,12.29s4.84,2.81,7.48,.17-5.16-56.33-22.53-80.36c-17.37-24.03-32.28-9.24-32.28-9.24Z"/><path class="uuid-9eb95fef-7963-4ade-a1c8-c195ccb8c331" d="M186.4,473.02s-3.86,1.73,2.98,6.04,56.16,33.92,56.16,33.92l61.79-35.08s1.82-1.86-1.18-4.87c-3.01-3.01,3.21-.77,10.17,14.03,6.97,14.8,60.99,40.91,60.99,40.91,0,0-11.09,12.01-11.09,21.25H82.44l10.98-13.86s38.36-5.33,82.16-49.13l10.82-13.2Z"/><path class="uuid-e4344993-e5f6-4f49-aa23-b1972799996c" d="M593.65,309.32c7.11-5.72,8.69-12.03,8.69-19.8,0,0,4.04-3.74,8.88,1.1,4.84,4.84-6.1-37.42-44.8-37.42,0,0-22.96-6.98-54.81,6.4-31.85,13.38-42,30.82-42,45.95s1.43,22.1,1.43,22.1c0,0,1.74-8.74,11.63-2.34,0,0,8.52-22.76,37.97-32.48,0,0-3.93,18.99-9.84,22.76s25.16-6.67,25.16-6.67l29.2-16.08s-16.13,17.12-22.01,19.15c0,0,10.04,3.43,26.77,4.52,8.52,.56,17.06-1.83,23.72-7.18Z"/><path class="uuid-e4344993-e5f6-4f49-aa23-b1972799996c" d="M595.4,321.27s5.31,14.74,5.31,16.81,10.19-12.68,7.6-30.96l-12.91,14.15Z"/><path class="uuid-925daedc-3cc4-4ecd-b261-20f7ce91a3f4" d="M490.87,384.57s.74,23.1,8.03,32.67c7.3,9.57,12.71,19.45,12.71,19.45l-4.37,39.77s-.03,.06-.08,.16c-.42,.94-2.2,5.97,4.44,13.09,7.39,7.92,24.76,25.96,28.1,37.98,1.54,5.56,2.68,10.8,3.45,14.84,1.22,1.48,2.13,2.59,2.64,3.21,2.22-7.58,6.65-22.43,8.61-27.08,2.67-6.34,25.74-31.63,25.74-31.63,0,0,2.51-3.15,3.38-8.17l-3.38-13.4-2.18-30.13s17.29-23.33,18.95-35.35c1.66-12.02,5.15-18.12,5.15-18.12,0,0,18.12-4.55,18.12-16.83s-3.78-21.65-6.28-22.94c-2.5-1.29-7.59-1.6-7.59-1.6l-8.59,14.3-5.9-24.91-4.93-7.2s-10.73,5.98-39.88-1.94c-29.16-7.92-38.35-4.55-38.35-4.55,0,0-12.43,4.23-17.31,9.1-1.16,1.16-1.84,1.89-2.22,2.35-2.4,.1-9.84,.91-11.08,7-1.48,7.28,3.93,23.75,3.93,23.75l-8.77-10.08s-5.57,2.18-3.58,12.6c2,10.42,5.49,15.64,5.49,15.64l15.74,8Z"/><g><path class="uuid-9eb95fef-7963-4ade-a1c8-c195ccb8c331" d="M471.8,474.98c-.83,.61-1.56,1.35-2.17,2.3l2.17-2.3Z"/><path class="uuid-9eb95fef-7963-4ade-a1c8-c195ccb8c331" d="M714.73,526.55c-6.98-6.98-22.92-11.03-22.92-11.03,0,0-45.3-10.94-55.94-18.61-10.64-7.66-12.86-9.86-12.86-9.86,0,0,0-1.6-.72-3.91-1.85,11.97-6.77,42.75-8.34,42.75-1.95,0-31.62-10.45-31.62-10.45,0,0,13.42,20.85,5.62,18.25-7.8-2.6-26.64,4.55-26.64,4.55,0,0-19.5,12.08-20.6,10.98-1.11-1.11-15.79-13.58-22.28-16.18-6.5-2.6-17.55-1.95-17.55-1.95l8.55-15.6-34.01,8.49-5.81-46.68c-.55,.86-1,1.9-1.33,3.18-1.72,6.57,.69,9.96,.69,9.96l-21.43,9.57-47.56,14.66-22.68,13.29,22.68,10.22,10.38,12.13h314.31s-2.99-16.78-9.97-23.76Z"/></g></g><g id="uuid-86503efd-3403-4d43-adf7-af705731e278"><g><g><path class="uuid-a5af4eb1-cac5-4d42-93c6-a86db4d8a55b" d="M209.03,345.34c3.95-3.07,9.13-2.56,13,.28,3.52,2.58,6.9-3.29,3.42-5.85-6.53-4.79-14.98-4.06-21.21,.78-3.44,2.67,1.39,7.43,4.79,4.79h0Z"/><path class="uuid-a5af4eb1-cac5-4d42-93c6-a86db4d8a55b" d="M215.48,360.45v6.67c0,4.36,6.77,4.36,6.77,0v-6.67c0-4.36-6.77-4.36-6.77,0h0Z"/><path class="uuid-a5af4eb1-cac5-4d42-93c6-a86db4d8a55b" d="M245.11,360.77h-6.91c-4.36,0-4.36,6.77,0,6.77h2.47c4.36,0,4.36-6.77,0-6.77h-2.47c-4.36,0-4.36,6.77,0,6.77h6.91c4.36,0,4.36-6.77,0-6.77h0Z"/><path class="uuid-a5af4eb1-cac5-4d42-93c6-a86db4d8a55b" d="M233.58,362.88c1.3,8.56-4,17.53-13.05,18.41-9.18,.89-15.57-7.05-15.85-15.64-.06-1.74-1.51-3.51-3.38-3.38-3.97,.27-7.94,.53-11.91,.8-4.32,.29-4.36,7.06,0,6.77,3.97-.27,7.94-.53,11.91-.8l-3.38-3.38c.41,12.63,10.28,23.77,23.53,22.35,13.37-1.43,20.57-14.43,18.68-26.91-.65-4.29-7.18-2.47-6.53,1.8h0Z"/><path class="uuid-a5af4eb1-cac5-4d42-93c6-a86db4d8a55b" d="M287.18,340.55c-6.23-4.84-14.67-5.57-21.21-.78-3.48,2.55-.11,8.43,3.42,5.85,3.87-2.83,9.04-3.35,13-.28,3.4,2.64,8.22-2.12,4.79-4.79h0Z"/><path class="uuid-a5af4eb1-cac5-4d42-93c6-a86db4d8a55b" d="M269.17,360.45c0,2.22,0,4.45,0,6.67,0,4.36,6.77,4.36,6.77,0,0-2.22,0-4.45,0-6.67,0-4.36-6.77-4.36-6.77,0h0Z"/><path class="uuid-a5af4eb1-cac5-4d42-93c6-a86db4d8a55b" d="M251.31,361.08c-1.89,12.48,5.31,25.48,18.68,26.91,13.25,1.42,23.11-9.72,23.53-22.35l-3.38,3.38,11.91,.8c4.35,.29,4.33-6.48,0-6.77l-11.91-.8c-1.87-.13-3.33,1.65-3.38,3.38-.28,8.58-6.67,16.53-15.85,15.64-9.05-.88-14.35-9.84-13.05-18.41,.65-4.26-5.88-6.1-6.53-1.8h0Z"/></g><path class="uuid-a5af4eb1-cac5-4d42-93c6-a86db4d8a55b" d="M252.41,398.81c-1.2,2.42-3.59,5.69-6.69,5.69s-5.49-3.27-6.69-5.69c-1.84-3.72-7.41-.45-5.57,3.25,2.24,4.51,6.89,8.88,12.26,8.88s10.02-4.37,12.26-8.88c1.84-3.71-3.72-6.98-5.57-3.25h0Z"/><g><path class="uuid-a5af4eb1-cac5-4d42-93c6-a86db4d8a55b" d="M213.67,406.25c-5.77,5.15-7.88,12.77-6.76,20.27,.61,4.09,6.82,2.35,6.22-1.71-.78-5.26,1.17-10.48,5.11-14,3.1-2.77-1.47-7.32-4.56-4.56h0Z"/><path class="uuid-a5af4eb1-cac5-4d42-93c6-a86db4d8a55b" d="M273.22,410.81c3.94,3.52,5.89,8.73,5.11,14-.6,4.06,5.61,5.81,6.22,1.71,1.11-7.5-1-15.12-6.76-20.27-3.09-2.76-7.66,1.79-4.56,4.56h0Z"/><path class="uuid-a5af4eb1-cac5-4d42-93c6-a86db4d8a55b" d="M265.76,419.39c-6.02,2.69-13.37,5.16-20.04,5.24-6.56,.08-14.14-2.61-20.04-5.24-3.76-1.68-7.04,3.88-3.25,5.57,7.04,3.14,15.45,6.12,23.29,6.12s16.25-2.97,23.29-6.12c3.78-1.69,.51-7.25-3.25-5.57h0Z"/></g><g><path class="uuid-a5af4eb1-cac5-4d42-93c6-a86db4d8a55b" d="M188.17,377.62c-1.23-6.08-6.38-11.16-12.87-10.84-5.92,.29-10.37,5.52-12.06,10.81-4.75,14.85,8.29,27.37,22.36,27.94,4.15,.17,4.14-6.28,0-6.45-8.5-.34-16.31-5.85-16.79-14.92-.19-3.58,1.2-8.45,4.65-10.23,4.24-2.19,7.69,1.42,8.5,5.4,.83,4.06,7.04,2.34,6.22-1.71h0Z"/><path class="uuid-a5af4eb1-cac5-4d42-93c6-a86db4d8a55b" d="M310.59,379.33c.82-4.03,4.3-7.54,8.5-5.4,3.43,1.74,4.83,6.73,4.65,10.23-.48,9.06-8.29,14.57-16.79,14.92-4.14,.17-4.16,6.62,0,6.45,14.07-.57,27.12-13.08,22.36-27.94-1.69-5.29-6.14-10.53-12.06-10.81-6.49-.31-11.64,4.76-12.87,10.84-.82,4.05,5.39,5.78,6.22,1.71h0Z"/><path class="uuid-a5af4eb1-cac5-4d42-93c6-a86db4d8a55b" d="M303.57,392.19c-1.52,13.89-2.41,28.37-7.19,41.61-3.99,11.05-18.39,15.75-28.58,19.08-6.12,2-12.72,4.1-19.19,4.28-6.78,.19-13.61-1.78-20.07-3.68-6.1-1.79-12.16-3.89-17.89-6.67-4.5-2.18-9.98-4.87-12.79-9.22-3.68-5.69-4.69-14.03-5.8-20.58-1.4-8.22-2.17-16.54-3.08-24.83-.45-4.08-6.9-4.13-6.45,0,1.67,15.28,2.23,32.25,8.66,46.45,4.96,10.96,19.85,15.9,30.38,19.41,6.55,2.18,13.35,4.16,20.2,5.14,7.94,1.13,15.58-.49,23.18-2.68,11.65-3.36,27.02-8.2,34.51-18.48,4.5-6.18,5.85-15.17,7.13-22.52,1.58-9.05,2.45-18.2,3.44-27.32,.45-4.12-6-4.09-6.45,0h0Z"/></g><path class="uuid-a5af4eb1-cac5-4d42-93c6-a86db4d8a55b" d="M175.23,303.81c.44-16.25,7.91-32.26,21-42.17,13.65-10.34,31.75-12.56,47.7-6.72,3.83,1.4,5.48-4.71,1.68-6.11-17.73-6.49-38.16-3.64-53.23,7.84-14.63,11.14-22.98,28.92-23.48,47.16-.11,4.08,6.22,4.07,6.33,0h0Z"/><path class="uuid-a5af4eb1-cac5-4d42-93c6-a86db4d8a55b" d="M194.98,307.65c-4.05-1.82-5.34-6.88-3.64-10.88,2.17-5.11,8.3-6.83,13.39-6.5,10.85,.7,20.73,9.02,30.56,13.09,18.91,7.82,41.41,9.3,58.4-3.78,3.18-2.45,.03-7.95-3.2-5.47-10.83,8.33-24.56,10.59-37.83,8.01-13.7-2.66-24.52-10.36-37.16-15.53-9.23-3.78-21.8-4.29-28.31,4.74-4.88,6.78-3.54,18.16,4.58,21.8,3.69,1.65,6.91-3.8,3.2-5.47h0Z"/><path class="uuid-a5af4eb1-cac5-4d42-93c6-a86db4d8a55b" d="M171.66,313.88c-2.3,13.51-2.83,27.11-1.41,40.75,.42,4.01,6.75,4.06,6.33,0-1.36-13.05-1.02-26.12,1.19-39.07,.68-3.99-5.42-5.7-6.11-1.68h0Z"/><path class="uuid-a5af4eb1-cac5-4d42-93c6-a86db4d8a55b" d="M256.38,247.16c10.91-4.68,23.11,.67,30.76,8.81,7.68,8.17,12.09,19.02,15.92,29.38,8.61,23.3,13.25,47.85,13.94,72.67,.11,4.07,6.44,4.08,6.33,0-.79-28.7-6.66-57.28-17.88-83.75-4.57-10.77-10.57-21.55-20.33-28.45s-21.25-8.71-31.93-4.13c-3.73,1.6-.51,7.06,3.2,5.47h0Z"/><path class="uuid-a5af4eb1-cac5-4d42-93c6-a86db4d8a55b" d="M275.72,306.97c11.79,12.84,20.24,28.09,24.94,44.87,1.76-1.03,3.53-2.05,5.29-3.08-.33-.33-.66-.66-.99-.99-2.89-2.88-7.37,1.6-4.48,4.48l.99,.99c2.23,2.22,6.15-.02,5.29-3.08-4.99-17.82-14.05-34.04-26.56-47.67-2.76-3.01-7.23,1.48-4.48,4.48h0Z"/></g><g><path class="uuid-a5af4eb1-cac5-4d42-93c6-a86db4d8a55b" d="M195.82,456.52c-.62,7.52-1.44,15.02-2.06,22.54-.33,4.04,5.97,4.02,6.31,0,.62-7.52,1.44-15.02,2.06-22.54,.33-4.04-5.97-4.02-6.31,0h0Z"/><path class="uuid-a5af4eb1-cac5-4d42-93c6-a86db4d8a55b" d="M184.8,470.3c-12.2,8.74,11.29,18.5,16.68,21.53,14.16,7.96,28.31,15.91,42.47,23.87-.21-1.65-.43-3.3-.64-4.95-9.19,10.64-19.08,20.59-29.66,29.84,1.65,.21,3.3,.43,4.95,.64-8.62-16.64-21.5-30.54-37.37-40.51-3.45-2.17-6.61,3.29-3.18,5.44,14.99,9.42,26.96,22.53,35.1,38.24,.99,1.91,3.51,1.9,4.95,.64,10.58-9.25,20.47-19.2,29.66-29.84,1.29-1.5,1.24-3.9-.64-4.95-9.91-5.57-19.82-11.14-29.73-16.71-4.81-2.7-9.63-5.41-14.44-8.11-2.26-1.27-4.53-2.55-6.79-3.82-.46-.26-9.19-5.15-8.19-5.87,3.27-2.34,.12-7.81-3.18-5.44h0Z"/><path class="uuid-a5af4eb1-cac5-4d42-93c6-a86db4d8a55b" d="M290.42,456.52c.62,7.52,1.44,15.02,2.06,22.54,.33,4.02,6.64,4.05,6.31,0-.62-7.52-1.44-15.02-2.06-22.54-.33-4.02-6.64-4.05-6.31,0h0Z"/><path class="uuid-a5af4eb1-cac5-4d42-93c6-a86db4d8a55b" d="M304.56,475.74c.85,.61-6.83,5.11-7.34,5.39-2.26,1.27-4.53,2.55-6.79,3.82-5.1,2.86-10.19,5.73-15.29,8.59-9.91,5.57-19.82,11.14-29.73,16.71-1.88,1.05-1.93,3.46-.64,4.95,9.19,10.64,19.08,20.59,29.66,29.84,1.45,1.26,3.96,1.27,4.95-.64,8.14-15.71,20.11-28.82,35.1-38.24,3.43-2.15,.27-7.61-3.18-5.44-15.86,9.97-28.74,23.86-37.37,40.51,1.65-.21,3.3-.43,4.95-.64-10.58-9.25-20.47-19.2-29.66-29.84-.21,1.65-.43,3.3-.64,4.95,14.16-7.96,28.31-15.91,42.47-23.87,5.38-3.03,28.88-12.79,16.68-21.53-3.3-2.37-6.46,3.1-3.18,5.44h0Z"/></g><g><path class="uuid-a5af4eb1-cac5-4d42-93c6-a86db4d8a55b" d="M175.74,483.5c-12.81,9.52-25.06,19.79-38.3,28.73-10.13,6.83-20.74,12.1-32.2,16.24-2.46,.89-4.94,1.77-7.47,2.42-1.6,.41-3.36,.38-4.86,1.08-3.18,1.47-5.52,5.2-7.51,7.91-4.72,6.43-8.87,13.33-12.81,20.27-2.01,3.53,3.44,6.71,5.44,3.18,3.7-6.52,7.61-12.98,11.96-19.09,1.34-1.88,2.8-3.61,4.28-5.37,.4-.48,.92-.97,1.47-1.28-1.07,.61-.01,.12,.54,0,5.05-1.02,9.83-2.68,14.63-4.53,25.78-9.92,46.11-27.82,68.02-44.11,3.22-2.39,.08-7.87-3.18-5.44h0Z"/><path class="uuid-a5af4eb1-cac5-4d42-93c6-a86db4d8a55b" d="M313.62,488.94c21.91,16.29,42.23,34.18,68.02,44.11,4.58,1.76,9.33,3.74,14.21,4.47,.63,.09,2.09,.68,.96,.05,.55,.31,1.07,.81,1.47,1.28,1.38,1.64,2.74,3.23,4,4.97,4.47,6.22,8.46,12.83,12.24,19.49,2,3.53,7.45,.35,5.44-3.18-3.86-6.8-7.93-13.56-12.53-19.88-2.05-2.83-4.48-6.77-7.79-8.3-1.5-.69-3.26-.67-4.86-1.08-2.54-.64-5.02-1.53-7.47-2.42-11.21-4.04-21.62-9.15-31.54-15.79-13.49-9.04-25.94-19.49-38.96-29.17-3.26-2.42-6.41,3.05-3.18,5.44h0Z"/></g><path class="uuid-a5af4eb1-cac5-4d42-93c6-a86db4d8a55b" d="M564,289.6c-17.91,10.56-37.09,18.44-57.24,23.54-4.27,1.08-2.42,7.26,1.79,6.51,23.61-4.23,45.58,10.56,69.16,8.92,16.33-1.13,33-11.82,33.97-29.44,.24-4.34-6.51-4.33-6.75,0-1.13,20.43-25.68,24.49-41.55,21.87-19.02-3.13-37-11.38-56.62-7.86,.6,2.17,1.2,4.34,1.79,6.51,20.69-5.23,40.48-13.38,58.86-24.22,3.74-2.21,.35-8.04-3.41-5.83h0Z"/><path class="uuid-a5af4eb1-cac5-4d42-93c6-a86db4d8a55b" d="M526.21,287.36c-19.6,5.46-35.02,21.7-39.26,41.63-.9,4.24,5.6,6.05,6.51,1.79,3.76-17.69,17.09-32.05,34.55-36.92,4.18-1.16,2.4-7.68-1.79-6.51h0Z"/><path class="uuid-a5af4eb1-cac5-4d42-93c6-a86db4d8a55b" d="M474.67,334.66c.25,8.47,1.77,16.67,4.67,24.65,1.88-1.09,3.76-2.19,5.64-3.28-13.75-12.67-23.21-29.92-22.41-49.02,.75-17.84,11.55-32.93,26.12-42.55,15.6-10.3,34.36-14.28,52.67-16.33,16.34-1.83,36.61-4.08,51.03,5.65,6.66,4.49,12.33,10.9,16.79,17.53,3.94,5.87,7.8,12.83,7.61,20.11-.12,4.35,6.63,4.34,6.75,0,.39-14.74-11.35-29.65-21.83-38.86-14.53-12.76-34.02-13.53-52.47-11.96-20.59,1.75-41.96,5.1-60.08,15.64-16.26,9.45-29.59,24.85-32.62,43.83-3.7,23.09,6.92,45.3,23.68,60.75,2.3,2.12,6.86,.08,5.64-3.28-2.7-7.42-4.19-14.95-4.43-22.85-.13-4.33-6.88-4.35-6.75,0h0Z"/><path class="uuid-a5af4eb1-cac5-4d42-93c6-a86db4d8a55b" d="M588.57,333.15c3,7.46,4.44,15.08,4.28,23.13-.07,3.54,4.49,4.33,6.29,1.7,8.48-12.39,16.75-25.37,19.96-40.25,.91-4.24-5.59-6.05-6.51-1.79-3.09,14.32-11.12,26.7-19.28,38.63,2.1,.57,4.19,1.14,6.29,1.7,.17-8.6-1.31-16.93-4.52-24.92-1.6-3.98-8.13-2.24-6.51,1.79h0Z"/><g><path class="uuid-a5af4eb1-cac5-4d42-93c6-a86db4d8a55b" d="M608.06,344.02c9.14-1.05,9.32,15.5,8.26,21.4-1.51,8.43-7.32,11.76-14.87,14.49-4.01,1.45-2.28,7.9,1.78,6.44,5.16-1.86,10.55-3.9,14.34-8.05,3.7-4.06,5.22-9.44,5.71-14.8,.88-9.5-2.05-27.67-15.21-26.16-4.22,.48-4.27,7.17,0,6.68h0Z"/><path class="uuid-a5af4eb1-cac5-4d42-93c6-a86db4d8a55b" d="M469.28,345.28c-4.33,6.49-3.76,18.12-1.52,25.18,2.86,9.01,10.37,12.88,18.73,15.89,4.05,1.46,5.8-4.99,1.78-6.44-6.66-2.4-12.46-5.12-14.43-12.49-1.38-5.17-1.94-14.04,1.21-18.77,2.39-3.59-3.39-6.94-5.77-3.37h0Z"/><path class="uuid-a5af4eb1-cac5-4d42-93c6-a86db4d8a55b" d="M486.53,372.78c1.61,15.38,1.51,30.67,9.26,44.55,6.6,11.81,16.16,23.85,28.29,30.24,5.56,2.93,11.61,5.01,17.86,5.8,6.4,.81,13.13-1.15,19-3.61,12.93-5.41,22.17-15.78,29.81-27.26,4.56-6.84,7.91-14.26,9.53-22.33,1.81-9.02,1.94-18.27,2.9-27.39,.45-4.27-6.23-4.24-6.68,0-.93,8.82-.98,17.81-2.84,26.51s-5.68,15.8-10.68,22.72c-8.82,12.21-21.84,24.97-38.13,24.97-16.27,0-29.32-12.76-38.13-24.97-5-6.94-8.87-14.31-10.68-22.72-1.87-8.69-1.91-17.69-2.84-26.51-.44-4.23-7.13-4.28-6.68,0h0Z"/></g><g><g><path class="uuid-a5af4eb1-cac5-4d42-93c6-a86db4d8a55b" d="M518.3,358.06v5.75h6.68c0-.22,0-.44,0-.66,0-1.8-1.54-3.34-3.34-3.34s-3.34,1.53-3.34,3.34c0,.22,0,.44,0,.66,0,1.8,1.54,3.34,3.34,3.34s3.34-1.53,3.34-3.34v-5.75c0-1.8-1.54-3.34-3.34-3.34s-3.34,1.53-3.34,3.34h0Z"/><path class="uuid-a5af4eb1-cac5-4d42-93c6-a86db4d8a55b" d="M508.61,350.92c5.33-2.27,11.37-2.13,16.61,.3,3.88,1.79,7.27-3.96,3.37-5.77-7.65-3.54-15.61-3.61-23.35-.3-3.94,1.68-.54,7.44,3.37,5.77h0Z"/></g><g><path class="uuid-a5af4eb1-cac5-4d42-93c6-a86db4d8a55b" d="M564.48,358.06c0,1.92,0,3.83,0,5.75s1.54,3.34,3.34,3.34,3.34-1.53,3.34-3.34c0-.22,0-.44,0-.66,0-1.8-1.54-3.34-3.34-3.34s-3.34,1.53-3.34,3.34c0,.22,0,.44,0,.66h6.68c0-1.92,0-3.83,0-5.75s-1.54-3.34-3.34-3.34-3.34,1.53-3.34,3.34h0Z"/><path class="uuid-a5af4eb1-cac5-4d42-93c6-a86db4d8a55b" d="M584.22,345.15c-7.74-3.3-15.7-3.24-23.35,.3-3.9,1.8-.51,7.56,3.37,5.77,5.24-2.43,11.28-2.58,16.61-.3,3.91,1.67,7.32-4.08,3.37-5.77h0Z"/></g></g><path class="uuid-a5af4eb1-cac5-4d42-93c6-a86db4d8a55b" d="M553.59,387.66c-4.12,7.16-13.57,7.19-17.71,0-2.14-3.72-7.92-.36-5.77,3.37,6.61,11.48,22.63,11.49,29.25,0,2.15-3.73-3.62-7.1-5.77-3.37h0Z"/><path class="uuid-a5af4eb1-cac5-4d42-93c6-a86db4d8a55b" d="M562.64,411.28c-12.17,3-23.65,3-35.82,0-4.17-1.03-5.95,5.41-1.78,6.44,13.29,3.28,26.08,3.28,39.37,0,4.17-1.03,2.4-7.47-1.78-6.44h0Z"/><g><path class="uuid-a5af4eb1-cac5-4d42-93c6-a86db4d8a55b" d="M508.24,445.11c-.76,10.25-2.18,20.39-4.25,30.46-.87,4.24,5.63,6.05,6.51,1.79,2.19-10.65,3.68-21.41,4.49-32.26,.32-4.33-6.43-4.31-6.75,0h0Z"/><path class="uuid-a5af4eb1-cac5-4d42-93c6-a86db4d8a55b" d="M574.6,445.11c.81,10.85,2.3,21.6,4.49,32.26,.87,4.25,7.38,2.45,6.51-1.79-2.07-10.07-3.48-20.21-4.25-30.46-.32-4.31-7.07-4.34-6.75,0h0Z"/></g><g><path class="uuid-a5af4eb1-cac5-4d42-93c6-a86db4d8a55b" d="M492.11,460.83c-3.33,5.46-10.5,6.1-15.94,8.39-5.04,2.12-10.03,5.56-11.34,11.2-1.56,6.69,1.76,15.45,3.02,22.02,1.63,8.49,3.26,16.97,4.89,25.46,.32,1.64,2.56,3.02,4.15,2.36,10.68-4.41,21.35-8.81,32.03-13.22-1.38-1.38-2.77-2.77-4.15-4.15-2.77,6.77-5.53,13.53-8.3,20.3-1,2.45,1.89,4.81,4.15,4.15,16.26-4.72,34.84,4.4,40.63,20.45,1.26,3.49,6.55,3.07,6.63-.9,.56-28.35-17.32-51.29-35.43-71.25-2.93-3.22-7.69,1.56-4.77,4.77,16.89,18.61,33.97,39.97,33.45,66.47,2.21-.3,4.42-.6,6.63-.9-7.02-19.45-28.95-30.96-48.93-25.16,1.38,1.38,2.77,2.77,4.15,4.15,2.77-6.77,5.53-13.53,8.3-20.3,.92-2.26-1.88-5.09-4.15-4.15-10.68,4.41-21.35,8.81-32.03,13.22,1.38,.79,2.77,1.57,4.15,2.36-1.45-7.54-2.9-15.09-4.35-22.63-.66-3.46-1.33-6.92-1.99-10.37-.68-3.55-2.64-8.87-1.08-12.28,2.39-5.23,9.92-6.28,14.72-8.08s8.72-4.14,11.38-8.5c2.27-3.72-3.57-7.12-5.83-3.41h0Z"/><path class="uuid-a5af4eb1-cac5-4d42-93c6-a86db4d8a55b" d="M591.75,464.24c2.65,4.36,6.7,6.73,11.38,8.5,4.8,1.81,12.33,2.85,14.72,8.08,1.51,3.31-.24,7.94-.89,11.33-.72,3.77-1.45,7.54-2.17,11.32-1.45,7.54-2.9,15.09-4.35,22.63,1.38-.79,2.77-1.57,4.15-2.36-10.68-4.41-21.35-8.81-32.03-13.22-2.27-.94-5.08,1.89-4.15,4.15,2.77,6.77,5.53,13.53,8.3,20.3,1.38-1.38,2.77-2.77,4.15-4.15-19.98-5.8-41.91,5.71-48.93,25.16,2.21,.3,4.42,.6,6.63,.9-.52-26.5,16.56-47.86,33.45-66.47,2.91-3.21-1.85-8-4.77-4.77-18.1,19.96-35.99,42.89-35.43,71.25,.08,3.94,5.36,4.41,6.63,.9,5.79-16.05,24.37-25.17,40.63-20.45,2.26,.66,5.15-1.71,4.15-4.15-2.77-6.77-5.53-13.53-8.3-20.3-1.38,1.38-2.77,2.77-4.15,4.15,10.68,4.41,21.35,8.81,32.03,13.22,1.6,.66,3.84-.73,4.15-2.36,1.57-8.17,3.14-16.35,4.71-24.52,.85-4.4,1.7-8.8,2.54-13.2,.61-3.21,1.43-6.5,.67-9.76-1.25-5.37-5.89-8.82-10.7-10.92-5.58-2.45-13.14-3.03-16.58-8.66-2.26-3.7-8.1-.32-5.83,3.41h0Z"/></g><g><path class="uuid-a5af4eb1-cac5-4d42-93c6-a86db4d8a55b" d="M464.18,484.66c-16.46,16.89-41.17,18.58-62.38,25.8-18.23,6.2-36.87,18.51-40.16,38.96-.68,4.25,5.82,6.08,6.51,1.79,3.62-22.47,26.42-32.08,45.9-37.39,19.46-5.3,40.26-9.36,54.91-24.39,3.03-3.11-1.73-7.89-4.77-4.77h0Z"/><path class="uuid-a5af4eb1-cac5-4d42-93c6-a86db4d8a55b" d="M620.63,489.43c14.65,15.03,35.44,19.09,54.91,24.39,19.49,5.31,42.29,14.92,45.9,37.39,.69,4.28,7.19,2.46,6.51-1.79-3.29-20.45-21.93-32.75-40.16-38.96-21.21-7.22-45.92-8.91-62.38-25.8-3.04-3.12-7.81,1.66-4.77,4.77h0Z"/></g></g></svg>