<?xml version="1.0" encoding="UTF-8"?><svg xmlns="http://www.w3.org/2000/svg" viewBox="0 0 799.99 799.99"><defs><style>.uuid-b4cc113f-7efe-42d3-9ab3-cde3cdd35356{fill:#fbae17;}.uuid-324b8374-8426-49dc-9b72-85ddf74d7a8a{fill:#8a8c8e;}.uuid-03ace042-15de-455a-8d42-047061e6a5e7{fill:#a7a9ac;}.uuid-61872fad-8a82-4b04-be92-1dd24e97a853{fill:#d1d3d4;}.uuid-7257aaca-abb4-46e5-ae26-236fd16e7d8a{fill:#231f20;}</style></defs><g id="uuid-5f24d832-3578-43ef-b092-bc07bca8e501"><circle class="uuid-b4cc113f-7efe-42d3-9ab3-cde3cdd35356" cx="395.95" cy="404.33" r="121.52"/><polygon class="uuid-61872fad-8a82-4b04-be92-1dd24e97a853" points="259.07 194.83 259.83 196.09 281.74 232.14 302.38 219.28 286.94 196.07 278 200.38 270.01 189.23 259.07 194.83"/><polygon class="uuid-61872fad-8a82-4b04-be92-1dd24e97a853" points="291.84 243.11 300.46 237.79 323.22 265.8 312.2 267.45 291.84 243.11"/><polygon class="uuid-61872fad-8a82-4b04-be92-1dd24e97a853" points="222.08 291.31 212.32 317.02 177.53 306.09 194.76 279.52 222.08 291.31"/><polygon class="uuid-61872fad-8a82-4b04-be92-1dd24e97a853" points="179.95 267.52 186.25 283.75 160.49 300.48 170.95 270.5 179.95 267.52"/><path class="uuid-b4cc113f-7efe-42d3-9ab3-cde3cdd35356" d="M144.8,389.85l7.09,12.66,27.29,1.58,4.43,20.85-27.02,1.77s-3.86-14.1-9.04-8.92c-5.18,5.18-5.97,12-5.97,12l-6.61-29.62,9.83-10.32Z"/><path class="uuid-b4cc113f-7efe-42d3-9ab3-cde3cdd35356" d="M222.69,504.84l43.4-32.14,7.88,9.12s9.28,7.07,3.31,13.04c-5.97,5.97-9.29,4.6-9.29,4.6l-4.11-13.24-33.13,31.05-8.06-12.43Z"/><polygon class="uuid-b4cc113f-7efe-42d3-9ab3-cde3cdd35356" points="286.7 577.2 299.05 622.95 311.4 587.61 286.7 577.2"/><polygon class="uuid-61872fad-8a82-4b04-be92-1dd24e97a853" points="357.88 639.44 366.94 630.92 387.48 629.9 387.48 609.08 417.65 605.17 422.46 637.33 442.57 633.14 424.17 660.99 394.61 661.92 357.88 639.44"/><polygon class="uuid-b4cc113f-7efe-42d3-9ab3-cde3cdd35356" points="491.93 586.27 498.43 595.27 524.29 575.52 516.1 567.81 491.93 586.27"/><polygon class="uuid-b4cc113f-7efe-42d3-9ab3-cde3cdd35356" points="505.89 601.96 529.43 584.41 537.08 595.27 508.11 610.77 505.89 601.96"/><path class="uuid-b4cc113f-7efe-42d3-9ab3-cde3cdd35356" d="M531.44,487.73s3.71,12.74-3.76,13.15c-7.47,.4-11.5-9.53-11.5-9.53l7.52-9.53,7.74,5.91Z"/><path class="uuid-b4cc113f-7efe-42d3-9ab3-cde3cdd35356" d="M540.68,474.2l-11.25-5.1c4.71-10.57,12.69-10.23,12.69-10.23,0,0,13.54,7.99-1.44,15.33Z"/><polygon class="uuid-b4cc113f-7efe-42d3-9ab3-cde3cdd35356" points="585.37 487.17 598.29 528.05 571.57 513.23 617.33 500.88 585.37 487.17"/><polygon class="uuid-61872fad-8a82-4b04-be92-1dd24e97a853" points="603.4 392.96 659.35 385.19 631.38 409.21 603.4 409.21 603.4 392.96"/><path class="uuid-b4cc113f-7efe-42d3-9ab3-cde3cdd35356" d="M528.88,332.71l-14.96-20.69s2.29-11.12,7.48-5.94c5.19,5.19,9,12.05,9,12.05l33.16-26.83-1.37-7.49,31.36-21.64s3.47,9.32,7.53,5.26c4.06-4.06,15.7-11.17,15.7-11.17,0,0-9.56,31.22-13.37,35.04-3.82,3.82-24.86,16.69-24.86,16.69l-6.97-10.61-42.69,35.32Z"/><path class="uuid-b4cc113f-7efe-42d3-9ab3-cde3cdd35356" d="M645.31,269.89s-8.48,1.38-3.5,6.35,10.7,10.28,10.7,10.28c0,0,9.17-1.86,6.84-8.31-2.33-6.45-.89-4.12-.89-4.12,0,0,14.42-.71,6.39-8.28-8.03-7.58-8.89-9.52-8.89-9.52,0,0-9.86,3.28-10.65,13.61Z"/><path class="uuid-324b8374-8426-49dc-9b72-85ddf74d7a8a" d="M678.84,402.67s-13.52-11.08-5.97-19.04,16.68-11.13,16.68-11.13c0,0,7.78-1.47,17.36,8.11s5.27,12.35,5.27,12.35c0,0,6.36,17.1-33.34,9.71Z"/><path class="uuid-03ace042-15de-455a-8d42-047061e6a5e7" d="M572.68,648.35s-3.38-15.83-15.85-15.83-19.04,2.29-19.04,11.9,9.43,22.21,9.43,22.21c0,0,2.53,6.29,11.49,6.29s21.33-11.8,13.97-24.57Z"/><path class="uuid-324b8374-8426-49dc-9b72-85ddf74d7a8a" d="M155.51,575.52s-7.27,7.04-16.57,2.33-14.57-7.2-10.86-17.57c3.71-10.37,24.42-18.81,24.42-18.81,0,0,7.51-5.54,10.1,3.78,2.59,9.32,4.58,17.2,4.58,17.2l-11.67,13.08Z"/><path class="uuid-b4cc113f-7efe-42d3-9ab3-cde3cdd35356" d="M111.58,567.81s2.9-8.27,8.17-9.98c5.27-1.71,8.33,2.45,8.33,2.45,0,0-7.23,8.7,1.82,13.13l9.05,4.44s-2.94,8.57-11.94,8.57-15.42-6.56-15.42-6.56v-12.06Z"/><path class="uuid-03ace042-15de-455a-8d42-047061e6a5e7" d="M146.42,282.24s-16.79,2.89-24.07-4.38c-7.28-7.28-7.42-.36-7.42-.36l2.88-10.41s-3.24-12.02,4.97-16.5c8.22-4.48,24.95,6.3,24.95,6.3,0,0,8.85,3.29,8.85,10.63s-10.16,14.72-10.16,14.72Z"/><path class="uuid-324b8374-8426-49dc-9b72-85ddf74d7a8a" d="M517.69,152.05s-4.12-10.52,1.17-19.61c5.3-9.09,22.73-17.78,27.41-13.1,4.68,4.68,7.63,14.5,2.24,24.22-5.39,9.71-11.88,18.75-15.66,18.66s-15.15-10.16-15.15-10.16Z"/><path class="uuid-b4cc113f-7efe-42d3-9ab3-cde3cdd35356" d="M382.52,196.71l-3.59-50.21,15.36,5.55s6.7,42.24,5.41,43.52-17.18,1.14-17.18,1.14Z"/><path class="uuid-b4cc113f-7efe-42d3-9ab3-cde3cdd35356" d="M485.73,218.83c-2.24,2.24-14.5,41.64-14.5,41.64l9.37,5.32,18.55-41.68-13.42-5.28Z"/><path class="uuid-61872fad-8a82-4b04-be92-1dd24e97a853" d="M324.59,397.03s-13.18-27.23-16.01-30.07c-2.83-2.83-6.25-6.03-6.21,5.16,.04,11.19,2.51,17.3-2.85,16.24-5.36-1.07-10.06-4.02-10.06-4.02,0,0-2.08,9.65-7.13,8.75-5.05-.89-17.45-5.92-17.45-17.13s16.8-47.02,16.8-47.02c0,0,35.57-51.28,82.06-58.46,46.49-7.18,89.55,9.5,89.55,9.5,0,0,3.02,7.93-3.09,14.04-6.1,6.1-22.83,10.46-22.83,10.46,0,0-41.6,7.83-49.4,14.84-7.8,7-11.19,17.22-11.19,19.57s1.79,5.89-4.74,13.09c-6.53,7.2-31.18,24.44-32.66,38.09-1.48,13.65-4.79,6.96-4.79,6.96Z"/><path class="uuid-61872fad-8a82-4b04-be92-1dd24e97a853" d="M450.2,352.06s12.6,6.37,14.78,16.53c2.19,10.16,0,29.5,0,31.58s-10.51,18.25-6.91,31.48c3.61,13.23,7.23,31.68,7.23,31.68,0,0,3.16,12.85,2.09,15.37-1.07,2.51-13.37,20.16-13.37,20.16,0,0-12.83,20.05-5.27,27.61,7.56,7.56,33.35-17.47,33.35-17.47,0,0,34.99-28.51,42.18-56.98,7.19-28.47,8.54-66.85,8.54-66.85,0,0-6.05-40.89-16.66-51.5-10.61-10.61-35.58-4.73-35.58-4.73,0,0-7.99-7.42-13.38,0s-17.01,23.1-17.01,23.1Z"/><path class="uuid-61872fad-8a82-4b04-be92-1dd24e97a853" d="M300.46,499.47c-.73-3.04-1.9-23.66,10.93-26.63,12.83-2.96,17.98,13.31,17.98,13.31l13.05,16.3-17.83,14.83s-21.43-6.6-24.13-17.81Z"/><path class="uuid-b4cc113f-7efe-42d3-9ab3-cde3cdd35356" d="M516.3,431.28s-5.47-10.77-15.88-4.49c-10.41,6.28-19.09,18.62-19.09,32.13s8.82,5.03,8.82,13.57-11.41,4.11-11.41,4.11l7.56,11.14s22.56-28.82,30.01-56.46Z"/></g><g id="uuid-828f9b24-cb01-40f5-9e16-1f31fccb9886"><path class="uuid-7257aaca-abb4-46e5-ae26-236fd16e7d8a" d="M377.88,122.46c-6.58-4.11-9.14-11.96-6.69-19.22,.37-1.1-.04-2.49-.87-3.28-1.65-1.58-2.21-2.92-2.53-5.12-.62-4.28-7.12-2.46-6.51,1.79,.48,3.3,1.87,5.8,4.27,8.1-.29-1.09-.58-2.19-.87-3.28-3.42,10.14,.78,21.22,9.79,26.85,3.69,2.31,7.09-3.53,3.41-5.83h0Z"/><path class="uuid-7257aaca-abb4-46e5-ae26-236fd16e7d8a" d="M378.24,93.91c1.26-3.99,5.87-5.61,9.67-4.36,4.19,1.38,6.78,5.84,7.78,9.87,1.29,5.24,.45,10.87-.65,16.07-.83,3.93-1.79,8.09-5.7,9.99-3.91,1.9-.49,7.72,3.41,5.83,6.13-2.99,8.02-9.69,9.17-15.92,1.48-8.02,2.06-16.65-2.24-23.95-6.28-10.65-23.61-13.06-27.94,.67-1.31,4.15,5.2,5.93,6.51,1.79h0Z"/><path class="uuid-7257aaca-abb4-46e5-ae26-236fd16e7d8a" d="M367.22,138.89c-6.01,13.65-13.89,31.14-30.65,33.39-4.24,.57-4.3,7.33,0,6.75,19.68-2.64,29.21-20.23,36.48-36.73,1.73-3.94-4.08-7.38-5.83-3.41h0Z"/><path class="uuid-7257aaca-abb4-46e5-ae26-236fd16e7d8a" d="M394.64,140.83c13.4,10.96,27.96,20.23,43.63,27.6,1.04,.49,2.39,.73,3.41,0,1.89-1.34,3.89-2.81,6.18-3.39,2.78-.71,6.9,.29,6.33,3.88-.99,6.18-8.9,4.16-12.46,2.05-3.75-2.21-7.15,3.62-3.41,5.83,8.15,4.81,21.94,3.94,22.71-8,.3-4.62-2.59-8.51-6.89-10.04-5.7-2.02-11.23,.54-15.86,3.83h3.41c-15.13-7.11-29.32-15.96-42.26-26.55-3.34-2.73-8.14,2.02-4.77,4.77h0Z"/><path class="uuid-7257aaca-abb4-46e5-ae26-236fd16e7d8a" d="M368.47,159.55c.66,14.02,2.31,27.94,4.93,41.72,.35,1.83,2.5,2.76,4.15,2.36,9.64-2.33,19.36-3.58,29.27-3.79,1.65-.03,3.61-1.53,3.38-3.38-1.35-10.84-1.92-21.72-1.71-32.64,.08-4.35-6.67-4.35-6.75,0-.21,10.92,.36,21.8,1.71,32.64l3.38-3.38c-10.49,.22-20.86,1.57-31.07,4.03,1.38,.79,2.77,1.57,4.15,2.36-2.5-13.2-4.05-26.51-4.69-39.93-.2-4.32-6.96-4.35-6.75,0h0Z"/><path class="uuid-7257aaca-abb4-46e5-ae26-236fd16e7d8a" d="M380.63,209.17c2.77,11.85,4.95,23.81,6.47,35.89,1.92-.8,3.84-1.59,5.76-2.39-5.59-4.87-13.98-6.46-19.69-.74-5.18,5.2-3.89,13.37,2.07,17.25,3.65,2.38,7.04-3.47,3.41-5.83-3.08-2-2.27-6.02,.64-7.66,2.97-1.67,6.43-.32,8.8,1.75,1.93,1.68,6.16,.78,5.76-2.39-1.6-12.68-3.81-25.24-6.72-37.68-.99-4.23-7.5-2.44-6.51,1.79h0Z"/><path class="uuid-7257aaca-abb4-46e5-ae26-236fd16e7d8a" d="M393.68,206.39c1.76,15.76,3.53,31.52,5.29,47.28,.48,4.27,7.23,4.32,6.75,0-1.76-15.76-3.53-31.52-5.29-47.28-.48-4.27-7.23-4.32-6.75,0h0Z"/><path class="uuid-7257aaca-abb4-46e5-ae26-236fd16e7d8a" d="M405.97,246.39c2.21-2.74,5.99-4.94,9.35-2.68,2.84,1.91,3.11,7.16-1.11,7.48s-4.34,7.09,0,6.75c8.39-.65,12.98-10.09,7.86-16.97-5.33-7.16-15.63-5.86-20.87,.64-2.7,3.35,2.04,8.16,4.77,4.77h0Z"/><path class="uuid-7257aaca-abb4-46e5-ae26-236fd16e7d8a" d="M383.88,99.84v3.05c0,1.77,1.55,3.46,3.37,3.38s3.37-1.48,3.38-3.38v-3.05c0-1.77-1.55-3.46-3.37-3.38s-3.37,1.48-3.38,3.38h0Z"/><path class="uuid-7257aaca-abb4-46e5-ae26-236fd16e7d8a" d="M384.22,118.21l1.94-1.08c.73-.41,1.33-1.22,1.55-2.02s.12-1.88-.34-2.6c-1.01-1.56-2.97-2.13-4.62-1.21l-1.94,1.08c-.73,.41-1.33,1.22-1.55,2.02s-.12,1.88,.34,2.6c1.01,1.56,2.97,2.13,4.62,1.21h0Z"/><path class="uuid-7257aaca-abb4-46e5-ae26-236fd16e7d8a" d="M390.09,83.28c-2.03-2.32-3.68-4.89-5.04-7.66-.8-1.64-3.13-2.08-4.62-1.21-1.67,.98-2.02,2.98-1.21,4.62,1.61,3.29,3.68,6.28,6.09,9.03,1.2,1.37,3.54,1.23,4.77,0,1.36-1.36,1.21-3.4,0-4.77h0Z"/><path class="uuid-7257aaca-abb4-46e5-ae26-236fd16e7d8a" d="M416.43,683.09c6.58,4.11,9.14,11.96,6.69,19.22-.37,1.1,.04,2.49,.87,3.28,1.65,1.58,2.21,2.92,2.53,5.12,.62,4.28,7.12,2.46,6.51-1.79-.48-3.3-1.87-5.8-4.27-8.1,.29,1.09,.58,2.19,.87,3.28,3.42-10.14-.78-21.22-9.79-26.85-3.69-2.31-7.09,3.53-3.41,5.83h0Z"/><path class="uuid-7257aaca-abb4-46e5-ae26-236fd16e7d8a" d="M416.06,711.64c-1.26,3.99-5.87,5.61-9.67,4.36-4.19-1.38-6.78-5.84-7.78-9.87-1.29-5.24-.45-10.87,.65-16.07,.83-3.93,1.79-8.09,5.7-9.99,3.91-1.9,.49-7.72-3.41-5.83-6.13,2.99-8.02,9.69-9.17,15.92-1.48,8.02-2.06,16.65,2.24,23.95,6.28,10.65,23.61,13.06,27.94-.67,1.31-4.15-5.2-5.93-6.51-1.79h0Z"/><path class="uuid-7257aaca-abb4-46e5-ae26-236fd16e7d8a" d="M427.09,666.67c6.01-13.65,13.89-31.14,30.65-33.39,4.24-.57,4.3-7.33,0-6.75-19.68,2.64-29.21,20.23-36.48,36.73-1.73,3.94,4.08,7.38,5.83,3.41h0Z"/><path class="uuid-7257aaca-abb4-46e5-ae26-236fd16e7d8a" d="M399.66,664.72c-13.4-10.96-27.96-20.23-43.63-27.6-1.04-.49-2.39-.73-3.41,0-1.89,1.34-3.89,2.81-6.18,3.39-2.78,.71-6.9-.29-6.33-3.88,.99-6.18,8.9-4.16,12.46-2.05,3.75,2.21,7.15-3.62,3.41-5.83-8.15-4.81-21.94-3.94-22.71,8-.3,4.62,2.59,8.51,6.89,10.04,5.7,2.02,11.23-.54,15.86-3.83h-3.41c15.13,7.11,29.32,15.96,42.26,26.55,3.34,2.73,8.14-2.02,4.77-4.77h0Z"/><path class="uuid-7257aaca-abb4-46e5-ae26-236fd16e7d8a" d="M425.83,646c-.66-14.02-2.31-27.94-4.93-41.72-.35-1.83-2.5-2.76-4.15-2.36-9.64,2.33-19.36,3.58-29.27,3.79-1.65,.03-3.61,1.53-3.38,3.38,1.35,10.84,1.92,21.72,1.71,32.64-.08,4.35,6.67,4.35,6.75,0,.21-10.92-.36-21.8-1.71-32.64l-3.38,3.38c10.49-.22,20.86-1.57,31.07-4.03-1.38-.79-2.77-1.57-4.15-2.36,2.5,13.2,4.05,26.51,4.69,39.93,.2,4.32,6.96,4.35,6.75,0h0Z"/><path class="uuid-7257aaca-abb4-46e5-ae26-236fd16e7d8a" d="M413.68,596.38c-2.77-11.85-4.95-23.81-6.47-35.89-1.92,.8-3.84,1.59-5.76,2.39,5.59,4.87,13.98,6.46,19.69,.74,5.18-5.2,3.89-13.37-2.07-17.25-3.65-2.38-7.04,3.47-3.41,5.83,3.08,2,2.27,6.02-.64,7.66s-6.43,.32-8.8-1.75c-1.93-1.68-6.16-.78-5.76,2.39,1.6,12.68,3.81,25.24,6.72,37.68,.99,4.23,7.5,2.44,6.51-1.79h0Z"/><path class="uuid-7257aaca-abb4-46e5-ae26-236fd16e7d8a" d="M400.63,599.16c-1.76-15.76-3.53-31.52-5.29-47.28-.48-4.27-7.23-4.32-6.75,0,1.76,15.76,3.53,31.52,5.29,47.28,.48,4.27,7.23,4.32,6.75,0h0Z"/><path class="uuid-7257aaca-abb4-46e5-ae26-236fd16e7d8a" d="M388.33,559.16c-2.21,2.74-5.99,4.94-9.35,2.68-2.84-1.91-3.11-7.16,1.11-7.48s4.34-7.09,0-6.75c-8.39,.65-12.98,10.09-7.86,16.97,5.33,7.16,15.63,5.86,20.87-.64,2.7-3.35-2.04-8.16-4.77-4.77h0Z"/><path class="uuid-7257aaca-abb4-46e5-ae26-236fd16e7d8a" d="M409.31,705.71c0-1.02,0-2.03,0-3.05,0-1.77-1.55-3.46-3.38-3.38s-3.37,1.48-3.38,3.38c0,1.02,0,2.03,0,3.05,0,1.77,1.55,3.46,3.38,3.38s3.37-1.48,3.38-3.38h0Z"/><path class="uuid-7257aaca-abb4-46e5-ae26-236fd16e7d8a" d="M410.09,687.34l-1.94,1.08c-.73,.41-1.33,1.22-1.55,2.02s-.12,1.88,.34,2.6c1.01,1.56,2.97,2.13,4.62,1.21l1.94-1.08c.73-.41,1.33-1.22,1.55-2.02s.12-1.88-.34-2.6c-1.01-1.56-2.97-2.13-4.62-1.21h0Z"/><path class="uuid-7257aaca-abb4-46e5-ae26-236fd16e7d8a" d="M240.28,169.65c-7.78-.29-13.87-5.81-15.4-13.35-.22-1.11-1.28-2.09-2.36-2.36-2.22-.55-3.38-1.4-4.76-3.16-2.69-3.41-7.43,1.4-4.77,4.77,2.06,2.62,4.52,4.1,7.74,4.89l-2.36-2.36c2.13,10.5,11.29,17.92,21.91,18.31,4.34,.16,4.34-6.59,0-6.75h0Z"/><path class="uuid-7257aaca-abb4-46e5-ae26-236fd16e7d8a" d="M226.33,144.7c-1.08-5.01,3.74-8.95,8.45-8.69s8.7,3.42,11.33,7.06c3.87,5.37,9.75,17.27,5.65,23.44-2.41,3.63,3.43,7.01,5.83,3.41,4.04-6.08,1.92-13.29-.43-19.61-2.49-6.7-5.86-13.34-11.93-17.46-5.54-3.76-12.99-5.04-18.93-1.39-5.21,3.21-7.75,9.1-6.48,15.03,.91,4.24,7.42,2.45,6.51-1.79h0Z"/><path class="uuid-7257aaca-abb4-46e5-ae26-236fd16e7d8a" d="M239.29,189.23c1.62,14.83,3.53,33.9-9.86,44.23-3.39,2.62-.03,8.48,3.41,5.83,15.71-12.12,15.16-32.14,13.21-50.06-.47-4.27-7.22-4.32-6.75,0h0Z"/><path class="uuid-7257aaca-abb4-46e5-ae26-236fd16e7d8a" d="M263.98,177.18c17.11,2.78,34.35,3.54,51.63,2.09,1.12-.09,2.41-.56,2.91-1.67,1.37-3,8.46-13.28,11.12-5.68,2.02,5.77-5.69,7.87-9.81,7.84-4.34-.04-4.35,6.71,0,6.75,9.47,.09,20.96-7.57,15.64-18.3-2.07-4.17-6.52-6.06-11.02-5.22-5.92,1.1-9.41,6.06-11.75,11.21,.97-.56,1.94-1.11,2.91-1.67-16.65,1.39-33.34,.83-49.83-1.85-4.25-.69-6.08,5.81-1.79,6.51h0Z"/><path class="uuid-7257aaca-abb4-46e5-ae26-236fd16e7d8a" d="M250.71,206.49c7.57,11.8,15.96,23.02,25.1,33.64,1.21,1.41,3.53,1.18,4.77,0,7.19-6.84,15-12.8,23.49-17.94,1.42-.86,2.33-3.14,1.21-4.62-6.59-8.71-12.52-17.84-17.8-27.41-2.1-3.8-7.93-.4-5.83,3.41,5.28,9.56,11.21,18.7,17.8,27.41,.4-1.54,.81-3.08,1.21-4.62-8.97,5.42-17.27,11.77-24.86,19h4.77c-8.78-10.19-16.78-20.95-24.05-32.27-2.34-3.64-8.18-.26-5.83,3.41h0Z"/><path class="uuid-7257aaca-abb4-46e5-ae26-236fd16e7d8a" d="M286.03,243.36c8.33,8.89,16.21,18.17,23.58,27.88,1.27-1.65,2.54-3.31,3.81-4.96-7.38-1.44-15.43,1.44-17.45,9.36-1.81,7.08,3.39,13.37,10.44,13.75,4.34,.23,4.33-6.52,0-6.75-3.74-.2-4.9-4.17-3.06-7.01,1.85-2.85,5.07-3.46,8.27-2.83,2.53,.5,5.76-2.39,3.81-4.96-7.71-10.17-15.9-19.93-24.63-29.24-2.98-3.18-7.74,1.6-4.77,4.77h0Z"/><path class="uuid-7257aaca-abb4-46e5-ae26-236fd16e7d8a" d="M295.96,234.45c9.41,12.77,18.81,25.53,28.22,38.3,2.55,3.46,8.41,.1,5.83-3.41-9.41-12.77-18.81-25.53-28.22-38.3-2.55-3.46-8.41-.1-5.83,3.41h0Z"/><path class="uuid-7257aaca-abb4-46e5-ae26-236fd16e7d8a" d="M326.59,262.96c.56-3.66,3.04-7.72,7.34-6.96,3.19,.57,5.42,4.82,2.19,6.98-3.59,2.4-.22,8.25,3.41,5.83,6.85-4.58,6.21-14.91-1.32-18.46-8.21-3.87-16.84,2.43-18.12,10.81-.65,4.25,5.86,6.08,6.51,1.79h0Z"/><path class="uuid-7257aaca-abb4-46e5-ae26-236fd16e7d8a" d="M235.61,146.26c.51,.88,1.02,1.76,1.53,2.64,.88,1.53,3.09,2.19,4.62,1.21s2.16-2.98,1.21-4.62c-.51-.88-1.02-1.76-1.53-2.64-.88-1.53-3.09-2.19-4.62-1.21s-2.16,2.98-1.21,4.62h0Z"/><path class="uuid-7257aaca-abb4-46e5-ae26-236fd16e7d8a" d="M243.65,162.84c.38-.63,.76-1.27,1.14-1.9,.45-.75,.57-1.77,.34-2.6-.22-.78-.82-1.63-1.55-2.02-1.63-.86-3.65-.41-4.62,1.21-.38,.63-.76,1.27-1.14,1.9-.45,.75-.57,1.77-.34,2.6,.22,.78,.82,1.63,1.55,2.02,1.63,.86,3.65,.41,4.62-1.21h0Z"/><path class="uuid-7257aaca-abb4-46e5-ae26-236fd16e7d8a" d="M554.03,635.9c7.78,.29,13.87,5.81,15.4,13.35,.22,1.11,1.28,2.09,2.36,2.36,2.22,.55,3.38,1.4,4.76,3.16,2.69,3.41,7.43-1.4,4.77-4.77-2.06-2.62-4.52-4.1-7.74-4.89l2.36,2.36c-2.13-10.5-11.29-17.92-21.91-18.31-4.34-.16-4.34,6.59,0,6.75h0Z"/><path class="uuid-7257aaca-abb4-46e5-ae26-236fd16e7d8a" d="M567.97,660.85c1.08,5.01-3.74,8.95-8.45,8.69-4.66-.25-8.7-3.42-11.33-7.06-3.87-5.37-9.75-17.27-5.65-23.44,2.41-3.63-3.43-7.01-5.83-3.41-4.04,6.08-1.92,13.29,.43,19.61,2.49,6.7,5.86,13.34,11.93,17.46,5.54,3.76,12.99,5.04,18.93,1.39,5.21-3.21,7.75-9.1,6.48-15.03-.91-4.24-7.42-2.45-6.51,1.79h0Z"/><path class="uuid-7257aaca-abb4-46e5-ae26-236fd16e7d8a" d="M555.02,616.33c-1.62-14.83-3.53-33.9,9.86-44.23,3.39-2.62,.03-8.48-3.41-5.83-15.71,12.12-15.16,32.14-13.21,50.06,.47,4.27,7.22,4.32,6.75,0h0Z"/><path class="uuid-7257aaca-abb4-46e5-ae26-236fd16e7d8a" d="M530.32,628.38c-17.11-2.78-34.35-3.54-51.63-2.09-1.12,.09-2.41,.56-2.91,1.67-1.37,3-8.46,13.28-11.12,5.68-2.02-5.77,5.69-7.87,9.81-7.84,4.34,.04,4.35-6.71,0-6.75-9.47-.09-20.96,7.57-15.64,18.3,2.07,4.17,6.52,6.06,11.02,5.22,5.92-1.1,9.41-6.06,11.75-11.21-.97,.56-1.94,1.11-2.91,1.67,16.65-1.39,33.34-.83,49.83,1.85,4.25,.69,6.08-5.81,1.79-6.51h0Z"/><path class="uuid-7257aaca-abb4-46e5-ae26-236fd16e7d8a" d="M543.59,599.06c-7.57-11.8-15.96-23.02-25.1-33.64-1.21-1.41-3.53-1.18-4.77,0-7.19,6.84-15,12.8-23.49,17.94-1.42,.86-2.33,3.14-1.21,4.62,6.59,8.71,12.52,17.84,17.8,27.41,2.1,3.8,7.93,.4,5.83-3.41-5.28-9.56-11.21-18.7-17.8-27.41-.4,1.54-.81,3.08-1.21,4.62,8.97-5.42,17.27-11.77,24.86-19h-4.77c8.78,10.19,16.78,20.95,24.05,32.27,2.34,3.64,8.18,.26,5.83-3.41h0Z"/><path class="uuid-7257aaca-abb4-46e5-ae26-236fd16e7d8a" d="M508.28,562.2c-8.33-8.89-16.21-18.17-23.58-27.88-1.27,1.65-2.54,3.31-3.81,4.96,7.38,1.44,15.43-1.44,17.45-9.36,1.81-7.08-3.39-13.37-10.44-13.75-4.34-.23-4.33,6.52,0,6.75,3.74,.2,4.9,4.17,3.06,7.01s-5.07,3.46-8.27,2.83c-2.53-.5-5.76,2.39-3.81,4.96,7.71,10.17,15.9,19.93,24.63,29.24,2.98,3.18,7.74-1.6,4.77-4.77h0Z"/><path class="uuid-7257aaca-abb4-46e5-ae26-236fd16e7d8a" d="M498.35,571.1c-9.41-12.77-18.81-25.53-28.22-38.3-2.55-3.46-8.41-.1-5.83,3.41,9.41,12.77,18.81,25.53,28.22,38.3,2.55,3.46,8.41,.1,5.83-3.41h0Z"/><path class="uuid-7257aaca-abb4-46e5-ae26-236fd16e7d8a" d="M467.71,542.6c-.56,3.66-3.04,7.72-7.34,6.96-3.19-.57-5.42-4.82-2.19-6.98,3.59-2.4,.22-8.25-3.41-5.83-6.85,4.58-6.21,14.91,1.32,18.46,8.21,3.87,16.84-2.43,18.12-10.81,.65-4.25-5.86-6.08-6.51-1.79h0Z"/><path class="uuid-7257aaca-abb4-46e5-ae26-236fd16e7d8a" d="M559.81,659.29c-.51-.88-1.02-1.76-1.53-2.64-.88-1.53-3.09-2.19-4.62-1.21s-2.16,2.98-1.21,4.62c.51,.88,1.02,1.76,1.53,2.64,.88,1.53,3.09,2.19,4.62,1.21s2.16-2.98,1.21-4.62h0Z"/><path class="uuid-7257aaca-abb4-46e5-ae26-236fd16e7d8a" d="M550.65,642.72c-.38,.63-.76,1.27-1.14,1.9-.45,.75-.57,1.77-.34,2.6,.22,.78,.82,1.63,1.55,2.02,1.63,.86,3.65,.41,4.62-1.21,.38-.63,.76-1.27,1.14-1.9,.45-.75,.57-1.77,.34-2.6-.22-.78-.82-1.63-1.55-2.02-1.63-.86-3.65-.41-4.62,1.21h0Z"/><path class="uuid-7257aaca-abb4-46e5-ae26-236fd16e7d8a" d="M144.72,279.33c-6.85,3.64-14.92,1.89-19.98-3.86-.77-.88-2.19-1.19-3.28-.87-2.17,.63-3.59,.46-5.63-.36-4.03-1.61-5.79,4.91-1.79,6.51,3.12,1.25,6.01,1.3,9.22,.36-1.09-.29-2.19-.58-3.28-.87,7.08,8.04,18.78,9.9,28.16,4.91,3.84-2.04,.43-7.87-3.41-5.83h0Z"/><path class="uuid-7257aaca-abb4-46e5-ae26-236fd16e7d8a" d="M120.2,264.7c-2.82-3.08-1.89-7.91,1.1-10.56,3.47-3.08,8.94-2.94,13.07-1.59,6.62,2.16,19.25,10.41,18.75,18.33-.27,4.34,6.48,4.32,6.75,0,.49-7.8-5.8-13.26-11.39-17.73-5.48-4.38-11.73-8.02-18.93-8.23-12.64-.38-24.1,13.66-14.12,24.56,2.94,3.21,7.7-1.57,4.77-4.77h0Z"/><path class="uuid-7257aaca-abb4-46e5-ae26-236fd16e7d8a" d="M153.67,296.79c9.25,12.63,19.84,27.76,13.24,44-1.63,4.02,4.89,5.77,6.51,1.79,7.28-17.92-3.63-35.15-13.92-49.2-2.54-3.47-8.4-.1-5.83,3.41h0Z"/><path class="uuid-7257aaca-abb4-46e5-ae26-236fd16e7d8a" d="M169.07,273.97c16.19-6.13,31.5-14.11,45.73-24,.92-.64,1.79-1.7,1.67-2.91-.3-3.17,.48-15.62,6.74-10.62,4.99,3.98-1.04,9.88-4.54,11.86-3.78,2.14-.38,7.97,3.41,5.83,8.23-4.65,14.47-17.29,4.23-23.8-4.03-2.56-9.15-1.71-12.52,1.54-4.14,3.99-4.58,9.79-4.06,15.19,.56-.97,1.11-1.94,1.67-2.91-13.73,9.54-28.47,17.39-44.11,23.32-4.02,1.52-2.28,8.05,1.79,6.51h0Z"/><path class="uuid-7257aaca-abb4-46e5-ae26-236fd16e7d8a" d="M172.16,305.99c12.46,6.43,25.33,11.97,38.57,16.59,1.74,.61,3.66-.7,4.15-2.36,2.8-9.52,6.58-18.58,11.36-27.27,.79-1.44,.51-3.89-1.21-4.62-10.06-4.25-19.77-9.19-29.12-14.83-3.73-2.25-7.13,3.58-3.41,5.83,9.35,5.64,19.06,10.59,29.12,14.83-.4-1.54-.81-3.08-1.21-4.62-5.06,9.19-9.08,18.83-12.04,28.89,1.38-.79,2.77-1.57,4.15-2.36-12.69-4.44-25.01-9.74-36.95-15.91-3.85-1.99-7.27,3.83-3.41,5.83h0Z"/><path class="uuid-7257aaca-abb4-46e5-ae26-236fd16e7d8a" d="M221.18,320.27c11.94,3.61,23.66,7.84,35.15,12.68v-6.51c-7.1,2.43-12.63,9.01-10.38,16.86,2.01,7.01,9.63,9.83,15.92,6.63,3.87-1.97,.46-7.8-3.41-5.83-3.38,1.72-6.55-1.34-6.18-4.84,.35-3.26,2.87-5.3,5.84-6.32,3.36-1.15,3.02-5.24,0-6.51-11.5-4.84-23.22-9.07-35.15-12.68-4.17-1.26-5.95,5.25-1.79,6.51h0Z"/><path class="uuid-7257aaca-abb4-46e5-ae26-236fd16e7d8a" d="M225.32,307.59c14.53,6.35,29.06,12.71,43.59,19.06,3.94,1.72,7.38-4.09,3.41-5.83-14.53-6.35-29.06-12.71-43.59-19.06-3.94-1.72-7.38,4.09-3.41,5.83h0Z"/><path class="uuid-7257aaca-abb4-46e5-ae26-236fd16e7d8a" d="M266.12,316.92c-1.42-3.6-1.07-8.58,3.35-9.79,2.92-.8,6.56,1.84,4.94,5.06-1.95,3.87,3.87,7.29,5.83,3.41,3.65-7.25-1.88-15.87-10.07-15.39-9.21,.54-13.72,10.5-10.56,18.5,1.58,3.99,8.11,2.25,6.51-1.79h0Z"/><path class="uuid-7257aaca-abb4-46e5-ae26-236fd16e7d8a" d="M128.45,262.5l2.64,1.53c1.53,.88,3.76,.41,4.62-1.21,.85-1.61,.42-3.67-1.21-4.62-.88-.51-1.76-1.02-2.64-1.53-1.53-.88-3.76-.41-4.62,1.21s-.42,3.67,1.21,4.62h0Z"/><path class="uuid-7257aaca-abb4-46e5-ae26-236fd16e7d8a" d="M144.25,271.71l.04-2.21c.03-1.77-1.57-3.46-3.38-3.38s-3.34,1.48-3.38,3.38l-.04,2.21c-.03,1.77,1.57,3.46,3.38,3.38s3.34-1.48,3.38-3.38h0Z"/><path class="uuid-7257aaca-abb4-46e5-ae26-236fd16e7d8a" d="M649.59,526.22c6.85-3.64,14.92-1.89,19.98,3.86,.77,.88,2.19,1.19,3.28,.87,2.17-.63,3.59-.46,5.63,.36,4.03,1.61,5.79-4.91,1.79-6.51-3.12-1.25-6.01-1.3-9.22-.36,1.09,.29,2.19,.58,3.28,.87-7.08-8.04-18.78-9.9-28.16-4.91-3.84,2.04-.43,7.87,3.41,5.83h0Z"/><path class="uuid-7257aaca-abb4-46e5-ae26-236fd16e7d8a" d="M674.11,540.85c2.82,3.08,1.89,7.91-1.1,10.56-3.47,3.08-8.94,2.94-13.07,1.59-6.62-2.16-19.25-10.41-18.75-18.33,.27-4.34-6.48-4.32-6.75,0-.49,7.8,5.8,13.26,11.39,17.73,5.48,4.38,11.73,8.02,18.93,8.23,12.64,.38,24.1-13.66,14.12-24.56-2.94-3.21-7.7,1.57-4.77,4.77h0Z"/><path class="uuid-7257aaca-abb4-46e5-ae26-236fd16e7d8a" d="M640.64,508.77c-9.25-12.63-19.84-27.76-13.24-44,1.63-4.02-4.89-5.77-6.51-1.79-7.28,17.92,3.63,35.15,13.92,49.2,2.54,3.47,8.4,.1,5.83-3.41h0Z"/><path class="uuid-7257aaca-abb4-46e5-ae26-236fd16e7d8a" d="M625.23,531.58c-16.19,6.13-31.5,14.11-45.73,24-.92,.64-1.79,1.7-1.67,2.91,.3,3.17-.48,15.62-6.74,10.62-4.99-3.98,1.04-9.88,4.54-11.86,3.78-2.14,.38-7.97-3.41-5.83-8.23,4.65-14.47,17.29-4.23,23.8,4.03,2.56,9.15,1.71,12.52-1.54,4.14-3.99,4.58-9.79,4.06-15.19-.56,.97-1.11,1.94-1.67,2.91,13.73-9.54,28.47-17.39,44.11-23.32,4.02-1.52,2.28-8.05-1.79-6.51h0Z"/><path class="uuid-7257aaca-abb4-46e5-ae26-236fd16e7d8a" d="M622.15,499.56c-12.46-6.43-25.33-11.97-38.57-16.59-1.74-.61-3.66,.7-4.15,2.36-2.8,9.52-6.58,18.58-11.36,27.27-.79,1.44-.51,3.89,1.21,4.62,10.06,4.25,19.77,9.19,29.12,14.83,3.73,2.25,7.13-3.58,3.41-5.83-9.35-5.64-19.06-10.59-29.12-14.83,.4,1.54,.81,3.08,1.21,4.62,5.06-9.19,9.08-18.83,12.04-28.89-1.38,.79-2.77,1.57-4.15,2.36,12.69,4.44,25.01,9.74,36.95,15.91,3.85,1.99,7.27-3.83,3.41-5.83h0Z"/><path class="uuid-7257aaca-abb4-46e5-ae26-236fd16e7d8a" d="M573.13,485.28c-11.94-3.61-23.66-7.84-35.15-12.68v6.51c7.1-2.43,12.63-9.01,10.38-16.86-2.01-7.01-9.63-9.83-15.92-6.63-3.87,1.97-.46,7.8,3.41,5.83,3.38-1.72,6.55,1.34,6.18,4.84-.35,3.26-2.87,5.3-5.84,6.32-3.36,1.15-3.02,5.24,0,6.51,11.5,4.84,23.22,9.07,35.15,12.68,4.17,1.26,5.95-5.25,1.79-6.51h0Z"/><path class="uuid-7257aaca-abb4-46e5-ae26-236fd16e7d8a" d="M568.98,497.97c-14.53-6.35-29.06-12.71-43.59-19.06-3.94-1.72-7.38,4.09-3.41,5.83,14.53,6.35,29.06,12.71,43.59,19.06,3.94,1.72,7.38-4.09,3.41-5.83h0Z"/><path class="uuid-7257aaca-abb4-46e5-ae26-236fd16e7d8a" d="M528.18,488.63c1.42,3.6,1.07,8.58-3.35,9.79-2.92,.8-6.56-1.84-4.94-5.06,1.95-3.87-3.87-7.29-5.83-3.41-3.65,7.25,1.88,15.87,10.07,15.39,9.21-.54,13.72-10.5,10.56-18.5-1.58-3.99-8.11-2.25-6.51,1.79h0Z"/><path class="uuid-7257aaca-abb4-46e5-ae26-236fd16e7d8a" d="M665.86,543.06c-.88-.51-1.76-1.02-2.64-1.53-1.53-.88-3.76-.41-4.62,1.21s-.42,3.67,1.21,4.62c.88,.51,1.76,1.02,2.64,1.53,1.53,.88,3.76,.41,4.62-1.21,.85-1.61,.42-3.67-1.21-4.62h0Z"/><path class="uuid-7257aaca-abb4-46e5-ae26-236fd16e7d8a" d="M650.06,533.84c-.01,.74-.02,1.48-.04,2.21-.03,1.77,1.57,3.46,3.38,3.38s3.34-1.48,3.38-3.38c.01-.74,.02-1.48,.04-2.21,.03-1.77-1.57-3.46-3.38-3.38s-3.34,1.48-3.38,3.38h0Z"/><path class="uuid-7257aaca-abb4-46e5-ae26-236fd16e7d8a" d="M677.4,556.4c3.02-.59,6.05-.73,9.11-.53,4.34,.28,4.32-6.47,0-6.75-3.67-.24-7.3,.06-10.91,.77-4.26,.84-2.46,7.34,1.79,6.51h0Z"/><path class="uuid-7257aaca-abb4-46e5-ae26-236fd16e7d8a" d="M116.84,422.05c-4.11,6.58-11.96,9.14-19.22,6.69-1.1-.37-2.49,.04-3.28,.87-1.58,1.65-2.92,2.21-5.12,2.53-4.28,.62-2.46,7.12,1.79,6.51,3.3-.48,5.8-1.87,8.1-4.27-1.09,.29-2.19,.58-3.28,.87,10.14,3.42,21.22-.78,26.85-9.79,2.31-3.69-3.53-7.09-5.83-3.41h0Z"/><path class="uuid-7257aaca-abb4-46e5-ae26-236fd16e7d8a" d="M88.29,421.69c-3.99-1.26-5.61-5.87-4.36-9.67,1.38-4.19,5.84-6.78,9.87-7.78,5.24-1.29,10.87-.45,16.07,.65,3.93,.83,8.09,1.79,9.99,5.7s7.72,.49,5.83-3.41c-2.99-6.13-9.69-8.02-15.92-9.17-8.02-1.48-16.65-2.06-23.95,2.24-10.65,6.28-13.06,23.61,.67,27.94,4.15,1.31,5.93-5.2,1.79-6.51h0Z"/><path class="uuid-7257aaca-abb4-46e5-ae26-236fd16e7d8a" d="M133.26,432.71c13.65,6.01,31.14,13.89,33.39,30.65,.57,4.24,7.33,4.3,6.75,0-2.64-19.68-20.23-29.21-36.73-36.48-3.94-1.73-7.38,4.08-3.41,5.83h0Z"/><path class="uuid-7257aaca-abb4-46e5-ae26-236fd16e7d8a" d="M135.21,405.29c10.96-13.4,20.23-27.96,27.6-43.63,.49-1.04,.73-2.39,0-3.41-1.34-1.89-2.81-3.89-3.39-6.18-.71-2.78,.29-6.9,3.88-6.33,6.18,.99,4.16,8.9,2.05,12.46-2.21,3.75,3.62,7.15,5.83,3.41,4.81-8.15,3.94-21.94-8-22.71-4.62-.3-8.51,2.59-10.04,6.89-2.02,5.7,.54,11.23,3.83,15.86v-3.41c-7.11,15.13-15.96,29.32-26.55,42.26-2.73,3.34,2.02,8.14,4.77,4.77h0Z"/><path class="uuid-7257aaca-abb4-46e5-ae26-236fd16e7d8a" d="M153.93,431.46c14.02-.66,27.94-2.31,41.72-4.93,1.83-.35,2.76-2.5,2.36-4.15-2.33-9.64-3.58-19.36-3.79-29.27-.03-1.65-1.53-3.61-3.38-3.38-10.84,1.35-21.72,1.92-32.64,1.71-4.35-.08-4.35,6.67,0,6.75,10.92,.21,21.8-.36,32.64-1.71l-3.38-3.38c.22,10.49,1.57,20.86,4.03,31.07,.79-1.38,1.57-2.77,2.36-4.15-13.2,2.5-26.51,4.05-39.93,4.69-4.32,.2-4.35,6.96,0,6.75h0Z"/><path class="uuid-7257aaca-abb4-46e5-ae26-236fd16e7d8a" d="M203.55,419.3c11.85-2.77,23.81-4.95,35.89-6.47-.8-1.92-1.59-3.84-2.39-5.76-4.87,5.59-6.46,13.98-.74,19.69,5.2,5.18,13.37,3.89,17.25-2.07,2.38-3.65-3.47-7.04-5.83-3.41-2,3.08-6.02,2.27-7.66-.64-1.67-2.97-.32-6.43,1.75-8.8,1.68-1.93,.78-6.16-2.39-5.76-12.68,1.6-25.24,3.81-37.68,6.72-4.23,.99-2.44,7.5,1.79,6.51h0Z"/><path class="uuid-7257aaca-abb4-46e5-ae26-236fd16e7d8a" d="M200.77,406.25c15.76-1.76,31.52-3.53,47.28-5.29,4.27-.48,4.32-7.23,0-6.75-15.76,1.76-31.52,3.53-47.28,5.29-4.27,.48-4.32,7.23,0,6.75h0Z"/><path class="uuid-7257aaca-abb4-46e5-ae26-236fd16e7d8a" d="M240.77,393.96c-2.74-2.21-4.94-5.99-2.68-9.35,1.91-2.84,7.16-3.11,7.48,1.11,.33,4.3,7.09,4.34,6.75,0-.65-8.39-10.09-12.98-16.97-7.86-7.16,5.33-5.86,15.63,.64,20.87,3.35,2.7,8.16-2.04,4.77-4.77h0Z"/><path class="uuid-7257aaca-abb4-46e5-ae26-236fd16e7d8a" d="M94.22,416.05c1.02,0,2.03,0,3.05,0,1.77,0,3.46-1.55,3.38-3.38s-1.48-3.37-3.38-3.38c-1.02,0-2.03,0-3.05,0-1.77,0-3.46,1.55-3.38,3.38s1.48,3.37,3.38,3.38h0Z"/><path class="uuid-7257aaca-abb4-46e5-ae26-236fd16e7d8a" d="M112.59,415.71l-1.08-1.94c-.41-.73-1.22-1.33-2.02-1.55s-1.88-.12-2.6,.34c-1.56,1.01-2.13,2.97-1.21,4.62l1.08,1.94c.41,.73,1.22,1.33,2.02,1.55s1.88,.12,2.6-.34c1.56-1.01,2.13-2.97,1.21-4.62h0Z"/><path class="uuid-7257aaca-abb4-46e5-ae26-236fd16e7d8a" d="M77.66,409.84c-2.32,2.03-4.89,3.68-7.66,5.04-1.64,.8-2.08,3.13-1.21,4.62,.98,1.67,2.98,2.02,4.62,1.21,3.29-1.61,6.28-3.68,9.03-6.09,1.37-1.2,1.23-3.54,0-4.77-1.36-1.36-3.4-1.21-4.77,0h0Z"/><path class="uuid-7257aaca-abb4-46e5-ae26-236fd16e7d8a" d="M677.47,383.5c4.11-6.58,11.96-9.14,19.22-6.69,1.1,.37,2.49-.04,3.28-.87,1.58-1.65,2.92-2.21,5.12-2.53,4.28-.62,2.46-7.12-1.79-6.51-3.3,.48-5.8,1.87-8.1,4.27,1.09-.29,2.19-.58,3.28-.87-10.14-3.42-21.22,.78-26.85,9.79-2.31,3.69,3.53,7.09,5.83,3.41h0Z"/><path class="uuid-7257aaca-abb4-46e5-ae26-236fd16e7d8a" d="M706.02,383.87c3.99,1.26,5.61,5.87,4.36,9.67-1.38,4.19-5.84,6.78-9.87,7.78-5.24,1.29-10.87,.45-16.07-.65-3.93-.83-8.09-1.79-9.99-5.7-1.9-3.91-7.72-.49-5.83,3.41,2.99,6.13,9.69,8.02,15.92,9.17,8.02,1.48,16.65,2.06,23.95-2.24,10.65-6.28,13.06-23.61-.67-27.94-4.15-1.31-5.93,5.2-1.79,6.51h0Z"/><path class="uuid-7257aaca-abb4-46e5-ae26-236fd16e7d8a" d="M661.04,372.84c-13.65-6.01-31.14-13.89-33.39-30.65-.57-4.24-7.33-4.3-6.75,0,2.64,19.68,20.23,29.21,36.73,36.48,3.94,1.73,7.38-4.08,3.41-5.83h0Z"/><path class="uuid-7257aaca-abb4-46e5-ae26-236fd16e7d8a" d="M659.1,400.27c-10.96,13.4-20.23,27.96-27.6,43.63-.49,1.04-.73,2.39,0,3.41,1.34,1.89,2.81,3.89,3.39,6.18,.71,2.78-.29,6.9-3.88,6.33-6.18-.99-4.16-8.9-2.05-12.46,2.21-3.75-3.62-7.15-5.83-3.41-4.81,8.15-3.94,21.94,8,22.71,4.62,.3,8.51-2.59,10.04-6.89,2.02-5.7-.54-11.23-3.83-15.86v3.41c7.11-15.13,15.96-29.32,26.55-42.26,2.73-3.34-2.02-8.14-4.77-4.77h0Z"/><path class="uuid-7257aaca-abb4-46e5-ae26-236fd16e7d8a" d="M640.38,374.1c-14.02,.66-27.94,2.31-41.72,4.93-1.83,.35-2.76,2.5-2.36,4.15,2.33,9.64,3.58,19.36,3.79,29.27,.03,1.65,1.53,3.61,3.38,3.38,10.84-1.35,21.72-1.92,32.64-1.71,4.35,.08,4.35-6.67,0-6.75-10.92-.21-21.8,.36-32.64,1.71l3.38,3.38c-.22-10.49-1.57-20.86-4.03-31.07-.79,1.38-1.57,2.77-2.36,4.15,13.2-2.5,26.51-4.05,39.93-4.69,4.32-.2,4.35-6.96,0-6.75h0Z"/><path class="uuid-7257aaca-abb4-46e5-ae26-236fd16e7d8a" d="M590.76,386.25c-11.85,2.77-23.81,4.95-35.89,6.47,.8,1.92,1.59,3.84,2.39,5.76,4.87-5.59,6.46-13.98,.74-19.69-5.2-5.18-13.37-3.89-17.25,2.07-2.38,3.65,3.47,7.04,5.83,3.41,2-3.08,6.02-2.27,7.66,.64,1.67,2.97,.32,6.43-1.75,8.8-1.68,1.93-.78,6.16,2.39,5.76,12.68-1.6,25.24-3.81,37.68-6.72,4.23-.99,2.44-7.5-1.79-6.51h0Z"/><path class="uuid-7257aaca-abb4-46e5-ae26-236fd16e7d8a" d="M593.54,399.3c-15.76,1.76-31.52,3.53-47.28,5.29-4.27,.48-4.32,7.23,0,6.75,15.76-1.76,31.52-3.53,47.28-5.29,4.27-.48,4.32-7.23,0-6.75h0Z"/><path class="uuid-7257aaca-abb4-46e5-ae26-236fd16e7d8a" d="M553.54,411.6c2.74,2.21,4.94,5.99,2.68,9.35-1.91,2.84-7.16,3.11-7.48-1.11-.33-4.3-7.09-4.34-6.75,0,.65,8.39,10.09,12.98,16.97,7.86,7.16-5.33,5.86-15.63-.64-20.87-3.35-2.7-8.16,2.04-4.77,4.77h0Z"/><path class="uuid-7257aaca-abb4-46e5-ae26-236fd16e7d8a" d="M701.2,389.5c-1.02,0-2.03,0-3.05,0-1.77,0-3.46,1.55-3.38,3.38s1.48,3.37,3.38,3.38c1.02,0,2.03,0,3.05,0,1.77,0,3.46-1.55,3.38-3.38s-1.48-3.37-3.38-3.38h0Z"/><path class="uuid-7257aaca-abb4-46e5-ae26-236fd16e7d8a" d="M681.72,389.84l1.08,1.94c.41,.73,1.22,1.33,2.02,1.55s1.88,.12,2.6-.34c1.56-1.01,2.13-2.97,1.21-4.62-.36-.65-.72-1.29-1.08-1.94-.41-.73-1.22-1.33-2.02-1.55s-1.88-.12-2.6,.34c-1.56,1.01-2.13,2.97-1.21,4.62h0Z"/><path class="uuid-7257aaca-abb4-46e5-ae26-236fd16e7d8a" d="M164.03,559.65c-.29,7.78-5.81,13.87-13.35,15.4-1.11,.22-2.09,1.28-2.36,2.36-.55,2.22-1.4,3.38-3.16,4.76-3.41,2.69,1.4,7.43,4.77,4.77,2.62-2.06,4.1-4.52,4.89-7.74l-2.36,2.36c10.5-2.13,17.92-11.29,18.31-21.91,.16-4.34-6.59-4.34-6.75,0h0Z"/><path class="uuid-7257aaca-abb4-46e5-ae26-236fd16e7d8a" d="M139.08,573.6c-5.01,1.08-8.95-3.74-8.69-8.45,.25-4.66,3.42-8.7,7.06-11.33,5.37-3.87,17.27-9.75,23.44-5.65,3.63,2.41,7.01-3.43,3.41-5.83-6.08-4.04-13.29-1.92-19.61,.43-6.7,2.49-13.34,5.86-17.46,11.93-3.76,5.54-5.04,12.99-1.39,18.93,3.21,5.21,9.1,7.75,15.03,6.48,4.24-.91,2.45-7.42-1.79-6.51h0Z"/><path class="uuid-7257aaca-abb4-46e5-ae26-236fd16e7d8a" d="M183.6,560.64c14.83-1.62,33.9-3.53,44.23,9.86,2.62,3.39,8.48,.03,5.83-3.41-12.12-15.71-32.14-15.16-50.06-13.21-4.27,.47-4.32,7.22,0,6.75h0Z"/><path class="uuid-7257aaca-abb4-46e5-ae26-236fd16e7d8a" d="M171.55,535.95c2.78-17.11,3.54-34.35,2.09-51.63-.09-1.12-.56-2.41-1.67-2.91-3-1.37-13.28-8.46-5.68-11.12,5.77-2.02,7.87,5.69,7.84,9.81-.04,4.34,6.71,4.35,6.75,0,.09-9.47-7.57-20.96-18.3-15.64-4.17,2.07-6.06,6.52-5.22,11.02,1.1,5.92,6.06,9.41,11.21,11.75-.56-.97-1.11-1.94-1.67-2.91,1.39,16.65,.83,33.34-1.85,49.83-.69,4.25,5.81,6.08,6.51,1.79h0Z"/><path class="uuid-7257aaca-abb4-46e5-ae26-236fd16e7d8a" d="M200.87,549.22c11.8-7.57,23.02-15.96,33.64-25.1,1.41-1.21,1.18-3.53,0-4.77-6.84-7.19-12.8-15-17.94-23.49-.86-1.42-3.14-2.33-4.62-1.21-8.71,6.59-17.84,12.52-27.41,17.8-3.8,2.1-.4,7.93,3.41,5.83,9.56-5.28,18.7-11.21,27.41-17.8-1.54-.4-3.08-.81-4.62-1.21,5.42,8.97,11.77,17.27,19,24.86v-4.77c-10.19,8.78-20.95,16.78-32.27,24.05-3.64,2.34-.26,8.18,3.41,5.83h0Z"/><path class="uuid-7257aaca-abb4-46e5-ae26-236fd16e7d8a" d="M237.73,513.9c8.89-8.33,18.17-16.21,27.88-23.58-1.65-1.27-3.31-2.54-4.96-3.81-1.44,7.38,1.44,15.43,9.36,17.45,7.08,1.81,13.37-3.39,13.75-10.44,.23-4.34-6.52-4.33-6.75,0-.2,3.74-4.17,4.9-7.01,3.06-2.85-1.85-3.46-5.07-2.83-8.27,.5-2.53-2.39-5.76-4.96-3.81-10.17,7.71-19.93,15.9-29.24,24.63-3.18,2.98,1.6,7.74,4.77,4.77h0Z"/><path class="uuid-7257aaca-abb4-46e5-ae26-236fd16e7d8a" d="M228.83,503.97c12.77-9.41,25.53-18.81,38.3-28.22,3.46-2.55,.1-8.41-3.41-5.83-12.77,9.41-25.53,18.81-38.3,28.22-3.46,2.55-.1,8.41,3.41,5.83h0Z"/><path class="uuid-7257aaca-abb4-46e5-ae26-236fd16e7d8a" d="M257.33,473.34c-3.66-.56-7.72-3.04-6.96-7.34,.57-3.19,4.82-5.42,6.98-2.19,2.4,3.59,8.25,.22,5.83-3.41-4.58-6.85-14.91-6.21-18.46,1.32-3.87,8.21,2.43,16.84,10.81,18.12,4.25,.65,6.08-5.86,1.79-6.51h0Z"/><path class="uuid-7257aaca-abb4-46e5-ae26-236fd16e7d8a" d="M140.64,566.55c.88-.51,1.76-1.02,2.64-1.53,1.53-.88,2.19-3.09,1.21-4.62s-2.98-2.16-4.62-1.21c-.88,.51-1.76,1.02-2.64,1.53-1.53,.88-2.19,3.09-1.21,4.62s2.98,2.16,4.62,1.21h0Z"/><path class="uuid-7257aaca-abb4-46e5-ae26-236fd16e7d8a" d="M157.21,556.28l-1.9-1.14c-.75-.45-1.77-.57-2.6-.34-.78,.22-1.63,.82-2.02,1.55-.86,1.63-.41,3.65,1.21,4.62l1.9,1.14c.75,.45,1.77,.57,2.6,.34,.78-.22,1.63-.82,2.02-1.55,.86-1.63,.41-3.65-1.21-4.62h0Z"/><path class="uuid-7257aaca-abb4-46e5-ae26-236fd16e7d8a" d="M630.28,245.9c.29-7.78,5.81-13.87,13.35-15.4,1.11-.22,2.09-1.28,2.36-2.36,.55-2.22,1.4-3.38,3.16-4.76,3.41-2.69-1.4-7.43-4.77-4.77-2.62,2.06-4.1,4.52-4.89,7.74l2.36-2.36c-10.5,2.13-17.92,11.29-18.31,21.91-.16,4.34,6.59,4.34,6.75,0h0Z"/><path class="uuid-7257aaca-abb4-46e5-ae26-236fd16e7d8a" d="M655.23,231.96c5.01-1.08,8.95,3.74,8.69,8.45-.25,4.66-3.42,8.7-7.06,11.33-5.37,3.87-17.27,9.75-23.44,5.65-3.63-2.41-7.01,3.43-3.41,5.83,6.08,4.04,13.29,1.92,19.61-.43,6.7-2.49,13.34-5.86,17.46-11.93,3.76-5.54,5.04-12.99,1.39-18.93-3.21-5.21-9.1-7.75-15.03-6.48-4.24,.91-2.45,7.42,1.79,6.51h0Z"/><path class="uuid-7257aaca-abb4-46e5-ae26-236fd16e7d8a" d="M610.7,244.91c-14.83,1.62-33.9,3.53-44.23-9.86-2.62-3.39-8.48-.03-5.83,3.41,12.12,15.71,32.14,15.16,50.06,13.21,4.27-.47,4.32-7.22,0-6.75h0Z"/><path class="uuid-7257aaca-abb4-46e5-ae26-236fd16e7d8a" d="M622.75,269.61c-2.78,17.11-3.54,34.35-2.09,51.63,.09,1.12,.56,2.41,1.67,2.91,3,1.37,13.28,8.46,5.68,11.12-5.77,2.02-7.87-5.69-7.84-9.81,.04-4.34-6.71-4.35-6.75,0-.09,9.47,7.57,20.96,18.3,15.64,4.17-2.07,6.06-6.52,5.22-11.02-1.1-5.92-6.06-9.41-11.21-11.75,.56,.97,1.11,1.94,1.67,2.91-1.39-16.65-.83-33.34,1.85-49.83,.69-4.25-5.81-6.08-6.51-1.79h0Z"/><path class="uuid-7257aaca-abb4-46e5-ae26-236fd16e7d8a" d="M593.44,256.34c-11.8,7.57-23.02,15.96-33.64,25.1-1.41,1.21-1.18,3.53,0,4.77,6.84,7.19,12.8,15,17.94,23.49,.86,1.42,3.14,2.33,4.62,1.21,8.71-6.59,17.84-12.52,27.41-17.8,3.8-2.1,.4-7.93-3.41-5.83-9.56,5.28-18.7,11.21-27.41,17.8,1.54,.4,3.08,.81,4.62,1.21-5.42-8.97-11.77-17.27-19-24.86v4.77c10.19-8.78,20.95-16.78,32.27-24.05,3.64-2.34,.26-8.18-3.41-5.83h0Z"/><path class="uuid-7257aaca-abb4-46e5-ae26-236fd16e7d8a" d="M556.57,291.65c-8.89,8.33-18.17,16.21-27.88,23.58,1.65,1.27,3.31,2.54,4.96,3.81,1.44-7.38-1.44-15.43-9.36-17.45-7.08-1.81-13.37,3.39-13.75,10.44-.23,4.34,6.52,4.33,6.75,0,.2-3.74,4.17-4.9,7.01-3.06s3.46,5.07,2.83,8.27c-.5,2.53,2.39,5.76,4.96,3.81,10.17-7.71,19.93-15.9,29.24-24.63,3.18-2.98-1.6-7.74-4.77-4.77h0Z"/><path class="uuid-7257aaca-abb4-46e5-ae26-236fd16e7d8a" d="M565.48,301.58c-12.77,9.41-25.53,18.81-38.3,28.22-3.46,2.55-.1,8.41,3.41,5.83,12.77-9.41,25.53-18.81,38.3-28.22,3.46-2.55,.1-8.41-3.41-5.83h0Z"/><path class="uuid-7257aaca-abb4-46e5-ae26-236fd16e7d8a" d="M536.97,332.21c3.66,.56,7.72,3.04,6.96,7.34-.57,3.19-4.82,5.42-6.98,2.19-2.4-3.59-8.25-.22-5.83,3.41,4.58,6.85,14.91,6.21,18.46-1.32,3.87-8.21-2.43-16.84-10.81-18.12-4.25-.65-6.08,5.86-1.79,6.51h0Z"/><path class="uuid-7257aaca-abb4-46e5-ae26-236fd16e7d8a" d="M653.67,239.01c-.88,.51-1.76,1.02-2.64,1.53-1.53,.88-2.19,3.09-1.21,4.62,.99,1.54,2.98,2.16,4.62,1.21,.88-.51,1.76-1.02,2.64-1.53,1.53-.88,2.19-3.09,1.21-4.62-.99-1.54-2.98-2.16-4.62-1.21h0Z"/><path class="uuid-7257aaca-abb4-46e5-ae26-236fd16e7d8a" d="M637.09,249.28c.63,.38,1.27,.76,1.9,1.14,.75,.45,1.77,.57,2.6,.34,.78-.22,1.63-.82,2.02-1.55,.86-1.63,.41-3.65-1.21-4.62-.63-.38-1.27-.76-1.9-1.14-.75-.45-1.77-.57-2.6-.34-.78,.22-1.63,.82-2.02,1.55-.86,1.63-.41,3.65,1.21,4.62h0Z"/><path class="uuid-7257aaca-abb4-46e5-ae26-236fd16e7d8a" d="M273.71,655.21c3.64,6.85,1.89,14.92-3.86,19.98-.88,.77-1.19,2.19-.87,3.28,.63,2.17,.46,3.59-.36,5.63-1.61,4.03,4.91,5.79,6.51,1.79,1.25-3.12,1.3-6.01,.36-9.22-.29,1.09-.58,2.19-.87,3.28,8.04-7.08,9.9-18.78,4.91-28.16-2.04-3.84-7.87-.43-5.83,3.41h0Z"/><path class="uuid-7257aaca-abb4-46e5-ae26-236fd16e7d8a" d="M259.08,679.73c-3.08,2.82-7.91,1.89-10.56-1.1-3.08-3.47-2.94-8.94-1.59-13.07,2.16-6.62,10.41-19.25,18.33-18.75,4.34,.27,4.32-6.48,0-6.75-7.8-.49-13.26,5.8-17.73,11.39s-8.02,11.73-8.23,18.93c-.38,12.64,13.66,24.1,24.56,14.12,3.21-2.94-1.57-7.7-4.77-4.77h0Z"/><path class="uuid-7257aaca-abb4-46e5-ae26-236fd16e7d8a" d="M291.16,646.26c12.63-9.25,27.76-19.84,44-13.24,4.02,1.63,5.77-4.89,1.79-6.51-17.92-7.28-35.15,3.63-49.2,13.92-3.47,2.54-.1,8.4,3.41,5.83h0Z"/><path class="uuid-7257aaca-abb4-46e5-ae26-236fd16e7d8a" d="M268.35,630.86c-6.13-16.19-14.11-31.5-24-45.73-.64-.92-1.7-1.79-2.91-1.67-3.17,.3-15.62-.48-10.62-6.74,3.98-4.99,9.88,1.04,11.86,4.54,2.14,3.78,7.97,.38,5.83-3.41-4.65-8.23-17.29-14.47-23.8-4.23-2.56,4.03-1.71,9.15,1.54,12.52,3.99,4.14,9.79,4.58,15.19,4.06-.97-.56-1.94-1.11-2.91-1.67,9.54,13.73,17.39,28.47,23.32,44.11,1.52,4.02,8.05,2.28,6.51-1.79h0Z"/><path class="uuid-7257aaca-abb4-46e5-ae26-236fd16e7d8a" d="M300.37,627.77c6.43-12.46,11.97-25.33,16.59-38.57,.61-1.74-.7-3.66-2.36-4.15-9.52-2.8-18.58-6.58-27.27-11.36-1.44-.79-3.89-.51-4.62,1.21-4.25,10.06-9.19,19.77-14.83,29.12-2.25,3.73,3.58,7.13,5.83,3.41,5.64-9.35,10.59-19.06,14.83-29.12-1.54,.4-3.08,.81-4.62,1.21,9.19,5.06,18.83,9.08,28.89,12.04-.79-1.38-1.57-2.77-2.36-4.15-4.44,12.69-9.74,25.01-15.91,36.95-1.99,3.85,3.83,7.27,5.83,3.41h0Z"/><path class="uuid-7257aaca-abb4-46e5-ae26-236fd16e7d8a" d="M314.65,578.75c3.61-11.94,7.84-23.66,12.68-35.15h-6.51c2.43,7.1,9.01,12.63,16.86,10.38,7.01-2.01,9.83-9.63,6.63-15.92-1.97-3.87-7.8-.46-5.83,3.41,1.72,3.38-1.34,6.55-4.84,6.18-3.26-.35-5.3-2.87-6.32-5.84-1.15-3.36-5.24-3.02-6.51,0-4.84,11.5-9.07,23.22-12.68,35.15-1.26,4.17,5.25,5.95,6.51,1.79h0Z"/><path class="uuid-7257aaca-abb4-46e5-ae26-236fd16e7d8a" d="M301.96,574.61c6.35-14.53,12.71-29.06,19.06-43.59,1.72-3.94-4.09-7.38-5.83-3.41-6.35,14.53-12.71,29.06-19.06,43.59-1.72,3.94,4.09,7.38,5.83,3.41h0Z"/><path class="uuid-7257aaca-abb4-46e5-ae26-236fd16e7d8a" d="M311.3,533.81c-3.6,1.42-8.58,1.07-9.79-3.35-.8-2.92,1.84-6.56,5.06-4.94,3.87,1.95,7.29-3.87,3.41-5.83-7.25-3.65-15.87,1.88-15.39,10.07,.54,9.21,10.5,13.72,18.5,10.56,3.99-1.58,2.25-8.11-1.79-6.51h0Z"/><path class="uuid-7257aaca-abb4-46e5-ae26-236fd16e7d8a" d="M255.76,672.59l1.53-2.64c.88-1.53,.41-3.76-1.21-4.62s-3.67-.42-4.62,1.21l-1.53,2.64c-.88,1.53-.41,3.76,1.21,4.62s3.67,.42,4.62-1.21h0Z"/><path class="uuid-7257aaca-abb4-46e5-ae26-236fd16e7d8a" d="M266.09,655.68l-2.21-.04c-1.77-.03-3.46,1.57-3.38,3.38,.08,1.85,1.48,3.34,3.38,3.38l2.21,.04c1.77,.03,3.46-1.57,3.38-3.38-.08-1.85-1.48-3.34-3.38-3.38h0Z"/><path class="uuid-7257aaca-abb4-46e5-ae26-236fd16e7d8a" d="M520.6,150.34c-3.64-6.85-1.89-14.92,3.86-19.98,.88-.77,1.19-2.19,.87-3.28-.63-2.17-.46-3.59,.36-5.63,1.61-4.03-4.91-5.79-6.51-1.79-1.25,3.12-1.3,6.01-.36,9.22l.87-3.28c-8.04,7.08-9.9,18.78-4.91,28.16,2.04,3.84,7.87,.43,5.83-3.41h0Z"/><path class="uuid-7257aaca-abb4-46e5-ae26-236fd16e7d8a" d="M535.23,125.82c3.08-2.82,7.91-1.89,10.56,1.1,3.08,3.47,2.94,8.94,1.59,13.07-2.16,6.62-10.41,19.25-18.33,18.75-4.34-.27-4.32,6.48,0,6.75,7.8,.49,13.26-5.8,17.73-11.39s8.02-11.73,8.23-18.93c.38-12.64-13.66-24.1-24.56-14.12-3.21,2.94,1.57,7.7,4.77,4.77h0Z"/><path class="uuid-7257aaca-abb4-46e5-ae26-236fd16e7d8a" d="M503.14,159.29c-12.63,9.25-27.76,19.84-44,13.24-4.02-1.63-5.77,4.89-1.79,6.51,17.92,7.28,35.15-3.63,49.2-13.92,3.47-2.54,.1-8.4-3.41-5.83h0Z"/><path class="uuid-7257aaca-abb4-46e5-ae26-236fd16e7d8a" d="M525.96,174.7c6.13,16.19,14.11,31.5,24,45.73,.64,.92,1.7,1.79,2.91,1.67,3.17-.3,15.62,.48,10.62,6.74-3.98,4.99-9.88-1.04-11.86-4.54-2.14-3.78-7.97-.38-5.83,3.41,4.65,8.23,17.29,14.47,23.8,4.23,2.56-4.03,1.71-9.15-1.54-12.52-3.99-4.14-9.79-4.58-15.19-4.06,.97,.56,1.94,1.11,2.91,1.67-9.54-13.73-17.39-28.47-23.32-44.11-1.52-4.02-8.05-2.28-6.51,1.79h0Z"/><path class="uuid-7257aaca-abb4-46e5-ae26-236fd16e7d8a" d="M493.94,177.78c-6.43,12.46-11.97,25.33-16.59,38.57-.61,1.74,.7,3.66,2.36,4.15,9.52,2.8,18.58,6.58,27.27,11.36,1.44,.79,3.89,.51,4.62-1.21,4.25-10.06,9.19-19.77,14.83-29.12,2.25-3.73-3.58-7.13-5.83-3.41-5.64,9.35-10.59,19.06-14.83,29.12,1.54-.4,3.08-.81,4.62-1.21-9.19-5.06-18.83-9.08-28.89-12.04l2.36,4.15c4.44-12.69,9.74-25.01,15.91-36.95,1.99-3.85-3.83-7.27-5.83-3.41h0Z"/><path class="uuid-7257aaca-abb4-46e5-ae26-236fd16e7d8a" d="M479.66,226.8c-3.61,11.94-7.84,23.66-12.68,35.15h6.51c-2.43-7.1-9.01-12.63-16.86-10.38-7.01,2.01-9.83,9.63-6.63,15.92,1.97,3.87,7.8,.46,5.83-3.41-1.72-3.38,1.34-6.55,4.84-6.18,3.26,.35,5.3,2.87,6.32,5.84,1.15,3.36,5.24,3.02,6.51,0,4.84-11.5,9.07-23.22,12.68-35.15,1.26-4.17-5.25-5.95-6.51-1.79h0Z"/><path class="uuid-7257aaca-abb4-46e5-ae26-236fd16e7d8a" d="M492.34,230.95c-6.35,14.53-12.71,29.06-19.06,43.59-1.72,3.94,4.09,7.38,5.83,3.41,6.35-14.53,12.71-29.06,19.06-43.59,1.72-3.94-4.09-7.38-5.83-3.41h0Z"/><path class="uuid-7257aaca-abb4-46e5-ae26-236fd16e7d8a" d="M483.01,271.75c3.6-1.42,8.58-1.07,9.79,3.35,.8,2.92-1.84,6.56-5.06,4.94-3.87-1.95-7.29,3.87-3.41,5.83,7.25,3.65,15.87-1.88,15.39-10.07-.54-9.21-10.5-13.72-18.5-10.56-3.99,1.58-2.25,8.11,1.79,6.51h0Z"/><path class="uuid-7257aaca-abb4-46e5-ae26-236fd16e7d8a" d="M537.43,131.85c-.51,.88-1.02,1.76-1.53,2.64-.88,1.53-.41,3.76,1.21,4.62s3.67,.42,4.62-1.21c.51-.88,1.02-1.76,1.53-2.64,.88-1.53,.41-3.76-1.21-4.62-1.61-.85-3.67-.42-4.62,1.21h0Z"/><path class="uuid-7257aaca-abb4-46e5-ae26-236fd16e7d8a" d="M528.22,149.87l2.21,.04c1.77,.03,3.46-1.57,3.38-3.38s-1.48-3.34-3.38-3.38l-2.21-.04c-1.77-.03-3.46,1.57-3.38,3.38s1.48,3.34,3.38,3.38h0Z"/><path class="uuid-7257aaca-abb4-46e5-ae26-236fd16e7d8a" d="M238,136.72c11.11-2.95,18.43,10.6,26.66,15.66,6.87,4.22,16.36,4.8,21.86-1.94,2.72-3.34-2.02-8.14-4.77-4.77-7.55,9.25-18.24-2.89-23.91-8.05-6.02-5.49-13.28-9.62-21.63-7.41-4.19,1.11-2.42,7.63,1.79,6.51h0Z"/><path class="uuid-7257aaca-abb4-46e5-ae26-236fd16e7d8a" d="M145.84,254.3c1.2-.53,2.4-1.07,3.6-1.6,1.62-.72,2.12-3.2,1.21-4.62-1.08-1.68-2.89-1.98-4.62-1.21-1.2,.53-2.4,1.07-3.6,1.6-1.62,.72-2.12,3.2-1.21,4.62,1.08,1.68,2.89,1.98,4.62,1.21h0Z"/><path class="uuid-7257aaca-abb4-46e5-ae26-236fd16e7d8a" d="M156.53,249.96h.4c.46,.02,.9-.08,1.3-.29,.42-.14,.78-.37,1.09-.7,.33-.31,.56-.67,.7-1.09,.21-.4,.31-.84,.29-1.3l-.12-.9c-.16-.57-.45-1.07-.87-1.49l-.68-.53c-.53-.31-1.09-.46-1.7-.46h-.4c-.46-.02-.9,.08-1.3,.29-.42,.14-.78,.37-1.09,.7-.33,.31-.56,.67-.7,1.09-.21,.4-.31,.84-.29,1.3l.12,.9c.16,.57,.45,1.07,.87,1.49l.68,.53c.53,.31,1.09,.46,1.7,.46h0Z"/><path class="uuid-7257aaca-abb4-46e5-ae26-236fd16e7d8a" d="M169.38,244.69c.8-2,1.6-4,2.4-6,.68-1.69-.74-3.71-2.36-4.15-1.92-.53-3.47,.66-4.15,2.36-.8,2-1.6,4-2.4,6-.68,1.69,.74,3.71,2.36,4.15,1.92,.53,3.47-.66,4.15-2.36h0Z"/><path class="uuid-7257aaca-abb4-46e5-ae26-236fd16e7d8a" d="M166.03,248.24c1.87,.53,3.73,1.07,5.6,1.6,1.7,.48,3.75-.59,4.15-2.36,.41-1.8-.54-3.63-2.36-4.15s-3.73-1.07-5.6-1.6c-1.7-.48-3.75,.59-4.15,2.36s.54,3.63,2.36,4.15h0Z"/><path class="uuid-7257aaca-abb4-46e5-ae26-236fd16e7d8a" d="M80.97,403.72c-2.18,.15-4.25-.62-5.49-2.49-2.39-3.61-8.23-.23-5.83,3.41,2.5,3.78,6.73,6.14,11.32,5.83,1.82-.12,3.38-1.46,3.38-3.38,0-1.73-1.55-3.5-3.38-3.38h0Z"/><path class="uuid-7257aaca-abb4-46e5-ae26-236fd16e7d8a" d="M90.17,400.12c-2.01-1.9-3.15-4.14-3.62-6.87-.31-1.8-2.52-2.81-4.15-2.36-1.9,.52-2.67,2.35-2.36,4.15,.65,3.77,2.58,7.23,5.35,9.84,3.16,2.98,7.94-1.78,4.77-4.77h0Z"/><path class="uuid-7257aaca-abb4-46e5-ae26-236fd16e7d8a" d="M128.79,554.14c-14.58-7.34-30.05,9.36-19.82,22.92v-3.41c-2.94,5.75,.8,11.37,5.64,14.66,5.59,3.8,12.7,4.59,19.03,2.35,4.07-1.44,2.32-7.96-1.79-6.51-3.12,1.1-6.26,1.39-9.48,.45-2.19-.64-9.31-4.17-7.58-7.55,.51-.99,.73-2.44,0-3.41-5.77-7.65,1.4-18.31,10.58-13.68,3.87,1.95,7.29-3.87,3.41-5.83h0Z"/><path class="uuid-7257aaca-abb4-46e5-ae26-236fd16e7d8a" d="M538.82,114.97c5.48,8.4,12.86,15.05,21.9,19.44,3.6,1.75,6.42-2.3,4.09-5.3-3.98-5.12-6.06-11.15-6.33-17.61-2.1,.57-4.19,1.14-6.29,1.7,3.8,5.96,9.05,10.04,15.76,12.27,4.13,1.38,5.9-5.14,1.79-6.51-4.97-1.66-8.91-4.76-11.72-9.17-1.72-2.69-6.43-1.79-6.29,1.7,.35,8.4,3.16,15.76,8.3,22.38,1.36-1.77,2.73-3.53,4.09-5.3-8.01-3.89-14.6-9.55-19.48-17.02-2.36-3.62-8.21-.25-5.83,3.41h0Z"/><path class="uuid-7257aaca-abb4-46e5-ae26-236fd16e7d8a" d="M655.11,261.13c5.03,3.15,11.16,9.63,2.03,11.79-3.49,.83-2.9,5.42,0,6.51-.18-.07-3.7,1.91-4.45,2-1.99,.26-4.36,.51-4.92-2.11-.22-1.04-1.28-2.18-2.36-2.36-2.97-2.3-3.01-3.54-.1-3.7-.3-2.21-.6-4.42-.9-6.63l-.64,.24c-4.02,1.53-2.28,8.05,1.79,6.51l.64-.24c3.41-1.29,3.13-6.6-.9-6.63-10.73-.08-12.46,15.15-1.69,16.96l-2.36-2.36c1.72,7.96,11.4,8.66,17.56,5.42,5.76-3.03,6.83-11.1,.11-13.61v6.51c5.45-1.29,10.14-4.24,10.02-10.48-.12-6.52-5.41-10.5-10.44-13.65-3.69-2.31-7.08,3.52-3.41,5.83h0Z"/><path class="uuid-7257aaca-abb4-46e5-ae26-236fd16e7d8a" d="M677.84,403.93c-2.44,3.87-4.36,8.02-5.78,12.37s5.16,5.91,6.51,1.79c1.25-3.82,2.96-7.36,5.1-10.75,2.33-3.68-3.51-7.07-5.83-3.41h0Z"/><path class="uuid-7257aaca-abb4-46e5-ae26-236fd16e7d8a" d="M688.49,406.92c-1.03,2.79-2.06,5.58-3.1,8.37-.63,1.71,.71,3.7,2.36,4.15,1.89,.52,3.52-.64,4.15-2.36,1.03-2.79,2.06-5.58,3.1-8.37,.63-1.71-.71-3.7-2.36-4.15-1.89-.52-3.52,.64-4.15,2.36h0Z"/><path class="uuid-7257aaca-abb4-46e5-ae26-236fd16e7d8a" d="M698.01,407.43v6.96c0,4.34,6.75,4.35,6.75,0v-6.96c0-4.34-6.75-4.35-6.75,0h0Z"/><path class="uuid-7257aaca-abb4-46e5-ae26-236fd16e7d8a" d="M668.22,558.36c.93,2.32,1.87,4.64,2.8,6.95,.68,1.69,2.25,2.88,4.15,2.36,1.6-.44,3.04-2.45,2.36-4.15-.93-2.32-1.87-4.64-2.8-6.95-.68-1.69-2.25-2.88-4.15-2.36-1.6,.44-3.04,2.45-2.36,4.15h0Z"/><path class="uuid-7257aaca-abb4-46e5-ae26-236fd16e7d8a" d="M682.91,544.38c2.06-1.09,4.31-1.8,6.65-2,1.82-.16,3.38-1.44,3.38-3.38,0-1.71-1.55-3.53-3.38-3.38-3.57,.3-6.88,1.24-10.05,2.92-3.84,2.03-.43,7.86,3.41,5.83h0Z"/><path class="uuid-7257aaca-abb4-46e5-ae26-236fd16e7d8a" d="M656.09,556.93c-.26,1.85-.53,3.7-.79,5.56-.25,1.74,.42,3.71,2.36,4.15,1.59,.36,3.89-.49,4.15-2.36s.53-3.7,.79-5.56c.25-1.74-.42-3.71-2.36-4.15-1.59-.36-3.89,.49-4.15,2.36h0Z"/><path class="uuid-7257aaca-abb4-46e5-ae26-236fd16e7d8a" d="M647.31,551.95c-1.19,1.6-2.39,3.2-3.58,4.8-1.06,1.42-.28,3.83,1.21,4.62,1.77,.93,3.49,.31,4.62-1.21,1.19-1.6,2.39-3.2,3.58-4.8,1.06-1.42,.28-3.83-1.21-4.62-1.77-.93-3.49-.31-4.62,1.21h0Z"/><path class="uuid-7257aaca-abb4-46e5-ae26-236fd16e7d8a" d="M561.13,679.66c10.28-4.94,20.56-9.89,30.84-14.83,3.91-1.88,.49-7.7-3.41-5.83-10.28,4.94-20.56,9.89-30.84,14.83-3.91,1.88-.49,7.7,3.41,5.83h0Z"/><path class="uuid-7257aaca-abb4-46e5-ae26-236fd16e7d8a" d="M577.28,670.96c3.12,6.66-8.22,11.52-12.93,12.63-5.9,1.39-12.06-.11-14.88-5.83-1.93-3.89-7.75-.48-5.83,3.41,4.78,9.66,16.38,11.4,25.73,7.91,8.91-3.33,18.62-11.1,13.74-21.52-1.84-3.93-7.66-.51-5.83,3.41h0Z"/><path class="uuid-7257aaca-abb4-46e5-ae26-236fd16e7d8a" d="M250.35,630.23c-10.74,5.06-18.17,15.85-18.79,27.75-.64,12.41,6.67,24.2,17.48,29.99,.57-2.1,1.14-4.19,1.7-6.29-22.63-2.35-33.36-28.09-20.67-46.41,2.48-3.58-3.37-6.96-5.83-3.41-7.54,10.88-8.84,25.51-2.69,37.36,5.74,11.04,16.99,17.94,29.19,19.2,3.38,.35,4.52-4.78,1.7-6.29-19.05-10.2-18.09-36.95,1.31-46.08,3.93-1.85,.5-7.67-3.41-5.83h0Z"/><path class="uuid-7257aaca-abb4-46e5-ae26-236fd16e7d8a" d="M536.21,404.33c-.29-58.33-37.12-111.46-91.94-131.7-55.26-20.4-119.42-2.86-156.69,42.69-37.14,45.38-42.19,110.98-11.84,161.31,30.34,50.31,90.27,76.64,147.87,65.23,56.82-11.26,102.21-58.63,110.93-115.91,1.09-7.16,1.64-14.37,1.68-21.62,.02-4.34-6.73-4.35-6.75,0-.28,55.4-35.32,106.4-87.61,125.42-52.66,19.15-112.81,2.8-148.66-40.17-35.93-43.07-40.55-106.17-11.62-154.14,28.83-47.81,86.13-73.13,140.91-61.99,53.98,10.98,96.53,55.36,105.34,109.71,1.13,7,1.61,14.08,1.65,21.17,.02,4.34,6.77,4.35,6.75,0Z"/><path class="uuid-7257aaca-abb4-46e5-ae26-236fd16e7d8a" d="M453.78,494.02c-3.8,3.96-6.47,8.75-7.74,14.1-1,4.22,5.5,6.03,6.51,1.79,1.01-4.25,2.98-7.97,6.01-11.12,3.01-3.13-1.76-7.91-4.77-4.77h0Z"/><path class="uuid-7257aaca-abb4-46e5-ae26-236fd16e7d8a" d="M275.57,395.13c1.94,.89,3.88,1.77,5.82,2.66,1.68,.77,3.6,.48,4.62-1.21,2.86-4.73,5.73-9.47,8.59-14.2-2.06-.27-4.11-.54-6.17-.81,1.2,3.11,1.93,7.48,5.16,9.1,2.55,1.28,5.52,.73,7.86-.78,2.57-1.66,4.03-4.27,4.49-7.23,.28-1.82-1.73-14.77,2.74-13.63l-2.36-2.36c2.69,8.69,4.42,18.96,8.93,26.92,3.21,5.67,10.34,9.24,16.23,5.15,1.32-.92,1.86-2.24,1.55-3.81-2.92-14.82,14.17-24.12,23.55-32.19,4.61-3.97,8.79-8.54,11.19-14.2,2.85-6.73,1.57-15.29,5.91-21.34,4.19-5.84,12.24-7.63,18.72-9.62,8.03-2.46,16.05-4.92,24.08-7.37,12.45-3.81,28.34-6.13,36.64-17.2,2.61-3.48-3.25-6.85-5.83-3.41-4.78,6.37-13.36,8.2-20.57,10.41-8.64,2.65-17.29,5.29-25.93,7.94-12.18,3.73-29.59,6.27-34.96,19.68-2.78,6.95-1.84,14.78-5.84,21.33-3.68,6.03-9.72,10.33-15.2,14.59-10.42,8.09-21.1,18.81-18.27,33.17,.52-1.27,1.03-2.54,1.55-3.81-7.22,5.01-10.65-13.2-11.89-17.21-1.44-4.67-1.87-13.79-8.31-13.56-4.77,.17-8.06,4.73-8.76,9.1-.48,2.99,.34,5.95,.26,8.94-.02,.9-.56,4.86-2.52,4.49-.45-.09-1.7-4.35-1.91-4.89-1.02-2.63-4.57-3.45-6.17-.81-2.86,4.73-5.73,9.47-8.59,14.2,1.54-.4,3.08-.81,4.62-1.21-1.94-.89-3.88-1.77-5.82-2.66-3.92-1.79-7.36,4.03-3.41,5.83h0Z"/><path class="uuid-7257aaca-abb4-46e5-ae26-236fd16e7d8a" d="M479.86,325.28c-6.63-3.7-13.49-.19-18.02,5.15s-6.28,15.69-13.97,17.75c-2.56,.69-3.58,4.98-.81,6.17,10.14,4.33,16.14,14.09,16.76,24.96,.72,12.64-4.53,24.59-7.42,36.65-2.53,10.53-2.63,20.59,.33,31.04,3.07,10.81,8.52,21.81,6.34,33.31-.81,4.25,5.7,6.06,6.51,1.79,2.25-11.81-1.9-22.57-5.37-33.68-1.95-6.25-3.43-12.49-3.13-19.08,.31-6.95,2.3-13.72,4.22-20.35,3.55-12.24,7.45-25.37,3.99-38.1-2.65-9.78-9.44-18.35-18.83-22.36-.27,2.06-.54,4.11-.81,6.17,5.67-1.52,9.17-5.77,11.97-10.7,2.59-4.58,7.62-16.91,14.82-12.89,3.8,2.12,7.2-3.71,3.41-5.83h0Z"/><path class="uuid-7257aaca-abb4-46e5-ae26-236fd16e7d8a" d="M482.28,465.7c-1.29-17.46,8.74-33.86,24.78-40.81,3.98-1.72,.54-7.54-3.41-5.83-18.02,7.81-29.57,27.08-28.13,46.64,.32,4.31,7.07,4.34,6.75,0h0Z"/><path class="uuid-7257aaca-abb4-46e5-ae26-236fd16e7d8a" d="M308.07,480.06c1.74-3.83,6.23-4.81,10.02-3.39,4.45,1.67,7.25,6.22,9.45,10.17,4.08,7.35,7.27,15.01,14.78,19.53v-5.83c-3.33,2.21-6.67,4.42-10,6.63-3.61,2.39-.23,8.24,3.41,5.83,3.33-2.21,6.67-4.42,10-6.63,2.1-1.39,2.26-4.47,0-5.83-10.19-6.13-11.24-20.19-20.54-27.43-6.91-5.38-18.89-5.4-22.94,3.54-1.78,3.93,4.03,7.36,5.83,3.41h0Z"/></g></svg>