<?xml version="1.0" encoding="UTF-8"?><svg xmlns="http://www.w3.org/2000/svg" viewBox="0 0 799.99 799.99"><defs><style>.uuid-ff9c763d-33ac-4703-b986-88b42ab48179{fill:#fbae17;}.uuid-c63759fc-90f4-4ce5-ae47-55439b36005d{fill:#d1d3d4;}.uuid-83f3b97b-aeef-4764-b377-f66826f30be2{fill:#231f20;}</style></defs><g id="uuid-2ceb8a74-a94f-4d51-b3b2-1565da128204"><path class="uuid-ff9c763d-33ac-4703-b986-88b42ab48179" d="M430.43,201.4s10.26-4.38,10.26-9.24-55.92-39.39-90.45-29.66c-34.53,9.73-51.06,44.74-53.98,68.08-2.92,23.34-3.46,31.04-3.46,31.04l3.46-.13,5.66,5.55s11.79-10.47,14.74-18.6l4.31-12.32s70.58-4.53,101.96-30.81c0,0,13.88-3.9,13.88,9.71s-20.43,28.21-20.43,28.21c0,0,29.18-7.78,33.56-23.83,4.38-16.05-19.5-17.99-19.5-17.99Z"/><path class="uuid-c63759fc-90f4-4ce5-ae47-55439b36005d" d="M207.08,504.28c25.58-13.03,51.64-25.1,77.68-37.17,26.27-12.18,52.54-24.35,78.35-37.48,11.24-5.72,22.39-11.65,33.4-17.81l-21.39-26.95-3.49,38.05-17.29-38.05-70.42-41.68-6.06,20-36.26,45.21s-43.17,54.81-64.27,112.03c9.81-5.57,19.7-11.02,29.76-16.14Z"/><path class="uuid-c63759fc-90f4-4ce5-ae47-55439b36005d" d="M501.3,423.54l-18.43,48.83s-3.49,8.31,10.96,8.31l7.47,1.16s5.46-10.58,7.99-11.26,0-6.47,0-6.47l-10.48-8.56s-1.8-10.18,5.48-11.64c7.28-1.47,23.48,3.91,23.48,3.91l6.42,4.87,21.54-47.03-32.15,3.43s.64,19.93-22.28,14.45Z"/></g><g id="uuid-d87a390f-7728-44cd-9af6-704528309d70"><path class="uuid-83f3b97b-aeef-4764-b377-f66826f30be2" d="M402.8,478.16c3.76-5.92,8.53-10.47,14.57-14.01,5.38-3.15,11.78-4.95,16.5-9.06,.87-.76,1.96-2.28,3.08-2.7,2.67-1.01,5.98,1.11,5.54,4.28-.53,3.83-5.81,7.57-8.3,10.06-6.34,6.36-12.69,12.72-19.03,19.07-3.07,3.08,1.7,7.85,4.77,4.77,4.53-4.54,9.06-9.08,13.6-13.62,4.29-4.3,9.29-8.43,12.87-13.36,5.21-7.2,2.36-17.2-7.25-18.28-3.85-.44-6.38,1.73-9.12,4.15-3.6,3.18-8.22,4.69-12.45,6.89-8.52,4.43-15.42,10.27-20.6,18.41-2.34,3.68,3.5,7.07,5.83,3.41h0Z"/><path class="uuid-83f3b97b-aeef-4764-b377-f66826f30be2" d="M403.61,496.31c1.98-2.97,6.47-4.16,9.53-2.11,3.15,2.11,3.56,6.58,1.69,9.62-2.28,3.71,3.56,7.11,5.83,3.41,3.77-6.14,2.17-14.95-4.11-18.86-6.37-3.96-14.74-1.5-18.76,4.53-2.42,3.62,3.42,7.01,5.83,3.41h0Z"/><path class="uuid-83f3b97b-aeef-4764-b377-f66826f30be2" d="M397.01,512.24c5.32-3.21,9.65,10.14,3.97,12.69-3.96,1.77-.53,7.59,3.41,5.83,13.19-5.92,2.82-32.55-10.78-24.35-3.72,2.24-.33,8.08,3.41,5.83h0Z"/><path class="uuid-83f3b97b-aeef-4764-b377-f66826f30be2" d="M384,522.87c3.12,1.99,3.83,5.79,2.46,9.06-.71,1.69,.77,3.7,2.36,4.15,1.94,.56,3.45-.69,4.15-2.36,2.57-6.09-.12-13.21-5.56-16.68-3.67-2.34-7.06,3.5-3.41,5.83h0Z"/><path class="uuid-83f3b97b-aeef-4764-b377-f66826f30be2" d="M416.3,515.77c-1.03,8.34-5.26,16.09-11.56,21.63-6.61,5.82-18.03,10.84-26.3,5.51-8.64-5.57-8.63-17.36-6.51-26.24,2.32-9.74,6.89-18.79,13.17-26.57,2.7-3.35-2.04-8.16-4.77-4.77-8.11,10.04-14.13,22.02-15.92,34.91-1.51,10.87,1.28,23.68,11.82,29.2,10.1,5.28,22.57,1.16,31.02-5.41,8.97-6.97,14.4-17.05,15.79-28.25,.53-4.3-6.22-4.26-6.75,0h0Z"/><path class="uuid-83f3b97b-aeef-4764-b377-f66826f30be2" d="M434.74,499.05c2.14-.31,4.91-.78,6.09,1.28,1.58,2.74-2.72,5.3-4.84,6.48-4.87,2.7-10.23,3.66-15.75,3.39-4.34-.21-4.33,6.54,0,6.75,9.24,.45,22.95-2.65,27.13-12.11,1.63-3.68,.99-7.95-2.28-10.51-3.45-2.7-8.06-2.37-12.14-1.78-4.28,.62-2.46,7.13,1.79,6.51h0Z"/><path class="uuid-83f3b97b-aeef-4764-b377-f66826f30be2" d="M281.11,361.02l4.61-20.04c-1.65,.67-3.31,1.34-4.96,2.02,24.33,14.64,48.65,29.28,72.98,43.92-.4-1.54-.81-3.08-1.21-4.62-5.62,12.97-11.24,25.94-16.85,38.91l4.62-1.21c-17.25-12.52-33.78-25.96-49.58-40.27-3.21-2.91-8,1.85-4.77,4.77,16.22,14.7,33.23,28.48,50.94,41.33,1.36,.98,3.94,.35,4.62-1.21,5.62-12.97,11.24-25.94,16.85-38.91,.73-1.69,.5-3.59-1.21-4.62-24.33-14.64-48.65-29.28-72.98-43.92-1.81-1.09-4.47-.1-4.96,2.02-1.54,6.68-3.08,13.36-4.61,20.04-.97,4.23,5.53,6.03,6.51,1.79h0Z"/><path class="uuid-83f3b97b-aeef-4764-b377-f66826f30be2" d="M370.16,382.86c5.53,9.89,10.41,20.09,14.58,30.62,1.58,3.99,8.11,2.25,6.51-1.79-4.38-11.08-9.44-21.83-15.26-32.23-2.12-3.79-7.95-.39-5.83,3.41h0Z"/><path class="uuid-83f3b97b-aeef-4764-b377-f66826f30be2" d="M351.08,385.76c4.39,14.81,14.35,26.86,18.74,41.64,.54,1.82,2.33,2.75,4.15,2.36,2.49-.53,4.97-1.06,7.46-1.6,4.25-.91,2.45-7.42-1.79-6.51-2.49,.53-4.97,1.06-7.46,1.6,1.38,.79,2.77,1.57,4.15,2.36-4.39-14.81-14.35-26.86-18.74-41.64-1.23-4.15-7.75-2.39-6.51,1.79h0Z"/><path class="uuid-83f3b97b-aeef-4764-b377-f66826f30be2" d="M425.7,286.85c5.79,25.2-8.54,53.77-32.95,63.14s-52.76-1.09-66.03-22.67c-2.27-3.69-8.11-.31-5.83,3.41,11.72,19.04,33.99,30.33,56.27,29.26,23.12-1.11,42.65-16.22,51.58-37.27,5.06-11.93,6.37-25.02,3.47-37.66-.97-4.23-7.48-2.44-6.51,1.79h0Z"/><path class="uuid-83f3b97b-aeef-4764-b377-f66826f30be2" d="M392.84,297.57c-.95,.97-1.91,1.93-2.86,2.9-1.24,1.26-1.35,3.53,0,4.77,1.34,1.23,3.45,1.34,4.77,0,.95-.97,1.91-1.93,2.86-2.9,1.24-1.26,1.35-3.53,0-4.77-1.34-1.23-3.45-1.34-4.77,0h0Z"/><path class="uuid-83f3b97b-aeef-4764-b377-f66826f30be2" d="M361.09,271.66c.08,2.32-.46,4.32-1.71,6.28-2.34,3.68,3.5,7.07,5.83,3.41,1.83-2.89,2.75-6.27,2.63-9.68-.15-4.33-6.91-4.35-6.75,0h0Z"/><path class="uuid-83f3b97b-aeef-4764-b377-f66826f30be2" d="M414.07,274.31c.08,2.32-.46,4.32-1.71,6.28-2.34,3.68,3.5,7.07,5.83,3.41,1.83-2.89,2.75-6.27,2.63-9.68-.15-4.33-6.91-4.35-6.75,0h0Z"/><path class="uuid-83f3b97b-aeef-4764-b377-f66826f30be2" d="M359.33,331.19c4.88,4.84,12.02,6.65,18.59,4.51,4.11-1.33,2.35-7.85-1.79-6.51-4.34,1.41-8.76,.46-12.02-2.78-3.09-3.06-7.86,1.71-4.77,4.77h0Z"/><path class="uuid-83f3b97b-aeef-4764-b377-f66826f30be2" d="M307.25,270.53c-2.67-8.76-11.34-13.87-20.33-11.98-9.47,1.99-15.69,10.68-16.57,20-2.06,21.8,20.9,35.64,39.92,27.18,3.96-1.76,.53-7.58-3.41-5.83-12.87,5.72-28.17-2.46-29.78-16.68-.73-6.45,1.85-13.55,7.74-16.78,6.09-3.34,13.82-1.01,15.92,5.88,1.26,4.14,7.78,2.38,6.51-1.79h0Z"/><path class="uuid-83f3b97b-aeef-4764-b377-f66826f30be2" d="M302.01,303.9c-2.14,13.13-5.55,25.94-10.23,38.4-1.53,4.07,4.99,5.83,6.51,1.79,4.68-12.45,8.09-25.26,10.23-38.4,.69-4.25-5.81-6.08-6.51-1.79h0Z"/><path class="uuid-83f3b97b-aeef-4764-b377-f66826f30be2" d="M292.91,257.94c-2.74-30.42-2.96-63.91,22.64-85.17,24.92-20.69,59.92-20.43,88.47-7.87,16.2,7.12,29.79,19.31,46.89,24.44,4.17,1.25,5.95-5.26,1.79-6.51-17.01-5.11-30.67-17.51-46.9-24.47-15.88-6.81-33.42-10.39-50.71-8.66-29.98,3-57.17,22.06-66.15,51.44-5.61,18.34-4.48,37.96-2.79,56.8,.39,4.29,7.14,4.33,6.75,0h0Z"/><path class="uuid-83f3b97b-aeef-4764-b377-f66826f30be2" d="M320.96,239.48c37.96,3.15,76.23-5.17,109.54-23.62l-4.96-3.81c-6.55,17.29-22.07,29.78-40.15,33.12-3.73,.69-2.89,6.85,.9,6.63,17.93-1.05,37.33-2.4,52.9-12.32,7.2-4.59,14.12-11.14,16.62-19.53,2.29-7.68-.1-15.64-6.56-20.39-3.5-2.58-6.87,3.28-3.41,5.83,7,5.15,3.79,14.83-.84,20.34-4.61,5.49-10.9,9.49-17.48,12.2-13,5.36-27.36,6.31-41.24,7.12,.3,2.21,.6,4.42,.9,6.63,20.52-3.79,37.51-18.42,44.87-37.84,1.1-2.89-2.57-5.13-4.96-3.81-32.34,17.91-69.32,25.75-106.14,22.69-4.33-.36-4.31,6.39,0,6.75h0Z"/><path class="uuid-83f3b97b-aeef-4764-b377-f66826f30be2" d="M371.32,380.64c16.18,19.59,29.92,41.02,41.08,63.83,1.91,3.9,7.73,.48,5.83-3.41-11.43-23.35-25.59-45.16-42.14-65.2-2.77-3.35-7.52,1.45-4.77,4.77h0Z"/><path class="uuid-83f3b97b-aeef-4764-b377-f66826f30be2" d="M548.75,454.66c7.33-16.12,14.75-32.21,22-48.37,3.94-8.78-1.09-17.93-11.32-16.88-9.42,.97-18.81,2.27-28.21,3.4-8.7,1.05-17.44,1.96-26.12,3.15-8.75,1.2-11.7,7.07-14.7,14.2-8.06,19.17-16.12,38.35-24.19,57.52-.86,2.03-1.83,4.05-2.56,6.13-2.59,7.33,.52,15.61,7.9,18.67,4.81,1.99,10.79,.9,15.85,.66,4.89-.23,9.77-.47,14.66-.7,4.32-.21,4.35-6.96,0-6.75-7.86,.37-15.74,.97-23.61,1.13-6.81,.14-10.57-5.25-8.12-11.64,.54-1.42,1.18-2.81,1.77-4.2,7.34-17.46,14.68-34.92,22.02-52.38,2.05-4.87,3.73-13.36,9.28-15.4,5.75-2.12,13.12-1.86,19.15-2.59,10.09-1.22,20.19-2.43,30.28-3.65,4.99-.6,15.39-2.77,12.09,5.93-3.5,9.23-8.26,18.16-12.35,27.15-3.22,7.07-6.44,14.15-9.65,21.22-1.79,3.92,4.03,7.36,5.83,3.41h0Z"/><path class="uuid-83f3b97b-aeef-4764-b377-f66826f30be2" d="M551.19,457.76c-8.21-6.33-17.24-11.33-26.94-14.98-7.92-2.97-19.68-7.55-26.79-.47-6.37,6.34-2.04,15.43,3.85,20.23,8.67,7.06,18.6,12.92,27.82,19.24,1.14-1.94,2.27-3.89,3.41-5.83-1.66-1.05-2.68-1.05-4.56-.74-4.28,.7-2.46,7.21,1.79,6.51l1.06-.17c-.87-.11-1.73-.23-2.6-.34l.9,.57c3.7,2.35,6.95-3.4,3.41-5.83-6.81-4.66-13.62-9.33-20.43-13.99-2.79-1.91-5.82-3.69-8.2-6.11-3.68-3.75-3.97-9.57,2.42-10.42,6.99-.92,16.26,3.62,22.46,6.51,6.77,3.16,13.09,7.09,19,11.65,3.44,2.65,6.8-3.21,3.41-5.83h0Z"/><path class="uuid-83f3b97b-aeef-4764-b377-f66826f30be2" d="M513.55,466.51c-6.84-.29-12.95,5.1-13.67,11.92-.8,7.6,4.66,13.71,11.36,16.32,4.05,1.58,5.8-4.95,1.79-6.51-3.46-1.35-6.72-4.71-6.5-8.68,.21-3.74,3.39-6.46,7.03-6.31,4.34,.19,4.33-6.56,0-6.75h0Z"/><path class="uuid-83f3b97b-aeef-4764-b377-f66826f30be2" d="M500.8,494.04c-5.93,2.54-9.09,9.82-6.76,15.87,2.36,6.13,9.56,9.19,15.69,7.23,4.12-1.32,2.36-7.84-1.79-6.51-2.97,.95-6.57-.17-7.68-3.34-1.13-3.22,1.12-6.21,3.95-7.43,3.98-1.71,.55-7.52-3.41-5.83h0Z"/><path class="uuid-83f3b97b-aeef-4764-b377-f66826f30be2" d="M508.29,416.19c-.35-.49-.46-.62-.33-.39,.13,.24,.06,.08-.21-.49,.13,.43-.09-.47-.06-.49,0,.07,0,.14,0,.21-.02,.28,0,.09,.07-.55-.06,.12-.22,.6,.03,0,.13-.29,.16-.36,.08-.21-.03,.06-.07,.12-.11,.18-.03-.02,.63-.74,.21-.31-.26,.26,.74-.47,.29-.25l.55-.24c-.34,.08-.18,.07,.48-.05-1.76,.13-3.46,1.46-3.38,3.38,.08,1.71,1.49,3.52,3.38,3.38,2.11-.16,3.85-1.3,4.68-3.27,.32-.76,.53-1.57,.47-2.4-.1-1.3-.57-2.26-1.37-3.27-.5-.63-1.62-.99-2.39-.99-.83,0-1.82,.37-2.39,.99s-1.03,1.49-.99,2.39c.04,.95,.4,1.65,.99,2.39h0Z"/><path class="uuid-83f3b97b-aeef-4764-b377-f66826f30be2" d="M511.19,529.97c20.52-.49,42.38-10.44,51.84-29.45,4.82-9.68,7.24-20.4,6.64-31.23-.63-11.37-4.71-21.28-9.57-31.4-1.88-3.91-7.7-.49-5.83,3.41,4.2,8.74,7.9,17.35,8.61,27.15,.71,9.89-1.25,19.79-5.67,28.67-8.42,16.91-27.74,25.67-46.01,26.11-4.34,.1-4.35,6.85,0,6.75h0Z"/><path class="uuid-83f3b97b-aeef-4764-b377-f66826f30be2" d="M344.7,532.78c6.03,17.58,21.13,30.98,39.49,34.36-.83-1.08-1.65-2.17-2.48-3.25,.23,8.4-5.35,16.44-13.87,18.04-8.67,1.63-17.92-2.82-24.16-8.6-11.18-10.36-15.87-26.66-11.37-41.26l-2.36,2.36c12.32-2.91,24.18-7.15,35.6-12.59,3.92-1.87,.5-7.69-3.41-5.83-8.09,3.86-16.44,7.08-25.05,9.58-2.86,.83-8.28,1.04-10.43,3.2-1.79,1.8-2.03,5.67-2.39,8.07-1.83,12.29,1.7,25.15,9.13,35.06,7.53,10.04,19.95,18,32.92,16.97,12.82-1.02,22.46-12.25,22.12-25-.04-1.38-1.01-2.98-2.48-3.25-16-2.95-29.47-14.17-34.78-29.64-1.4-4.09-7.92-2.33-6.51,1.79h0Z"/><path class="uuid-83f3b97b-aeef-4764-b377-f66826f30be2" d="M356.76,583.93c-21.75,18.95-49.65,30.59-78.48,32.36-14.69,.9-29.43-.76-43.59-4.79s-29.12-10.22-40.47-19.7c-10.31-8.61-17.21-20.82-19.38-34.07-2.46-15.04,2.59-28.57,8.42-42.15,10.84-25.26,24.38-49.37,39.07-72.58,15.6-24.65,32.63-48.52,51.66-70.65,2.82-3.28-1.94-8.07-4.77-4.77-17.95,20.89-34.18,43.29-49.13,66.41-16.39,25.34-31.43,51.78-43.25,79.58-5.73,13.47-10.65,26.77-9.08,41.68,1.44,13.62,7.27,26.51,16.64,36.51,10.05,10.72,24.18,17.57,37.75,22.68,14.67,5.53,30.36,8.54,46.04,8.8,34.15,.57,67.68-12.19,93.36-34.56,3.28-2.86-1.51-7.62-4.77-4.77h0Z"/><path class="uuid-83f3b97b-aeef-4764-b377-f66826f30be2" d="M377.12,436.9l-.83,9.58c-.37,4.33,6.38,4.3,6.75,0l.83-9.58c.37-4.33-6.38-4.3-6.75,0h0Z"/></g></svg>