<?xml version="1.0" encoding="UTF-8"?><svg xmlns="http://www.w3.org/2000/svg" viewBox="0 0 799.99 799.99"><defs><style>.uuid-1e19aa9d-7b7c-4a4b-aef2-4bf84705e79d{fill:#fbae17;}.uuid-03310299-3996-4712-8751-da661a71b4ed{fill:#d1d3d4;}.uuid-141fa755-0f46-4999-8eea-d19196eab6ad{fill:#231f20;}</style></defs><g id="uuid-d153ea12-40e1-4916-b47a-2438c4eea6f7"><path class="uuid-03310299-3996-4712-8751-da661a71b4ed" d="M501.3,423.54l-18.43,48.83s-3.49,8.31,10.96,8.31l16.35-.18s1.54-8.98,4.07-9.66c2.53-.68,0-6.47,0-6.47l-7.25-7.16s-2.71-8.76,4.56-10.23c7.28-1.47,16.2,.84,16.2,.84l6.42,4.87,21.54-47.03-32.15,3.43s.64,19.93-22.28,14.45Z"/><path class="uuid-1e19aa9d-7b7c-4a4b-aef2-4bf84705e79d" d="M271.2,355.32c1.28,0,19.71-35.97,22.74-79.82,3.03-43.85,12.91-75.84,50.04-90.85,37.13-15.01,62.01,15.41,62.01,15.41,0,0,14.14-6.54,26.51,8.44,2.34,2.83,3.6,5.58,4.11,8.18,.49,1.81,.48,3.94-.19,6.47-.09,.37-.19,.73-.31,1.09,0,.01,0,.02-.01,.04,0,.02-.01,.04-.02,.05-.13,.41-.28,.81-.44,1.2-5.32,13.09-16.06,24.28-27.43,32.37-7.18,5.1-12.78,4.83-21.05,3.95-5.86-.62-.56-5.64,1.72-7.52,3.05-2.52,5.98-5.27,8.13-8.58,3.35-5.16,4.54-11.22,5.73-17.15-5.88,16.01-18.02,27.12-35.86,29.92,0,0,9.57-18.56,9.57-18.56,0,0-6.4,12.64-37.21,20.93,0,0-14.49,10.3-23.7,19.51-9.21,9.21-14.43,28.6-14.43,28.6l18.23,4.08-7.89,23.62c-.74,.74-.57,8.5-.57,8.5l-23.97-2.86s-5.7,21.26-22.54,27.08l6.83-14.1Z"/><path class="uuid-03310299-3996-4712-8751-da661a71b4ed" d="M206.41,509.91c17.53-8.52,34.91-17.34,52.19-26.35,17.36-9.04,34.63-18.27,51.87-27.56,16.72-9.01,33.3-18.22,49.77-27.68,11.09-6.37,22.21-12.69,33.54-18.62l-25.71-34.64-13.58,25.82-20.06-16.81-37.13-28.76-11.54,7.53s-49.62,57.92-79.08,109.03c-11.22,19.46-18.38,35.87-22.96,48.73,7.62-3.44,15.16-7.04,22.68-10.7Z"/></g><g id="uuid-de03ecb1-cf80-4332-a4a3-3829809d698e"><path class="uuid-141fa755-0f46-4999-8eea-d19196eab6ad" d="M405.52,477.01c4.2-4.68,9.07-8.19,14.84-10.71,5.65-2.46,12.23-3.31,17.57-6.36,2.42-1.39,6.57-5.18,9.02-1.55,2.61,3.88-6.3,8.56-8.54,10.18-6.87,4.95-13.75,9.9-20.62,14.85-3.49,2.52-.13,8.37,3.41,5.83,9.52-6.86,20.29-13.16,28.94-21.1,6.39-5.86,5.11-14.92-3.62-17.57-3.94-1.2-7.03,.31-10.3,2.44-4,2.6-8.81,3.5-13.28,5.09-8.55,3.05-16.07,7.33-22.18,14.13-2.89,3.22,1.86,8.01,4.77,4.77h0Z"/><path class="uuid-141fa755-0f46-4999-8eea-d19196eab6ad" d="M404.45,492.92c2.27-2.42,6.25-3.29,9.29-1.78,3,1.49,4.02,5.35,1.77,7.97-2.83,3.27,1.93,8.07,4.77,4.77,4.59-5.32,4.19-13.49-1.77-17.71-5.65-4-14.13-3.03-18.84,1.98-2.97,3.16,1.79,7.95,4.77,4.77h0Z"/><path class="uuid-141fa755-0f46-4999-8eea-d19196eab6ad" d="M396.08,506.18c6.11-2.56,9.04,8.67,3.63,10.27-4.16,1.23-2.39,7.75,1.79,6.51,14.03-4.15,6.66-29.1-7.22-23.29-3.95,1.65-2.21,8.19,1.79,6.51h0Z"/><path class="uuid-141fa755-0f46-4999-8eea-d19196eab6ad" d="M382.84,514.32c2.35,1.62,2.94,4.56,1.45,6.95-2.31,3.7,3.53,7.09,5.83,3.41,3.53-5.65,1.41-12.54-3.87-16.18-3.59-2.47-6.97,3.38-3.41,5.83h0Z"/><path class="uuid-141fa755-0f46-4999-8eea-d19196eab6ad" d="M415.5,509.69c-2.07,7.86-7.32,14.25-14.25,18.42-6.98,4.2-17.19,7.14-24.89,3.24-8.91-4.5-8.47-15.19-5.43-23.2,3.37-8.89,9.31-16.48,16.36-22.75,3.25-2.89-1.54-7.65-4.77-4.77-8.88,7.91-16.51,18.31-19.44,30.01-2.52,10.06,.17,21.38,9.88,26.54,9.37,4.99,21.59,2.37,30.44-2.52,8.99-4.97,15.99-13.19,18.62-23.18,1.11-4.2-5.4-6-6.51-1.79h0Z"/><path class="uuid-141fa755-0f46-4999-8eea-d19196eab6ad" d="M434.91,497.71c1.31-.05,4.82-.55,5.8,.46,1.37,1.4-.59,3.5-1.66,4.15-1.37,.83-2.91,1.37-4.42,1.85-4.93,1.58-9.97,1.8-15.08,1.17-4.3-.54-4.26,6.22,0,6.75,8.77,1.1,22.58-.14,27.88-8.49,5.68-8.95-5.61-12.91-12.51-12.63-4.33,.18-4.35,6.93,0,6.75h0Z"/><path class="uuid-141fa755-0f46-4999-8eea-d19196eab6ad" d="M361.73,378.01c7.01,12.11,17.63,22.44,23.01,35.47,1.63,3.96,8.17,2.22,6.51-1.79-5.64-13.67-16.34-24.39-23.69-37.09-2.17-3.76-8.01-.36-5.83,3.41h0Z"/><path class="uuid-141fa755-0f46-4999-8eea-d19196eab6ad" d="M423.77,296.89c5.12,21.8-9.24,44.76-29.87,52.22-20.35,7.36-46.1,.25-58.17-18.12-2.38-3.62-8.22-.24-5.83,3.41,13.96,21.25,43.54,29.85,67.1,20.74,23.51-9.1,39.14-35.04,33.27-60.04-.99-4.23-7.5-2.44-6.51,1.79h0Z"/><path class="uuid-141fa755-0f46-4999-8eea-d19196eab6ad" d="M365.87,283.37c.09,2.58-.52,4.83-1.91,7.01-2.34,3.68,3.5,7.07,5.83,3.41,1.97-3.11,2.96-6.74,2.83-10.41-.15-4.33-6.91-4.35-6.75,0h0Z"/><path class="uuid-141fa755-0f46-4999-8eea-d19196eab6ad" d="M417.13,280.4c.09,2.58-.52,4.83-1.91,7.01-2.34,3.68,3.5,7.07,5.83,3.41,1.97-3.11,2.96-6.74,2.83-10.41-.15-4.33-6.91-4.35-6.75,0h0Z"/><path class="uuid-141fa755-0f46-4999-8eea-d19196eab6ad" d="M316.52,309.49c-2.14,13.13-5.55,25.94-10.23,38.4-1.53,4.07,4.99,5.83,6.51,1.79,4.68-12.45,8.09-25.26,10.23-38.4,.69-4.25-5.81-6.08-6.51-1.79h0Z"/><path class="uuid-141fa755-0f46-4999-8eea-d19196eab6ad" d="M548.75,454.66c7.33-16.12,14.75-32.21,22-48.37,3.94-8.78-1.09-17.93-11.32-16.88-9.42,.97-18.81,2.27-28.21,3.4-8.7,1.05-17.44,1.96-26.12,3.15-8.75,1.2-11.7,7.07-14.7,14.2-8.06,19.17-16.12,38.35-24.19,57.52-.86,2.03-1.83,4.05-2.56,6.13-2.59,7.33,.52,15.61,7.9,18.67,4.81,1.99,10.79,.9,15.85,.66,4.89-.23,9.77-.47,14.66-.7,4.32-.21,4.35-6.96,0-6.75-7.86,.37-15.74,.97-23.61,1.13-6.81,.14-10.57-5.25-8.12-11.64,.54-1.42,1.18-2.81,1.77-4.2,7.34-17.46,14.68-34.92,22.02-52.38,2.05-4.87,3.73-13.36,9.28-15.4,5.75-2.12,13.12-1.86,19.15-2.59,10.09-1.22,20.19-2.43,30.28-3.65,4.99-.6,15.39-2.77,12.09,5.93-3.5,9.23-8.26,18.16-12.35,27.15-3.22,7.07-6.44,14.15-9.65,21.22-1.79,3.92,4.03,7.36,5.83,3.41h0Z"/><path class="uuid-141fa755-0f46-4999-8eea-d19196eab6ad" d="M551.8,459.49c-7.06-5.42-14.84-9.69-23.21-12.72-6.54-2.38-15.59-5.63-21.5-.14-5.28,4.91-2.86,12.48,1.8,16.82,7.02,6.54,16.24,11.45,24.14,16.87,1.14-1.94,2.27-3.89,3.41-5.83-1.5-.95-2.52-.95-4.21-.67-4.28,.7-2.46,7.21,1.79,6.51l.87-.14c-.87-.11-1.73-.23-2.6-.34l.74,.47c3.7,2.35,6.95-3.4,3.41-5.83-5.39-3.69-10.79-7.39-16.18-11.08-2.42-1.66-5.13-3.19-7.18-5.32-4.12-4.26-1.36-8.2,4.11-7.52,11.18,1.39,22.45,8.03,31.22,14.76,3.44,2.64,6.81-3.22,3.41-5.83h0Z"/><path class="uuid-141fa755-0f46-4999-8eea-d19196eab6ad" d="M520.49,466.62c-5.96-.26-11.26,4.48-11.86,10.42-.66,6.54,4.03,11.77,9.79,14.02,4.05,1.58,5.8-4.95,1.79-6.51-2.6-1.01-5.11-3.59-4.92-6.58,.18-2.77,2.52-4.72,5.19-4.6,4.34,.19,4.33-6.56,0-6.75h0Z"/><path class="uuid-141fa755-0f46-4999-8eea-d19196eab6ad" d="M509.68,489.38c-5.15,2.21-7.86,8.6-5.81,13.82,2.08,5.3,8.28,8.01,13.63,6.3,4.12-1.32,2.36-7.84-1.79-6.51-5.58,1.79-7.87-5.52-2.61-7.78,3.98-1.71,.55-7.52-3.41-5.83h0Z"/><path class="uuid-141fa755-0f46-4999-8eea-d19196eab6ad" d="M507.4,416.19c-.35-.49-.46-.62-.33-.39,.13,.24,.06,.08-.21-.49,.13,.43-.09-.47-.06-.49,0,.07,0,.14,0,.21-.02,.28,0,.09,.07-.55-.06,.12-.22,.6,.03,0,.13-.29,.16-.36,.08-.21-.03,.06-.07,.12-.11,.18-.03-.02,.63-.74,.21-.31-.26,.26,.74-.47,.29-.25l.55-.24c-.34,.08-.18,.07,.48-.05-1.76,.13-3.46,1.46-3.38,3.38,.08,1.71,1.49,3.52,3.38,3.38,2.11-.16,3.85-1.3,4.68-3.27,.32-.76,.53-1.57,.47-2.4-.1-1.3-.57-2.26-1.37-3.27-.5-.63-1.62-.99-2.39-.99-.83,0-1.82,.37-2.39,.99s-1.03,1.49-.99,2.39c.04,.95,.4,1.65,.99,2.39h0Z"/><path class="uuid-141fa755-0f46-4999-8eea-d19196eab6ad" d="M518.54,520.09c16.76-.44,34.81-8.39,42.84-23.8,4.18-8.02,6.34-17.02,5.97-26.08-.4-9.74-3.84-18.2-8-26.87-1.88-3.91-7.7-.49-5.83,3.41,7.22,15.05,10.09,30.65,2.03,46.13-6.94,13.32-22.52,20.07-37.01,20.46-4.34,.12-4.35,6.87,0,6.75h0Z"/><path class="uuid-141fa755-0f46-4999-8eea-d19196eab6ad" d="M397.2,315.27c2.41-.69,4.55-2.33,5.71-4.57,.81-1.57,.46-3.74-1.21-4.62-1.55-.82-3.75-.46-4.62,1.21-.09,.17-.17,.33-.27,.49-.05,.09-.36,.5-.06,.11,.33-.42-.09,.08-.17,.17-.13,.13-.28,.25-.41,.38-.29,.29,.51-.31,.15-.12-.16,.08-.33,.19-.48,.29-.37,.24,0-.03,.2-.06-.19,.03-.45,.16-.64,.21-1.7,.49-2.92,2.41-2.36,4.15,.56,1.73,2.33,2.88,4.15,2.36h0Z"/><path class="uuid-141fa755-0f46-4999-8eea-d19196eab6ad" d="M369.95,289.32c1.31-.35,2.62-.7,3.93-1.05,1.7-.46,2.92-2.43,2.36-4.15s-2.32-2.85-4.15-2.36c-1.31,.35-2.62,.7-3.93,1.05-1.7,.46-2.92,2.43-2.36,4.15s2.32,2.85,4.15,2.36h0Z"/><path class="uuid-141fa755-0f46-4999-8eea-d19196eab6ad" d="M422.18,285.85l2.09-.33c.78-.12,1.64-.9,2.02-1.55,.42-.72,.6-1.79,.34-2.6s-.77-1.6-1.55-2.02l-.81-.34c-.6-.16-1.2-.16-1.79,0l-2.09,.33c-.78,.12-1.64,.9-2.02,1.55-.42,.72-.6,1.79-.34,2.6s.77,1.6,1.55,2.02l.81,.34c.6,.16,1.2,.16,1.79,0h0Z"/><path class="uuid-141fa755-0f46-4999-8eea-d19196eab6ad" d="M299.46,310.85c6.95,4.38,15.46,5.4,23.16,2.45,4.02-1.54,2.27-8.06-1.79-6.51-6.16,2.36-12.37,1.75-17.96-1.77-3.69-2.32-7.08,3.52-3.41,5.83h0Z"/><path class="uuid-141fa755-0f46-4999-8eea-d19196eab6ad" d="M322.09,280.02c-.37-2.36-1.52-4.38-2.98-6.23-1.1-1.39-3.64-1.23-4.77,0-1.36,1.48-1.17,3.28,0,4.77-.42-.53,.29,.47,.35,.58,.06,.1,.52,.99,.38,.69s.21,.63,.25,.76c.11,.4,.19,.81,.26,1.23,.28,1.75,2.55,2.87,4.15,2.36,1.9-.61,2.65-2.28,2.36-4.15h0Z"/><path class="uuid-141fa755-0f46-4999-8eea-d19196eab6ad" d="M291.38,353.99c15.56,12.36,31.11,24.73,46.67,37.09-.29-1.09-.58-2.19-.87-3.28-2.58,8.91-5.16,17.81-7.74,26.72l5.64-1.49c-15.64-17.52-31.29-35.04-46.93-52.56-1.19-1.34-3.57-1.27-4.77,0-38.88,40.94-71,88.21-94.46,139.57-10.09,22.1-27.17,52.49-7.18,73.96,9.29,9.98,22.73,14.24,35.85,16.22s25.39,2.03,38.17,.49c30.97-3.71,60.52-14.17,90.29-22.94,1.54-.45,2.34-1.73,2.48-3.25l.08-.83c.11-1.17-.72-2.33-1.67-2.91l-.71-.44c-1.24-.77-3.08-.54-4.09,.53l-.57,.61c-.78,.83-1.28,2.16-.87,3.28l.29,.79c1.48,4.05,8,2.3,6.51-1.79l-.29-.79-.87,3.28,.57-.61c-1.36,.18-2.73,.35-4.09,.53l.71,.44c-.56-.97-1.11-1.94-1.67-2.91l-.08,.83c.83-1.08,1.65-2.17,2.48-3.25-24.68,7.27-49.1,15.65-74.43,20.47-12.04,2.29-24.31,3.76-36.58,3.31-13.17-.48-27.85-2.46-39.2-9.6-12.65-7.96-17.24-20.9-13.72-35.26,3.1-12.65,9.02-24.93,14.41-36.74,10.95-23.97,23.78-47.09,38.32-69.07,16.29-24.62,34.75-47.73,55.08-69.14h-4.77c15.64,17.52,31.29,35.04,46.93,52.56,1.74,1.94,4.97,.84,5.64-1.49,2.58-8.91,5.16-17.81,7.74-26.72,.3-1.05,.04-2.57-.87-3.28-15.56-12.36-31.11-24.73-46.67-37.09-3.37-2.68-8.17,2.07-4.77,4.77h0Z"/><path class="uuid-141fa755-0f46-4999-8eea-d19196eab6ad" d="M265.84,421.09c15.49,15.94,24.33,37.17,24.72,59.4,.08,4.34,6.83,4.35,6.75,0-.42-24-9.97-46.95-26.7-64.17-3.03-3.12-7.8,1.65-4.77,4.77h0Z"/><path class="uuid-141fa755-0f46-4999-8eea-d19196eab6ad" d="M338.27,390.74c6.85,7.46,12.76,15.59,17.79,24.39,2.16,3.77,7.99,.37,5.83-3.41-5.31-9.28-11.61-17.88-18.84-25.76-2.94-3.21-7.71,1.58-4.77,4.77h0Z"/><path class="uuid-141fa755-0f46-4999-8eea-d19196eab6ad" d="M361.5,427.9l-.66,7.23c-.17,1.82,1.67,3.38,3.38,3.38,1.96,0,3.21-1.55,3.38-3.38l.66-7.23c.17-1.82-1.67-3.38-3.38-3.38-1.96,0-3.21,1.55-3.38,3.38h0Z"/><path class="uuid-141fa755-0f46-4999-8eea-d19196eab6ad" d="M361.14,374.17c-2.08,5.93-3.35,12.09-5.43,18.02-1.44,4.11,5.08,5.87,6.51,1.79,2.08-5.93,3.35-12.09,5.43-18.02,1.44-4.11-5.08-5.87-6.51-1.79h0Z"/><path class="uuid-141fa755-0f46-4999-8eea-d19196eab6ad" d="M356.17,354.9c-3.06,6.58-6.13,13.15-9.19,19.73-1.82,3.91,3.99,7.35,5.83,3.41,3.06-6.58,6.13-13.15,9.19-19.73,1.82-3.91-3.99-7.35-5.83-3.41h0Z"/><path class="uuid-141fa755-0f46-4999-8eea-d19196eab6ad" d="M362.45,514.27c-5.14,16.4,.07,34.85,13.14,46.04,.5-1.88,.99-3.76,1.49-5.64-10.94,2.2-21.89,4.4-32.83,6.6,1.27,.52,2.54,1.03,3.81,1.55-7.17-16.63-12.46-34.75,.27-50.24,1.71-2.08,.79-5.92-2.39-5.76-25.24,1.27-50.49,2.55-75.73,3.82-4.32,.22-4.35,6.97,0,6.75,25.24-1.27,50.49-2.55,75.73-3.82-.8-1.92-1.59-3.84-2.39-5.76-6.27,7.63-10.02,16.85-10.05,26.8-.03,11.14,4.39,21.56,8.73,31.61,.61,1.42,2.47,1.82,3.81,1.55,10.94-2.2,21.89-4.4,32.83-6.6,2.4-.48,3.36-4.04,1.49-5.64-11.35-9.72-15.88-25.19-11.41-39.47,1.3-4.15-5.21-5.93-6.51-1.79h0Z"/><path class="uuid-141fa755-0f46-4999-8eea-d19196eab6ad" d="M366.97,327.72c2.99,6.07,9.3,9.85,16.03,9.86,4.34,.01,4.35-6.74,0-6.75-4.5-.01-8.24-2.52-10.2-6.52s-7.74-.48-5.83,3.41h0Z"/><path class="uuid-141fa755-0f46-4999-8eea-d19196eab6ad" d="M379.48,227.5c-5.79,15.57-15.99,29.47-30.52,37.86-3.46,2-1.04,6.86,2.6,6.17,26.02-4.94,51.92-12.8,65.39-37.64,2.07-3.82-3.75-7.23-5.83-3.41-12.62,23.27-37.09,29.92-61.35,34.53,.87,2.06,1.73,4.11,2.6,6.17,16.09-9.29,27.22-24.67,33.62-41.89,1.52-4.08-5.01-5.84-6.51-1.79h0Z"/><path class="uuid-141fa755-0f46-4999-8eea-d19196eab6ad" d="M315.73,334.31c-15.03-11.86-13.31-32.83-3.46-47.42,10.97-16.26,29.23-25.28,45.79-34.7,3.78-2.15,.38-7.98-3.41-5.83-18.96,10.78-39.85,21.48-50.8,41.35-9.06,16.45-8.56,39.01,7.1,51.37,3.37,2.66,8.18-2.08,4.77-4.77h0Z"/><path class="uuid-141fa755-0f46-4999-8eea-d19196eab6ad" d="M263.33,378.01c10.19-16.98,17.52-35.61,21.47-55.02,3.85-18.92,3.71-37.58,2.57-56.75-1.11-18.65-1.65-38.32,8.99-54.6,9.89-15.13,24.83-29.46,41.98-35.81,20.58-7.62,44.89-1.45,61.54,12.15,3.34,2.73,8.14-2.02,4.77-4.77-15.11-12.34-34.97-19.12-54.55-17.02-18.69,2-34.93,13.42-47.45,26.86-6.4,6.87-12.56,14.47-16.42,23.08-3.91,8.74-5.6,18.19-6.07,27.71-.99,20.09,2.59,40.02,.69,60.14-2.35,24.96-10.47,49.17-23.36,70.64-2.24,3.73,3.59,7.13,5.83,3.41h0Z"/><path class="uuid-141fa755-0f46-4999-8eea-d19196eab6ad" d="M413.51,191.55c16.41,4.32,29.44,19.48,30.12,36.67,.7,17.67-11.62,34.24-28.37,39.41-4.14,1.28-2.37,7.8,1.79,6.51,19.51-6.03,34.14-25.23,33.32-45.92s-15.69-38.09-35.07-43.18c-4.2-1.11-6,5.4-1.79,6.51h0Z"/><path class="uuid-141fa755-0f46-4999-8eea-d19196eab6ad" d="M377.9,266.73c21.04,2.38,45.89-1,56.75-21.73,2.02-3.84-3.81-7.26-5.83-3.41-9.76,18.62-32.28,20.5-50.93,18.39-4.31-.49-4.27,6.27,0,6.75h0Z"/><path class="uuid-141fa755-0f46-4999-8eea-d19196eab6ad" d="M377.53,422.7c7.63,13.12,12.88,27.23,15.74,42.13,.82,4.26,7.33,2.46,6.51-1.79-2.97-15.44-8.51-30.16-16.42-43.75-2.18-3.75-8.02-.36-5.83,3.41h0Z"/></g></svg>