<?xml version="1.0" encoding="UTF-8"?>
<svg xmlns="http://www.w3.org/2000/svg" viewBox="0 0 799.99 799.99">
  <defs>
    <style>
      .cls-1 {
        fill: #231815;
      }

      .cls-2 {
        fill: #dcdddd;
      }

      .cls-3 {
        fill: #fbae17;
      }
    </style>
  </defs>
  <g id="Y_K20" data-name="Y/K20">
    <path class="cls-3" d="M335.14,222.13s1.04-6.85-3.92-5.08c-4.96,1.77-2.8,10.27-2.8,10.27l-2.96,11.86-11.52,2.85s5.94-43.56,23.65-45.08c17.71-1.52,18.96,5.57,18.96,5.57,0,0-.43-14.53,9.08-8.5s0,19.35,0,19.35l-2.11-7.87s-10.25,8.14-15.61,11.79-12.77,4.83-12.77,4.83Z"/>
    <path class="cls-3" d="M433.08,212.07c-1.96-.69-4.44-8.48,6.19-10.96s12.17,1.42,12.17,1.42c0,0-3.4-8.95,8.34-9.97,11.73-1.02,15.99,15,14.21,16.91s5.47,7.83,5.47,7.83c0,0-6.23,5.87-15.77,1.39l-9.54-4.47-3.54,8.31-17.53-10.46Z"/>
    <path class="cls-3" d="M228.64,310.33s-11.84-6.03-16.85.2c-5.01,6.23-.06,20.75-1,21.19s9.35-.3,11.52-7.63c2.18-7.33,10-9.65,10-9.65l-3.68-4.11Z"/>
    <path class="cls-3" d="M235.53,300.66s3.25-13.16,15.55-15.47,18.93,10.36,18.93,10.36l-10.27,9.71s-8.6-6.46-12.11-4.6c-3.5,1.86-3.1,8.81-3.1,8.81l-7.29,1.26-1.72-10.07Z"/>
    <path class="cls-3" d="M213.34,260.48s-5-6.86,0-9.55,8.99,0,8.99,0c0,0-7.57-16.88,0-19.41s11.97,3.62,11.97,3.62c0,0,4.45-13.29,11.76-12.61s6.71,11.08,6.71,11.08c0,0,3.68-7.64,8.69-2.09,5.01,5.55,1.57,10.52,1.57,10.52,0,0,.38,10.37-3.29,10.98s-5.87-1.13-5.87-1.13c0,0-10.56,9.03-14.45,7.32-3.89-1.71-1.1-14.35-5.12-9.96-4.02,4.38-6.16,8.44-6.16,8.44,0,0-1.1-3.23-6.22,2.9l-8.58-.1Z"/>
    <path class="cls-3" d="M337.8,345.96s.24-21.18,18.94-20.76,17.63,19.05,17.63,19.05c0,0-14.73,1.61-17.81,6.51s-23.52,1.44-23.52,1.44l4.77-6.23Z"/>
    <path class="cls-3" d="M433.04,350.75s2.83-20,15.15-23.72,21.01,11.82,21.48,16.75,9.71,4.43,9.71,4.43c0,0,1.93,5.19-6.16,5.16-8.09-.03-28.76-14.45-40.18-2.62Z"/>
    <path class="cls-3" d="M541.88,282.11c-10.26-5.78-23.09,0-23.09,0,0,0,2.94,5.39-3.19,10.4-6.13,5.01-3.19,3.41-.66,4.59l1.32,1.95s5.86,2.31,14-.77c8.14-3.08,5.72-8.09,9.95-3.02,4.24,5.07,4.27,12.88,4.27,12.88l3.83,2.84,5.86-9.23s-2.03-13.86-12.29-19.64Z"/>
    <path class="cls-3" d="M549.78,249.57s-.78-14.75,14.46-18.05,24.22,13.55,25.03,15.88,2.33,11.84,2.33,11.84l-3.65,1.21s-2.31-10.36-7.32-7.44-8.31-1.06-8.78-5.62c-.46-4.55,3.18-10.04-2.11-8.84s-4.13,7.21-4.13,7.21l-15.84,3.8Z"/>
    <path class="cls-2" d="M203.94,384.47s-4.97,15.57,0,19.24,27.4,14.31,38.38,13.53,38.64-4.53,38.64-4.53l-16.22,58.83s-5.06,8.97,7.56,15.72,28.63,14.31,37.03,13.52,28.46-10,28.46-10c0,0,1.23-7.3,6.32-2.74l5.28,2.74,3.29-31.97-14.07,3.16-4.64,6.32-10.17-1.39-.87,6.58s-11.52,5.4-11.69-1.95c-.18-7.35,4.78-9.57,4.78-9.57l-7.91,1.43s-3.02-4.8,3.07-8.93c6.09-4.13,12.63-4.14,12.63-4.14l31.37-15.4,1.57-15.2,40.45,36.33s47.92-5.84,61.64-4.13c13.72,1.71,20.83,2.98,20.83,2.98l3.09-27.65-86.48-14.55-14.21-19.16-9.27-12.81s-22.12,1.83-28.32,3.26c-6.2,1.43-49.16,1.65-57.75,1.78s-16.7,0-16.7,0c0,0-5.03,13.01-12.06,13.25s-54.01-14.56-54.01-14.56Z"/>
    <path class="cls-3" d="M416.81,417.24l18.98-26.15s10.48,7.08,20.52,5.99c10.03-1.09,55.39,5.81,55.39,5.81,0,0,19.98,59.64,19.98,65.39s-21.29,18.09-28.98,19.54-25.83-14.52-30.92-11.98c-5.08,2.54-4.36-22.51-4.36-22.51l9.89,1.17s-2.24,13.46,16.62,13.77c18.86.31,17.76-8.41,17.76-8.41,0,0,7.24.02,8.71-7.25s-7.24-11.85-7.24-11.85c0,0,5.6-8.23-7.37-15.98s-24.58-5.07-24.58-5.07l-17.06-2.49s8.71-3.09,1.45-10.72c-7.26-7.62-13.11-5.08-14.18-1.09-1.07,3.99,3.88,7.27,3.88,7.27l-10.13,10.33-28.38-5.8Z"/>
    <path class="cls-3" d="M449.46,678.47s-2.44-7.89,5.58-11.12c8.02-3.23,13.36-2.23,13.36-2.23l1.67-8.3,7.35,1.62s-6.35,11.36-4.01,14.03c2.34,2.67,6.99.91,6.99.91l-.15,7.96s-27.7.04-30.79-2.86Z"/>
    <path class="cls-3" d="M515.74,675.2s13.45-12.75,17.79-16.76c4.34-4.01,4.34,2,4.34,2,0,0,3.62,6.41,7.01,5.69s-3.84,13.72-12.78,15.21-16.37-6.14-16.37-6.14Z"/>
    <path class="cls-3" d="M327.6,669.07s-1.7,11.96,2.91,11.92,19.68,5.93,26.27-1.52,11.33-8.83,6.19-15.61c-5.14-6.77-14.84-6.38-14.84-6.38l-1.47,11.8-19.07-.22Z"/>
    <path class="cls-3" d="M267.32,657.49c-1.46.12-6.71,2.47-6.71,2.47,0,0-3.22,19.88,15.28,21.37,18.49,1.49,13.15-6.2,13.15-6.2l-13.15-23.27s-1.22,5.02-8.56,5.63Z"/>
    <path class="cls-3" d="M180.49,424.8s-12.91,36.31-14.51,48.68c-1.59,12.37,7.71,31.9,8.04,33.09s6.47,27.52,6.47,27.52c0,0-14.18,19.52-17.93,25.1-3.75,5.58-19.3,50.62-19.3,50.62,0,0,7.49,7.57,12.91,0,5.42-7.57,24.31-46.64,24.31-46.64,0,0-14.77-5.98-6.47-10.76s16.63-2.89,16.63-2.89l-6.58-61.59s-13.57.71-10.05-8.06,13.8-9.57,16.63-4.78c2.83,4.78,3.23,12.84,3.23,12.84,0,0,12.36,119.55,11.16,124.3-1.2,4.75,18.43,1.82,18.43,1.82,0,0,9.33-92.34,9.49-99.91.16-7.57-2.46-40.67-2.46-40.67,0,0-10.38,4.47-9.55-1.95.83-6.41,10.4-8.13,10.4-8.13l4.67-22.44-55.53-16.15Z"/>
    <path class="cls-2" d="M579.74,459.53s-4.25,24.71-4.56,33.88c-.31,9.18,3.27,57.77,4.56,69.87,1.29,12.1,4.86,62.33,4.86,62.33h28.53l6.42-99.99s4.36,26.45,9.82,36.81c5.46,10.36,26.92,49.8,26.92,49.8,0,0,16.9.02,16.1-3.23s-20.58-62.91-20.58-62.91l-10.34-15.11s14.99-88.68,14.81-91.47-2.22-7.13-2.22-7.13c0,0-20.87,18.23-41.23,25.9-20.36,7.68-33.1,1.25-33.1,1.25Z"/>
  </g>
  <g id="_レイヤー_1" data-name="レイヤー 1">
    <g>
      <g>
        <path class="cls-1" d="M504.65,321.37l4.72.41-3.38-3.38c-.26,4.86-.34,9.73-.09,14.59.16,3.19.26,6.64,2.09,9.4,4.16,6.29,12.25,4.33,18.55,5.04,4.31.49,4.28-6.27,0-6.75-5.49-.62-13.14,1.85-13.78-5.87-.46-5.44-.3-10.97-.01-16.42.1-1.93-1.64-3.22-3.38-3.38l-4.72-.41c-4.33-.37-4.3,6.38,0,6.75h0Z"/>
        <path class="cls-1" d="M522.12,330.73l6.52-3.14c1.64-.79,2.08-3.13,1.21-4.62-.98-1.68-2.97-2.01-4.62-1.21l-6.52,3.14c-1.64.79-2.08,3.13-1.21,4.62.98,1.68,2.97,2.01,4.62,1.21h0Z"/>
        <path class="cls-1" d="M510.81,300.86c-3.05-4.09-2.46-8.21,1.57-11.33,1.18-.91,1.19-2.9.53-4.09-3.43-6.17,10.21-8.57,13.67-8.98,5.68-.67,11.55-.04,16.8,2.31,9.93,4.45,16.31,14.7,13.53,25.6-1.07,4.21,5.44,6.01,6.51,1.79,4.16-16.33-7.13-31.48-22.87-35.5-8.51-2.18-18.14-1.36-26.22,2.08-6.47,2.75-11.04,9.3-7.25,16.11.18-1.36.35-2.73.53-4.09-6.17,4.79-7.29,13.26-2.63,19.51,2.57,3.44,8.43.08,5.83-3.41h0Z"/>
        <path class="cls-1" d="M542.78,311.67c4.56-1.18,5.04,9.25.18,8.07-4.22-1.03-6.02,5.48-1.79,6.51,6.54,1.59,11.94-3.67,11.98-10.12.03-6.58-5.23-12.75-12.16-10.96-4.2,1.09-2.42,7.6,1.79,6.51h0Z"/>
        <path class="cls-1" d="M524.95,346.63c2,2.32,3.87,4.73,5.6,7.26,1.03,1.5,2.96,2.18,4.62,1.21,1.49-.87,2.25-3.11,1.21-4.62-2.06-2.99-4.29-5.87-6.66-8.62-1.19-1.38-3.55-1.22-4.77,0-1.37,1.37-1.19,3.39,0,4.77h0Z"/>
        <path class="cls-1" d="M529.68,361.54c13.45-12.26,27.64-23.64,42.54-34.08l-2.6.34c4.48,1.49,8.92,3.09,13.33,4.76,5.85,2.22,13.15,4.29,18.03,8.36,3.32,2.76,8.12-1.99,4.77-4.77-4.54-3.78-10.45-5.9-15.86-8.08s-11.3-4.56-17.09-6.3c-2.29-.69-3.31-.55-5.51.93-4.85,3.26-9.5,6.84-14.13,10.4-9.75,7.49-19.17,15.39-28.26,23.68-3.22,2.93,1.57,7.7,4.77,4.77h0Z"/>
        <path class="cls-1" d="M538.21,357.01c-27.23,1.38-54.49,2.22-81.75,2.5-1.65.02-3.6,1.54-3.38,3.38,1.02,8.13,2.04,16.26,3.06,24.39.24,1.94,1.36,3.2,3.38,3.38,30.61,2.69,61.22,5.38,91.83,8.07-.3-2.21-.6-4.42-.9-6.63l-1.12.2c-4.27.76-2.46,7.27,1.79,6.51l1.12-.2c3.99-.71,2.63-6.32-.9-6.63-30.61-2.69-61.22-5.38-91.83-8.07l3.38,3.38c-1.02-8.13-2.04-16.26-3.06-24.39l-3.38,3.38c27.27-.28,54.52-1.11,81.75-2.5,4.32-.22,4.35-6.97,0-6.75h0Z"/>
        <path class="cls-1" d="M457.7,364.63c-8-9.58-23.36-15.42-31.93-3.11-2.49,3.57,3.36,6.95,5.83,3.41,6.01-8.63,16.61-1.17,21.32,4.48,2.79,3.34,7.54-1.46,4.77-4.77h0Z"/>
        <path class="cls-1" d="M432,375.19c.4-.3.8-.59,1.24-.83.08-.04.93-.46.54-.3.34-.14.71-.25,1.07-.35.24-.06.48-.12.73-.17-.28.02-.21.01.21-.02,1.75-.16,3.46-1.44,3.38-3.38-.08-1.69-1.49-3.55-3.38-3.38-2.6.24-5.09,1-7.2,2.59-1.45,1.1-2.21,2.91-1.21,4.62.84,1.43,3.16,2.32,4.62,1.21h0Z"/>
        <path class="cls-1" d="M434.53,384.38l2.51-.57c1.72-.39,2.9-2.47,2.36-4.15-.26-.82-.77-1.6-1.55-2.02-.84-.44-1.67-.52-2.6-.34-.31.06-.62.12-.93.18-.79.15-1.62.88-2.02,1.55-.42.72-.6,1.79-.34,2.6s.77,1.6,1.55,2.02c.84.44,1.67.52,2.6.34.31-.06.62-.12.93-.18-.6-2.17-1.2-4.34-1.79-6.51l-2.51.57c-1.72.39-2.9,2.47-2.36,4.15.58,1.8,2.31,2.78,4.15,2.36h0Z"/>
        <path class="cls-1" d="M447.58,425.42c4.55-3.86,9.09-7.73,13.64-11.59,3.31-2.82-1.48-7.57-4.77-4.77-4.55,3.86-9.09,7.73-13.64,11.59-3.31,2.82,1.48,7.57,4.77,4.77h0Z"/>
        <path class="cls-1" d="M424.38,386.67c-7.13,7.17-12.39,15.62-15.81,25.14-1.47,4.1,5.05,5.86,6.51,1.79,3.02-8.42,7.77-15.82,14.07-22.16,3.07-3.08-1.7-7.86-4.77-4.77h0Z"/>
        <path class="cls-1" d="M529.36,417.19c28.04,6.34,57.71,1.38,82.07-13.92,3.67-2.3.29-8.15-3.41-5.83-22.83,14.34-50.55,19.19-76.87,13.24-4.23-.96-6.04,5.55-1.79,6.51h0Z"/>
        <path class="cls-1" d="M544.96,402.84c21.07-1.54,41.38-7.34,60.06-17.21,3.84-2.03.43-7.86-3.41-5.83-17.59,9.3-36.81,14.84-56.66,16.29-4.31.31-4.34,7.07,0,6.75h0Z"/>
        <path class="cls-1" d="M612.44,378.91c2.77-2.19,3.91-5.31,4.99-8.56.51-1.54.84-3.71,1.99-4.93,1.59-1.68,3.7-1.55,5.04.38,1.25,1.79.81,3.03.33,5.04-1.05,4.36-.96,6.11,1.4,9.86,2.46,3.89-.78,16.62-7.08,15.4-4.24-.82-6.06,5.69-1.79,6.51,8.53,1.64,12.95-5.39,15.57-12.43,1.33-3.57,2.17-7.52.38-11.09-.89-1.78-2.55-2.82-2.49-4.9.06-2,1.37-3.91,1.36-6.05-.03-7.06-6.9-12.75-13.78-10.07-7.39,2.88-5.32,11.83-10.69,16.08-3.41,2.69,1.4,7.44,4.77,4.77h0Z"/>
        <path class="cls-1" d="M566.38,416.61c1.27,13.94,2.54,27.88,3.81,41.82.13,1.38.95,2.98,2.48,3.25,14.09,2.54,30.86,6.93,44.6,1.08,11.21-4.78,21.34-12.45,30.71-20.12,3.99-3.26,9.23-6.96,10.88-12.05.75-2.32.22-4.56-.2-6.93-1.56-8.86-3.78-17.63-5.98-26.34-1.21-4.76-2.44-9.53-3.84-14.24-.74-2.47-1.35-5.5-3.06-7.51-2.82-3.31-7.58,1.48-4.77,4.77-.56-.65-.1-.03.07.6.37,1.32.86,2.62,1.25,3.93,1.02,3.43,1.95,6.9,2.85,10.37,2.11,8.11,4.09,16.26,5.83,24.45.53,2.51,1.36,5.38,1.49,7.85,0,.17.09.63.07.9-.01.16-.07.49.04-.08.23-1.19-1.07,1.78-1,1.68-1.42,2.11-3.65,3.81-5.57,5.46-8.17,6.99-17,13.55-26.48,18.67-5.09,2.75-9.73,4.46-15.55,4.49-9.95.05-19.78-1.73-29.54-3.48.83,1.08,1.65,2.17,2.48,3.25-1.27-13.94-2.54-27.88-3.81-41.82-.39-4.29-7.14-4.33-6.75,0h0Z"/>
        <path class="cls-1" d="M652.91,433.9c-.74,16.91-4.71,33.9-7.76,50.5-3.02,16.46-6.71,33.01-8.33,49.69-.42,4.32,6.33,4.29,6.75,0,1.65-16.93,5.5-33.74,8.56-50.45s6.81-33.08,7.54-49.74c.19-4.34-6.56-4.33-6.75,0h0Z"/>
        <path class="cls-1" d="M574.6,470.63c-9.67,51.77,7.31,103.14,6.63,154.98-.03,1.91,1.57,3.26,3.38,3.38,9.49.63,18.99,1.25,28.48,1.88,1.86.12,3.33-1.65,3.38-3.38,1.28-48.46,5.13-96.82,11.53-144.87.57-4.29-6.18-4.25-6.75,0-6.41,48.05-10.26,96.41-11.53,144.87l3.38-3.38c-9.49-.63-18.99-1.25-28.48-1.88l3.38,3.38c.67-51.13-16.41-102.17-6.87-153.19.79-4.25-5.71-6.07-6.51-1.79h0Z"/>
        <path class="cls-1" d="M624.59,560.59c7.6,14.44,15.21,28.88,22.81,43.32,2.47,4.69,4.71,9.75,10.3,11.24,5.59,1.5,11.42-.91,16.4-3.25,1.37-.64,1.88-2.45,1.55-3.81-6.45-26.87-16.78-52.64-30.64-76.54-2.18-3.76-8.01-.36-5.83,3.41,13.59,23.43,23.64,48.6,29.96,74.93.52-1.27,1.03-2.54,1.55-3.81-4.7,2.21-11.13,4.93-14.67-.38-3.21-4.81-5.56-10.47-8.26-15.59-5.78-10.98-11.56-21.95-17.34-32.93-2.02-3.85-7.85-.44-5.83,3.41h0Z"/>
        <path class="cls-1" d="M646.7,611.3l-14.44,10.54c-1.32.96-1.85,2.2-1.55,3.81,2.41,13.1,18.9,9.95,28.29,9.13,4.42-.38,9.68-.26,12.43-4.41,3.38-5.11-.04-10.86.64-16.31.53-4.3-6.22-4.26-6.75,0-.41,3.34.96,6.16.93,9.41-.05,5-5.29,4.4-9.01,4.72-5.61.49-18.53,3.71-20.01-4.33-.52,1.27-1.03,2.54-1.55,3.81,4.81-3.51,9.63-7.02,14.44-10.54,3.47-2.54.11-8.39-3.41-5.83h0Z"/>
        <path class="cls-1" d="M606.27,630.28c1.06,2.91,1.32,5.54.91,8.59.56-.97,1.11-1.94,1.67-2.91-5.23,2.99-10.86,6.38-17.06,6.52s-10.07-3.38-14.39-7.11c-1.61-1.39-3.24-2.8-5.01-4-1.36-.93-3.91-1.47-4.96-2.57-1.4-1.46-.84-4.47.53-6.25,2.06-2.66,5.6-2.92,8.43-1.39,3.82,2.07,7.23-3.76,3.41-5.83-6.98-3.77-16.24-1.43-19.08,6.47-1.21,3.36-1.35,8.35.96,11.35,1.28,1.67,3.2,1.73,5,2.63,2.42,1.2,4.45,3.06,6.47,4.82,7.56,6.57,15.14,10.4,25.36,7.57,4.4-1.22,10.71-3.49,14.08-6.66,3.12-2.92,1.44-9.57.18-13.04-1.48-4.05-8-2.3-6.51,1.79h0Z"/>
        <path class="cls-1" d="M590.76,331.38c6.73-2.44,13.51-3.24,20.62-2.45,4.31.48,4.28-6.28,0-6.75-7.65-.85-15.18.07-22.41,2.69-4.05,1.47-2.3,8,1.79,6.51h0Z"/>
        <path class="cls-1" d="M578.77,306.72c13.57-.27,27.36,3.14,38.71,10.77,5.02,3.38,10.07,8.4,9.46,14.95s-5.71,11.53-9.94,15.92c-3.02,3.13,1.75,7.91,4.77,4.77,5.23-5.43,10.75-11.57,11.81-19.33.95-6.96-2.34-13.28-7.33-17.94-12.3-11.5-31.04-16.21-47.48-15.89-4.34.09-4.35,6.84,0,6.75h0Z"/>
        <path class="cls-1" d="M548.09,263.52c.3-11.25,3.68-27.1,17.31-28.73s22.3,12.17,22.82,24.45c.18,4.33,6.93,4.35,6.75,0-.67-15.9-11.56-32.61-29.29-31.25s-23.94,20.31-24.35,35.54c-.11,4.35,6.64,4.34,6.75,0h0Z"/>
        <path class="cls-1" d="M586.08,263.95c3.19-.32,6.87,1.79,6.75,5.42-.1,2.95-3.39,5.48-6.25,5.05-4.25-.65-6.08,5.86-1.79,6.51,6.84,1.04,14.03-3.37,14.72-10.67.7-7.36-6.18-13.78-13.42-13.06-4.28.43-4.33,7.18,0,6.75h0Z"/>
        <path class="cls-1" d="M536.58,252.41c10.98,2.64,22.18.98,31.87-4.86-1.54-1.54-3.08-3.08-4.62-4.62-3.07,5.92-.26,12.85,6.14,14.82,4.16,1.28,5.94-5.23,1.79-6.51-2.15-.66-3.16-2.89-2.11-4.91,1.5-2.89-1.6-6.43-4.62-4.62-8.15,4.91-17.4,6.41-26.66,4.18-4.22-1.02-6.02,5.49-1.79,6.51h0Z"/>
        <path class="cls-1" d="M428.49,345.96c-.49-12.46,8.05-23.53,20.72-24.93,12.04-1.33,22.5,6.77,25.36,18.3,1.04,4.21,7.56,2.43,6.51-1.79-3.65-14.72-17.51-24.99-32.77-23.18-15.85,1.88-27.19,15.79-26.57,31.61.17,4.33,6.92,4.35,6.75,0h0Z"/>
        <path class="cls-1" d="M522.53,409.15c4.69,16.01,9.38,32.03,14.06,48.04,1.85,6.34,7.31,17.2,2.62,23.17-3.94,5.01-12.47,8.14-18.03,10.83-13.41,6.48-28.79,9.61-41.34-.29-4.28-3.37-8.67-6.85-14.43-6.49-4.64.29-8.39,2.86-9.86,7.28l6.63.9c-1.41-13.34-3.41-26.61-4.8-39.96-.45-4.28-7.2-4.32-6.75,0,1.4,13.34,3.4,26.62,4.8,39.96.39,3.71,5.37,4.67,6.63.9,2.54-7.59,13.89,3.06,16.7,5.01,5.4,3.76,11.95,5.47,18.48,5.65,14.18.38,27.51-6.66,39.45-13.56,4.77-2.76,9.4-6.25,10.76-11.88,1.63-6.73-1.66-14.14-3.52-20.48-4.96-16.96-9.93-33.91-14.89-50.87-1.22-4.16-7.73-2.39-6.51,1.79h0Z"/>
        <path class="cls-1" d="M524.23,652.19c-.87,4.81-2.56,9.31-5.44,13.29-2.07,2.86-6.68,5.68-6.43,9.71.5,7.86,13.54,10.26,19.49,9.62,7.95-.85,14.77-6,18.03-13.26,2.05-4.55,3.91-16.23-4.45-15.57-4.3.34-4.34,7.09,0,6.75.13-.01-2.21,7.13-2.53,7.67-1.49,2.52-3.61,4.63-6.19,6.04-4.66,2.54-15.41,3.01-18.07-2.95l.34,2.6c.33-1.91,3-3.83,4.18-5.29,1.31-1.62,2.48-3.34,3.49-5.17,2.01-3.64,3.34-7.56,4.08-11.65.77-4.25-5.74-6.07-6.51-1.79h0Z"/>
        <path class="cls-1" d="M477.02,673.37l-.15,7.96c1.42-1.08,2.85-2.17,4.27-3.25-8.74-1.26-18.3,1.98-26.73-.94-11.09-3.84-7.03-19.84,4.54-16.39,4.17,1.24,5.95-5.27,1.79-6.51-12.19-3.63-23.93,8.06-18.81,20.25,6.36,15.17,25.3,8.35,37.42,10.09,2.16.31,4.23-.85,4.27-3.25l.15-7.96c.08-4.35-6.67-4.35-6.75,0h0Z"/>
        <path class="cls-1" d="M355.06,369.4c4.71-5.64,15.32-13.1,21.32-4.48,2.46,3.54,8.32.17,5.83-3.41-8.57-12.31-23.93-6.47-31.93,3.11-2.77,3.31,1.98,8.11,4.77,4.77h0Z"/>
        <path class="cls-1" d="M379.4,369.36c-2.11-1.6-4.6-2.36-7.2-2.59-1.76-.16-3.45,1.67-3.38,3.38.09,1.97,1.49,3.2,3.38,3.38.43.04.5.04.21.02.25.05.49.1.73.17.36.1.73.2,1.07.35-.35-.15.56.31.54.3.44.25.84.53,1.24.83,1.45,1.1,3.78.23,4.62-1.21,1.01-1.73.25-3.51-1.21-4.62h0Z"/>
        <path class="cls-1" d="M375.26,377.87l-2.51-.57-1.79,6.51c.31.06.62.12.93.18.9.17,1.78.14,2.6-.34.7-.41,1.37-1.21,1.55-2.02.38-1.67-.5-3.8-2.36-4.15-.31-.06-.62-.12-.93-.18-.9-.17-1.78-.14-2.6.34-.7.41-1.37,1.21-1.55,2.02-.39,1.72.52,3.73,2.36,4.15l2.51.57c1.72.39,3.73-.53,4.15-2.36.39-1.72-.52-3.73-2.36-4.15h0Z"/>
        <path class="cls-1" d="M276.84,410.68c-26.32,5.95-54.04,1.1-76.87-13.24-3.69-2.32-7.08,3.52-3.41,5.83,24.37,15.3,54.03,20.26,82.07,13.92,4.24-.96,2.44-7.47-1.79-6.51h0Z"/>
        <path class="cls-1" d="M263.03,396.09c-19.85-1.45-39.06-6.99-56.66-16.29-3.84-2.03-7.25,3.8-3.41,5.83,18.68,9.87,38.99,15.67,60.06,17.21,4.33.32,4.31-6.44,0-6.75h0Z"/>
        <path class="cls-1" d="M200.33,374.13c-5.18-4.1-3.34-12.62-10.06-15.82-6.95-3.31-14.39,2.5-14.41,9.8,0,1.9.71,3.47,1.1,5.28.56,2.63-.74,3.03-1.93,5.03-2.04,3.41-1.42,7.47-.18,11.04,2.51,7.26,7.06,14.82,15.83,13.13,4.26-.82,2.46-7.33-1.79-6.51-5.77,1.11-9.58-10.92-7.56-14.83.74-1.42,2.07-2.4,2.55-4.02.68-2.33-.13-4.2-.67-6.41-.79-3.27.5-8.6,4.83-5.92,1.46.9,1.86,3.36,2.35,4.88,1.12,3.43,2.24,6.8,5.17,9.11,3.37,2.67,8.18-2.08,4.77-4.77h0Z"/>
        <path class="cls-1" d="M234.87,416.61c-.74,8.11-1.48,16.23-2.22,24.34.83-1.08,1.65-2.17,2.48-3.25-4.52.68-9.96-1.14-14.3-2.2-7.5-1.83-14.89-4.05-22.28-6.28-11.53-3.48-23.86-8.72-35.99-9.56-4.34-.3-4.32,6.45,0,6.75,5.15.35,10.37,2.21,15.29,3.64,7.46,2.16,14.87,4.48,22.31,6.7s14.41,4.28,21.74,5.93c4.86,1.09,10.03,2.28,15.02,1.53,1.54-.23,2.35-1.89,2.48-3.25.74-8.11,1.48-16.23,2.22-24.34.39-4.32-6.36-4.3-6.75,0h0Z"/>
        <path class="cls-1" d="M174.67,403.62c-9.11,20.23-18.36,41.01-20.1,63.4-1.79,23.04,7.54,44.47,9.86,67.07.44,4.28,7.19,4.32,6.75,0-2.18-21.33-10.87-41.8-10.07-63.44.83-22.43,10.32-43.49,19.39-63.62,1.77-3.93-4.05-7.37-5.83-3.41h0Z"/>
        <path class="cls-1" d="M226.89,472.43c9.53,51.02-7.55,102.06-6.87,153.19l3.38-3.38c-9.49.63-18.99,1.25-28.48,1.88l3.38,3.38c-1.28-48.46-5.13-96.82-11.53-144.87-.57-4.24-7.32-4.3-6.75,0,6.41,48.05,10.26,96.41,11.53,144.87.05,1.73,1.51,3.5,3.38,3.38,9.49-.63,18.99-1.25,28.48-1.88,1.8-.12,3.4-1.45,3.38-3.38-.68-51.84,16.3-103.22,6.63-154.98-.8-4.26-7.3-2.46-6.51,1.79h0Z"/>
        <path class="cls-1" d="M177.58,557.19c-5.78,10.98-11.56,21.95-17.34,32.93-2.62,4.98-5.01,10.21-7.92,15.02-3.54,5.83-9.92,3.34-15.01.95.52,1.27,1.03,2.54,1.55,3.81,6.33-26.34,16.38-51.5,29.96-74.93,2.18-3.77-3.65-7.17-5.83-3.41-13.86,23.91-24.19,49.67-30.64,76.54-.32,1.35.19,3.17,1.55,3.81,4.82,2.26,10.32,4.56,15.74,3.37,6-1.31,8.33-6.38,10.95-11.37,7.6-14.44,15.21-28.88,22.81-43.32,2.02-3.84-3.8-7.26-5.83-3.41h0Z"/>
        <path class="cls-1" d="M157.88,617.13c4.81,3.51,9.63,7.02,14.44,10.54-.52-1.27-1.03-2.54-1.55-3.81-1.48,8.05-14.37,4.82-20.01,4.33-3.69-.32-9.05.48-9.01-4.72.02-3.26,1.34-6.05.93-9.41-.53-4.25-7.28-4.31-6.75,0,.66,5.32-2.51,10.63.33,15.73,2.6,4.67,8.04,4.58,12.74,4.99,9.4.82,25.88,3.96,28.29-9.13.3-1.63-.24-2.86-1.55-3.81-4.81-3.51-9.63-7.02-14.44-10.54-3.51-2.56-6.88,3.29-3.41,5.83h0Z"/>
        <path class="cls-1" d="M195.22,628.48c-1.25,3.42-2.83,9.67-.16,12.77,1.46,1.71,4.59,2.78,6.6,3.78,2.26,1.12,4.6,2.17,7.01,2.92,10.48,3.22,18.37-.56,26.18-7.35,1.86-1.62,3.72-3.28,5.89-4.48,1.76-.97,3.94-1.12,5.32-2.62,2.48-2.7,2.42-7.83,1.42-11.08-2.55-8.29-12.07-10.99-19.28-7.09-3.82,2.07-.42,7.9,3.41,5.83,2.49-1.35,5.75-1.39,7.92.7,1.2,1.16,2.86,5.06,1.68,6.7-.7.97-4.44,2.02-5.59,2.81-1.76,1.2-3.39,2.61-5.01,4-4.09,3.53-7.86,6.9-13.55,7.1-6.49.23-12.48-3.41-17.91-6.51l1.67,2.91c-.41-3.07-.14-5.7.91-8.59,1.49-4.09-5.03-5.85-6.51-1.79h0Z"/>
        <path class="cls-1" d="M200.78,321.84c-1.39.05-2.78.17-4.16.34-1.74.22-3.46,1.39-3.38,3.38.07,1.64,1.5,3.61,3.38,3.38,1.38-.17,2.77-.29,4.16-.34,1.76-.07,3.46-1.5,3.38-3.38-.08-1.77-1.49-3.45-3.38-3.38h0Z"/>
        <path class="cls-1" d="M191,348.37c-5.74-5.96-13.18-14.03-8.48-22.78,4.22-7.86,14.38-12.28,22.32-15.13,4.06-1.46,2.31-7.98-1.79-6.51-10.35,3.71-23.08,9.61-27.46,20.54-4.47,11.17,3.27,21,10.64,28.65,3.02,3.14,7.79-1.64,4.77-4.77h0Z"/>
        <path class="cls-1" d="M221.92,257.2c-7.24-.73-14.13,5.69-13.42,13.06.7,7.29,7.87,11.71,14.72,10.67,4.28-.65,2.46-7.16-1.79-6.51-2.86.44-6.15-2.1-6.25-5.05-.13-3.63,3.55-5.74,6.75-5.42,4.32.43,4.29-6.32,0-6.75h0Z"/>
        <path class="cls-1" d="M386.26,345.96c.62-15.81-10.72-29.72-26.57-31.61s-29.12,8.46-32.77,23.18c-1.05,4.22,5.46,6.02,6.51,1.79,2.86-11.53,13.31-19.64,25.36-18.3,12.67,1.4,21.21,12.47,20.72,24.93-.17,4.34,6.58,4.34,6.75,0h0Z"/>
        <path class="cls-1" d="M278.96,407.35c-4.96,16.96-9.93,33.91-14.89,50.87-1.85,6.33-5.15,13.76-3.52,20.48,1.36,5.63,6,9.13,10.76,11.88,11.98,6.9,25.24,13.91,39.45,13.56,6.26-.15,12.6-1.76,17.87-5.21,2.96-1.94,14.71-13.23,17.31-5.45,1.25,3.75,6.24,2.84,6.63-.9,1.07-10.19,2.41-20.36,3.48-30.55.45-4.32-6.3-4.28-6.75,0-1.07,10.19-2.41,20.36-3.48,30.55l6.63-.9c-1.48-4.42-5.23-6.99-9.86-7.28-5.47-.34-9.75,2.79-13.84,6.02-12.88,10.16-28.02,7.51-41.93.76-5.61-2.72-13.24-5.69-17.56-10.35-5.34-5.76,0-16.33,1.88-22.71,4.78-16.33,9.56-32.66,14.34-48.98,1.22-4.18-5.29-5.96-6.51-1.79h0Z"/>
        <path class="cls-1" d="M353.36,419.73c-.52,5.07-1.05,10.13-1.57,15.2-.45,4.32,6.31,4.29,6.75,0,.52-5.07,1.05-10.13,1.57-15.2.45-4.32-6.31-4.29-6.75,0h0Z"/>
        <path class="cls-1" d="M336.32,492.27c2.62,58.95,4.35,117.94,6.98,176.9l3.38-3.38c-7.02.5-14.05,1.01-21.07,1.51,1.08.83,2.17,1.65,3.25,2.48-7.52-48.41-14.43-97.8-29.3-144.62-1.31-4.12-7.83-2.36-6.51,1.79,14.87,46.81,21.78,96.21,29.3,144.62.21,1.36,1.91,2.57,3.25,2.48,7.02-.5,14.05-1.01,21.07-1.51,1.76-.13,3.46-1.44,3.38-3.38-2.62-58.95-4.35-117.94-6.98-176.9-.19-4.33-6.94-4.35-6.75,0h0Z"/>
        <path class="cls-1" d="M270.52,491.65c.26,27.79.41,55.59.62,83.38.05,6.49.1,12.97.15,19.45.03,3.55.14,5.48-1.72,8.56s-3.64,6.57-5.13,10.03c-6.16,14.27-8.41,29.91-6.5,45.34.23,1.9,1.36,3.26,3.38,3.38,4.86.28,10.13.38,14.5-2.13,4.85-2.79,6.96-8.07,9.17-12.9,6.13-13.41,12.27-26.82,18.4-40.23,1.79-3.92-4.02-7.36-5.83-3.41-5.04,11.03-10.08,22.05-15.13,33.08-2.16,4.72-3.96,9.95-6.8,14.32-3.3,5.08-8.9,4.84-14.32,4.52l3.38,3.38c-1.98-16.03.54-32.4,7.88-46.86,1.49-2.93,4.55-6.27,5.41-9.42.66-2.43.08-5.76.05-8.29-.06-6.52-.11-13.04-.15-19.56-.2-27.55-.36-55.1-.62-82.64-.04-4.34-6.79-4.35-6.75,0h0Z"/>
        <path class="cls-1" d="M277.26,653.98c.74,4.09,2.06,8,4.08,11.65.94,1.7,2.03,3.3,3.23,4.83s4.11,3.7,4.44,5.63l.34-2.6c-2.67,5.99-13.4,5.47-18.07,2.95-2.36-1.27-4.39-3.18-5.83-5.43-.42-.66-3.18-8.29-2.88-8.27,4.33.34,4.31-6.41,0-6.75-8.16-.65-6.56,10.59-4.62,15.16,3.17,7.46,10.11,12.8,18.2,13.66,6.01.64,18.31-1.64,19.43-9.17.59-3.97-3.55-6.6-5.68-9.3-3.29-4.16-5.19-8.97-6.13-14.16-.77-4.27-7.28-2.46-6.51,1.79h0Z"/>
        <path class="cls-1" d="M324.22,673.37c.05,2.65.1,5.31.15,7.96.04,2.41,2.11,3.57,4.27,3.25,12.13-1.75,31.05,5.09,37.42-10.09,5.11-12.18-6.61-23.89-18.81-20.25-4.15,1.24-2.38,7.75,1.79,6.51,11.54-3.44,15.68,12.53,4.54,16.39-8.43,2.92-17.99-.32-26.73.94,1.42,1.08,2.85,2.17,4.27,3.25-.05-2.65-.1-5.31-.15-7.96-.08-4.34-6.83-4.35-6.75,0h0Z"/>
        <path class="cls-1" d="M484.72,434.85c5.25-3.58,13.56-1.9,16.1,4.33,1.38-1.38,2.77-2.77,4.15-4.15-2.9-.48-5.79-.95-8.69-1.43-4.25-.7-6.08,5.8-1.79,6.51,2.9.48,5.79.95,8.69,1.43,2.21.36,5.23-1.5,4.15-4.15-4.06-9.99-16.8-14.65-26.01-8.36-3.57,2.44-.19,8.29,3.41,5.83h0Z"/>
        <path class="cls-1" d="M483.48,449.89c5.84,3.77,11.68,7.54,17.52,11.31,1.14-1.94,2.27-3.89,3.41-5.83-2.44-1.51-4.88-3.03-7.32-4.54-3.7-2.3-7.1,3.54-3.41,5.83,2.44,1.51,4.88,3.03,7.32,4.54,3.71,2.3,7.04-3.48,3.41-5.83-5.84-3.77-11.68-7.54-17.52-11.31-3.66-2.36-7.05,3.48-3.41,5.83h0Z"/>
        <path class="cls-1" d="M504.91,452.07c1.97.78,3.93,1.56,5.9,2.35.3-2.21.6-4.42.9-6.63-.75-.04-1.49-.08-2.24-.12-1.82-.1-3.38,1.62-3.38,3.38,0,1.91,1.55,3.27,3.38,3.38.75.04,1.49.08,2.24.12,1.66.09,3.13-1.35,3.31-2.93.21-1.78-.81-3.06-2.42-3.7-1.97-.78-3.93-1.56-5.9-2.35-1.69-.67-3.71.74-4.15,2.36-.53,1.92.66,3.47,2.36,4.15h0Z"/>
        <path class="cls-1" d="M382.81,444.06c-13.81,8.76-29.53,10.83-45.1,14.65-4.22,1.03-2.43,7.54,1.79,6.51,16.18-3.96,32.38-6.23,46.72-15.33,3.66-2.32.28-8.16-3.41-5.83h0Z"/>
        <path class="cls-1" d="M362.04,426.1c-17.93,15.24-51.13,17.6-54.25,46.07-.47,4.31,6.28,4.28,6.75,0,1.32-12.02,12.35-19.79,22.34-24.75,10.31-5.12,21.05-8.99,29.93-16.54,3.31-2.82-1.48-7.57-4.77-4.77h0Z"/>
        <path class="cls-1" d="M320.42,466.9c-.29,2.19-.58,4.39-.87,6.58-.24,1.81,1.72,3.38,3.38,3.38,2.02,0,3.14-1.56,3.38-3.38.29-2.19.58-4.39.87-6.58.24-1.81-1.72-3.38-3.38-3.38-2.02,0-3.14,1.56-3.38,3.38h0Z"/>
        <path class="cls-1" d="M329.77,466.84l.94,4.69c.35,1.73,2.5,2.89,4.15,2.36,1.84-.6,2.73-2.29,2.36-4.15l-.94-4.69c-.35-1.73-2.5-2.89-4.15-2.36-1.84.6-2.73,2.29-2.36,4.15h0Z"/>
        <path class="cls-1" d="M314.3,454.3c-4.45,2.06-8.9,4.12-13.35,6.19-1.67.77-2.05,3.14-1.21,4.62.99,1.75,2.95,1.92,4.62,1.21,1.68-.72,3.36-1.43,5.03-2.15s2.03-3.18,1.21-4.62c-.99-1.75-2.95-1.92-4.62-1.21s-3.36,1.43-5.03,2.15c1.14,1.94,2.27,3.89,3.41,5.83,4.45-2.06,8.9-4.12,13.35-6.19,3.94-1.82.51-7.64-3.41-5.83h0Z"/>
        <path class="cls-1" d="M210.47,262.29c-7.33-5.58-3.16-15.49,5.1-16.69,2.16-.31,3.06-3.29,2.02-4.96-5.63-9.01,3.62-19.43,13.14-14.26,1.48.81,3.84.49,4.62-1.21,4.76-10.35,18.14-10.15,22.7.25.45,1.03,1.84,1.71,2.91,1.67,8.4-.29,12.15,8.16,7.19,14.6-1.2,1.56-.09,3.64,1.21,4.62-.2,1.62-.39,3.23-.59,4.85-3.96,1.63-2.23,8.17,1.79,6.51,7.85-3.24,9.02-12.08,2.2-17.19.4,1.54.81,3.08,1.21,4.62,8.13-10.56.05-25.21-13.02-24.75l2.91,1.67c-6.53-14.89-27.58-14.98-34.35-.25l4.62-1.21c-15.27-8.3-31.71,8.55-22.38,23.49.67-1.65,1.34-3.31,2.02-4.96-14.95,2.18-18.05,20.41-6.72,29.03,3.46,2.63,6.82-3.23,3.41-5.83h0Z"/>
        <path class="cls-1" d="M235.53,260.87c8.94.48,17.34-2.86,23.59-9.24-1.88-1.09-3.76-2.19-5.64-3.28-.93,4.06.58,8,4.55,9.7,3.95,1.68,7.4-4.13,3.41-5.83-.48-.69-.97-1.38-1.45-2.07.73-3.19-3.2-5.78-5.64-3.28-5.09,5.2-11.58,7.66-18.82,7.27-4.34-.23-4.33,6.52,0,6.75h0Z"/>
        <path class="cls-1" d="M210.95,285.45c-2.74,2.26-4.64,5.19-5.94,8.47-.67,1.7.74,3.71,2.36,4.15,1.92.53,3.48-.66,4.15-2.36.86-2.18,2.41-4,4.21-5.49,1.41-1.16,1.2-3.57,0-4.77-1.39-1.39-3.36-1.16-4.77,0h0Z"/>
        <g>
          <path class="cls-1" d="M437.53,232.41c1.42,4.66,2.88,9.31,4.45,13.92,1.03,3.03,1.98,6.31,4.63,8.34,3.02,2.31,6.48,1.74,9.92.9,4.71-1.16,9.37-2.66,14.03-3.99,4.17-1.18,2.4-7.7-1.79-6.51-2.92.83-5.85,1.66-8.77,2.49s-7.78,3.34-10.27.38c-1.5-1.78-1.96-5.54-2.68-7.74-1.04-3.18-2.04-6.38-3.02-9.58-1.26-4.14-7.78-2.38-6.51,1.79h0Z"/>
          <path class="cls-1" d="M440.85,228c-6.78-2.75-8.14-10.93-3.31-16.15l-5.3-.68c4.9,6.67,11.1,11.42,18.84,14.36,2.66,1.01,4.52-1.89,4.15-4.15-.49-3-.03-5.53,1.04-8.31l-5.64,1.49c3.89,3.64,8.15,6.54,13.01,8.72,3.93,1.76,7.37-4.05,3.41-5.83-4.34-1.95-8.16-4.41-11.64-7.67-1.98-1.85-4.73-.88-5.64,1.49-1.54,3.98-1.73,7.72-1.04,11.89,1.38-1.38,2.77-2.77,4.15-4.15-5.96-2.27-11.03-6.12-14.8-11.26-1.22-1.66-3.7-2.42-5.3-.68-8.53,9.23-5.19,22.78,6.29,27.43,4.02,1.63,5.77-4.89,1.79-6.51h0Z"/>
          <path class="cls-1" d="M476.21,236.03c.6,2.29,1.19,4.57,1.79,6.86,1.09,4.2,7.61,2.42,6.51-1.79-.6-2.29-1.19-4.57-1.79-6.86-1.09-4.2-7.61-2.42-6.51,1.79h0Z"/>
          <path class="cls-1" d="M442.28,233.68c-8.44-1.61-17.87-2.91-25.04,2.97-6.71,5.5-7.92,14.46-8.78,22.56-.46,4.31,6.3,4.28,6.75,0,.61-5.76,1.26-12.61,5.73-16.84,5.23-4.94,13.2-3.38,19.54-2.17,4.24.81,6.06-5.7,1.79-6.51h0Z"/>
          <path class="cls-1" d="M482.2,240.77c12.56,5.51,24.03,12.86,34.2,22.07.8-1.92,1.59-3.84,2.39-5.76l-1.63-.19c-4.3-.51-4.27,6.24,0,6.75l1.63.19c2.93.35,4.43-3.91,2.39-5.76-10.59-9.58-22.49-17.38-35.57-23.12-3.94-1.73-7.38,4.08-3.41,5.83h0Z"/>
          <path class="cls-1" d="M462.94,259.93c2.76,4.75,6.09,8.97,10.07,12.76,1.67,1.58,4.06,1.12,5.3-.68,6.07-8.8,12.9-16.96,20.43-24.55,2.57-2.58-.14-6.13-3.28-5.64l-1.29.2c-4.28.67-2.46,7.17,1.79,6.51l1.29-.2-3.28-5.64c-7.94,7.99-15.09,16.64-21.49,25.91l5.3-.68c-3.58-3.4-6.53-7.12-9.02-11.39-2.18-3.75-8.02-.36-5.83,3.41h0Z"/>
          <path class="cls-1" d="M463.44,257.79c-1.78,2.97-3.55,5.93-5.33,8.9-2.24,3.74,3.6,7.13,5.83,3.41,1.78-2.97,3.55-5.93,5.33-8.9,2.24-3.74-3.6-7.13-5.83-3.41h0Z"/>
          <path class="cls-1" d="M368.28,230.62c-.89,2.91-1.79,5.82-2.73,8.71-.73,2.24-1.38,6.79-2.96,8.61-2.4,2.78-6.64.65-9.39-.13-3.22-.91-6.43-1.83-9.65-2.74-4.19-1.19-5.97,5.32-1.79,6.51,4.67,1.33,9.32,2.83,14.03,3.99,3.44.84,6.9,1.41,9.92-.9,2.65-2.03,3.6-5.31,4.63-8.34,1.57-4.61,3.03-9.26,4.45-13.92,1.27-4.16-5.24-5.94-6.51-1.79h0Z"/>
          <path class="cls-1" d="M329.6,234.23c-.6,2.29-1.19,4.57-1.79,6.86-1.1,4.21,5.41,6,6.51,1.79.6-2.29,1.19-4.57,1.79-6.86,1.1-4.21-5.41-6-6.51-1.79h0Z"/>
          <path class="cls-1" d="M371.84,240.19c6.34-1.21,14.31-2.77,19.54,2.17,4.48,4.23,5.12,11.08,5.73,16.84.45,4.28,7.21,4.32,6.75,0-.86-8.1-2.07-17.05-8.78-22.56-7.17-5.88-16.59-4.57-25.04-2.97-4.26.81-2.46,7.32,1.79,6.51h0Z"/>
          <path class="cls-1" d="M326.71,234.94c-13.08,5.74-24.98,13.54-35.57,23.12-2.03,1.83-.55,6.11,2.39,5.76l1.63-.19c4.26-.51,4.31-7.26,0-6.75l-1.63.19c.8,1.92,1.59,3.84,2.39,5.76,10.17-9.2,21.65-16.55,34.2-22.07,3.97-1.74.54-7.56-3.41-5.83h0Z"/>
          <path class="cls-1" d="M343.56,256.52c-2.49,4.27-5.44,7.99-9.02,11.39l5.3.68c-6.4-9.27-13.55-17.92-21.49-25.91l-3.28,5.64,1.29.2c4.25.66,6.08-5.84,1.79-6.51l-1.29-.2c-3.14-.49-5.86,3.05-3.28,5.64,7.54,7.58,14.36,15.75,20.43,24.55,1.25,1.81,3.63,2.27,5.3.68,3.98-3.78,7.31-8.01,10.07-12.76,2.19-3.76-3.64-7.16-5.83-3.41h0Z"/>
          <path class="cls-1" d="M343.05,261.19l5.33,8.9c2.23,3.72,8.07.33,5.83-3.41-1.78-2.97-3.55-5.93-5.33-8.9-2.23-3.72-8.07-.33-5.83,3.41h0Z"/>
        </g>
        <path class="cls-1" d="M317.19,242.93c2.32-11.95,1.93-24.94,7.2-36.14,4.46-9.49,15.34-18.08,25.92-12.05,1.21.69,3.13.61,4.09-.53,7.05-8.29,18.23-2.63,21.55,6.14,2.73,7.2,2.33,21.04-6.2,24.5-3.97,1.61-2.24,8.14,1.79,6.51,12.97-5.25,15.25-23.18,10.14-34.77-5.44-12.33-22.3-18.63-32.06-7.15l4.09-.53c-10.78-6.15-23.83-1.58-31.07,7.82-9.79,12.71-9.05,29.39-11.96,44.4-.82,4.24,5.68,6.06,6.51,1.79h0Z"/>
        <path class="cls-1" d="M334.34,225.78c12.1-2.79,22.95-8.96,31.57-17.89-1.88-.5-3.76-.99-5.64-1.49.7,2.62,1.41,5.24,2.11,7.87,1.12,4.19,7.64,2.41,6.51-1.79-.7-2.62-1.41-5.24-2.11-7.87-.65-2.43-3.88-3.32-5.64-1.49-7.87,8.15-17.56,13.61-28.59,16.15-4.23.98-2.44,7.49,1.79,6.51h0Z"/>
        <path class="cls-1" d="M438.52,225.63c-7.53-2.64-12.53-11.37-9.98-19.17,1.24-3.78,4.22-6.96,7.72-8.77,1.81-.94,3.82-1.58,5.86-1.78,1.71-.16,3.66.51,5.26-.12,1.42-.56,2.28-2.22,3.38-3.22,1.54-1.4,3.31-2.49,5.24-3.27,3.73-1.52,7.97-1.88,11.85-.7,8.4,2.55,12.93,11.23,12.01,19.62-.18,1.67,1.7,3.58,3.38,3.38,9.02-1.1,11.51,10.93,2.38,12.89-4.25.91-2.45,7.42,1.79,6.51,6.8-1.46,11.99-8.08,10.85-15.15-1.13-7.01-8.1-11.84-15.02-11l3.38,3.38c1.17-10.61-4.98-21.49-15.02-25.46-5.22-2.06-11.21-2.11-16.51-.32-2.44.82-4.75,1.99-6.83,3.51-2.48,1.8-2.78,3.15-5.46,3.19-10.28.15-19.9,8.4-21.41,18.56-1.6,10.75,5.35,20.93,15.36,24.44,4.11,1.44,5.87-5.08,1.79-6.51h0Z"/>
        <path class="cls-1" d="M348.48,411.62c9.36,9.46,18.71,18.92,28.07,28.38,4.44,4.49,8.89,8.99,13.33,13.48,1.6,1.61,3.8,4.81,6,5.67,2.04.79,4.8-.41,6.81-.82,25.05-5.06,50.99-5.01,76.06-.17,2.72.53,4.53-1.54,4.15-4.15-1.28-8.85-.1-17.53,3.09-25.86.84-2.2-1.28-4.13-3.25-4.27-18.46-1.34-36.86-3.48-55.12-6.52-4.48-.75-8.95-1.54-13.41-2.39-4.06-.77-9.72-.85-13.35-2.69-3.29-1.66-5.69-6.69-7.89-9.65-2.67-3.6-5.33-7.19-8-10.79-2.56-3.45-8.42-.09-5.83,3.41,3.05,4.11,6.1,8.22,9.15,12.33,2.21,2.99,4.85,8.56,8.07,10.46,3.1,1.83,8.68,2,12.24,2.7,5.09,1,10.2,1.94,15.31,2.8,19.48,3.31,39.12,5.65,58.83,7.08-1.08-1.42-2.17-2.85-3.25-4.27-3.65,9.53-4.54,19.38-3.09,29.45,1.38-1.38,2.77-2.77,4.15-4.15-27.93-5.39-56.49-5.02-84.26,1.15l3.28.87c-15.44-15.61-30.88-31.22-46.32-46.83-3.06-3.09-7.83,1.68-4.77,4.77h0Z"/>
        <path class="cls-1" d="M461.08,491.41c-10.78,24.29-5.92,50.78-.82,75.85s10.06,52.32-3.47,75.19c-.92,1.56-.37,3.72,1.21,4.62,13.91,7.92,30.56,10.3,46.07,6.11,12.73-3.43,33.45-20.45,44.95-6.14,2.61,3.25,6.68-.9,5.3-4.09-21.26-49.19,12.54-105.74-14.72-153.87-2.14-3.78-7.97-.38-5.83,3.41,13.18,23.27,11.18,50.93,8.79,76.58s-4.69,52.71,5.93,77.3c1.77-1.36,3.53-2.73,5.3-4.09-10.45-13-27.82-5.91-40-.09-16.98,8.11-35.79,8.51-52.38-.94.4,1.54.81,3.08,1.21,4.62,12.68-21.43,10.46-46.99,6.1-70.49-4.86-26.22-13.23-54.83-1.81-80.55,1.75-3.94-4.07-7.37-5.83-3.41h0Z"/>
        <path class="cls-1" d="M280.07,313.7c1.35.13,2.69.27,4.04.4,1.76.18,3.45-1.68,3.38-3.38-.09-1.98-1.49-3.19-3.38-3.38-1.35-.13-2.69-.27-4.04-.4-1.76-.18-3.45,1.68-3.38,3.38.09,1.98,1.49,3.19,3.38,3.38h0Z"/>
        <path class="cls-1" d="M276.72,311.33c.87,5.46,2.09,12.38-1.65,17.1-3.72,4.69-9.97,3.91-15.1,2.39-4.17-1.23-5.96,5.28-1.79,6.51,7.33,2.16,16.06,2.34,21.52-3.86,5.88-6.67,4.83-15.83,3.54-23.94-.68-4.28-7.19-2.46-6.51,1.79h0Z"/>
        <path class="cls-1" d="M245.44,306.22c-5.91-1.89-12.79,1.73-14.25,7.86-1.61,6.73,3.87,12.68,10.28,13.39,3.4.37,4.5-4.78,1.7-6.29l-.95-.51c-3.82-2.07-7.23,3.76-3.41,5.83l.95.51,1.7-6.29c-2.42-.27-4.46-3.21-3.58-5.54.86-2.3,3.6-3.14,5.76-2.45,4.15,1.32,5.92-5.19,1.79-6.51h0Z"/>
        <path class="cls-1" d="M279.13,291.97c-2.95-19.35-26.09-22.05-40.47-14-13.34,7.46-22.98,27.12-8.73,38.86,3.33,2.74,8.13-2.01,4.77-4.77-10.82-8.91-2.38-22.81,7.36-28.26,10.93-6.12,28.29-4.9,30.56,9.97.65,4.28,7.16,2.46,6.51-1.79h0Z"/>
        <path class="cls-1" d="M225.66,300.4c-9.21-5.26-19.55-2.68-25.5,6.28-2.87,4.32-3.92,9.38-3.41,14.5.61,6.19,3.6,12.8-.64,18.31-1.72,2.23.69,4.89,2.91,5.08,13.03,1.13,30.29.17,34.21-15.25,1.07-4.21-5.44-6.01-6.51-1.79-3.07,12.07-18.03,11.14-27.7,10.3.97,1.69,1.94,3.39,2.91,5.08,5.62-7.3,1.75-15.29,1.42-23.44-.19-4.52,1.48-8.89,4.89-11.93,4.42-3.94,9.01-4.15,14.01-1.3,3.78,2.16,7.18-3.67,3.41-5.83h0Z"/>
        <path class="cls-1" d="M257.28,309.02c9.08-4.22,17.14-10.12,23.96-17.46,1.84-1.99.69-5.99-2.39-5.76l-1.2.09c-4.31.32-4.34,7.07,0,6.75l1.2-.09c-.8-1.92-1.59-3.84-2.39-5.76-6.46,6.96-13.98,12.41-22.59,16.41-3.94,1.83-.51,7.65,3.41,5.83h0Z"/>
        <path class="cls-1" d="M262.35,324.35c1.44,1.45,3.21,2.49,5.16,3.08,1.37.41,3.13-.26,3.81-1.55s.66-3.14-.53-4.09c-.42-.33-.83-.66-1.25-1-.73-.58-1.42-.99-2.39-.99-.83,0-1.82.37-2.39.99-1.12,1.22-1.47,3.6,0,4.77.42.33.83.66,1.25,1,1.09-1.88,2.19-3.76,3.28-5.64-.15-.04-.31-.09-.46-.15-.35-.13-.3-.11.14.07-.26-.02-.63-.32-.85-.45-.14-.08-.27-.17-.41-.26-.3-.21-.26-.18.11.09-.24-.09-.53-.47-.71-.65-1.24-1.26-3.54-1.34-4.77,0s-1.33,3.43,0,4.77h0Z"/>
        <path class="cls-1" d="M255.03,334.84c-1.36,2.41-2.72,4.83-4.08,7.24-2.13,3.79,3.7,7.2,5.83,3.41,1.36-2.41,2.72-4.83,4.08-7.24,2.13-3.79-3.7-7.2-5.83-3.41h0Z"/>
        <path class="cls-1" d="M250.18,347.04c32.11,10.66,66.33,17.39,100.24,17.48l-3.38-3.38c-.91,7.71-1.82,15.43-2.73,23.14l3.38-3.38c-23.82,2.11-47.79,1.97-71.56-.58-10.7-1.15-22.9-1.8-33.06-5.66-4.81-1.83-8.53-5.36-8.81-10.71-.23-4.25,1.55-8.43,5.11-10.84,3.58-2.42.2-8.27-3.41-5.83-7.43,5.02-10.55,14.78-7.06,23.16,4.67,11.22,18.6,12.6,29.03,14.23,29.69,4.65,59.82,5.62,89.74,2.97,1.99-.18,3.14-1.42,3.38-3.38.91-7.71,1.82-15.43,2.73-23.14.21-1.82-1.72-3.37-3.38-3.38-33.35-.09-66.87-6.76-98.45-17.24-4.13-1.37-5.9,5.14-1.79,6.51h0Z"/>
      </g>
      <g>
        <g>
          <path class="cls-1" d="M161.84,220.39c12.89-29.58,38.52-52.35,69.55-61.35,4.16-1.21,2.39-7.72-1.79-6.51-32.56,9.44-60.03,33.34-73.59,64.45-1.72,3.94,4.1,7.38,5.83,3.41h0Z"/>
          <path class="cls-1" d="M148.59,168.24c12.2,10.37,24.41,20.74,36.61,31.1,3.29,2.8,8.09-1.96,4.77-4.77-12.2-10.37-24.41-20.74-36.61-31.1-3.29-2.8-8.09,1.96-4.77,4.77h0Z"/>
          <path class="cls-1" d="M166.32,117.45c19.63,26.92,39.27,53.85,58.9,80.77,2.53,3.48,8.39.11,5.83-3.41-19.63-26.92-39.27-53.85-58.9-80.77-2.53-3.48-8.39-.11-5.83,3.41h0Z"/>
        </g>
        <g>
          <path class="cls-1" d="M643.98,216.98c-13.56-31.11-41.03-55.01-73.59-64.45-4.18-1.21-5.97,5.3-1.79,6.51,31.03,9,56.66,31.76,69.55,61.35,1.73,3.97,7.55.54,5.83-3.41h0Z"/>
          <path class="cls-1" d="M646.63,163.47c-12.2,10.37-24.41,20.74-36.61,31.1-3.32,2.82,1.48,7.57,4.77,4.77,12.2-10.37,24.41-20.74,36.61-31.1,3.32-2.82-1.48-7.57-4.77-4.77h0Z"/>
          <path class="cls-1" d="M627.85,114.04c-19.63,26.92-39.27,53.85-58.9,80.77-2.56,3.51,3.29,6.89,5.83,3.41,19.63-26.92,39.27-53.85,58.9-80.77,2.56-3.51-3.29-6.89-5.83-3.41h0Z"/>
        </g>
      </g>
    </g>
  </g>
</svg>